<svg xmlns="http://www.w3.org/2000/svg" xmlns:xlink="http://www.w3.org/1999/xlink" width="500" zoomAndPan="magnify" viewBox="0 0 375 374.999991" height="500" preserveAspectRatio="xMidYMid meet" version="1.0"><defs><clipPath id="35c792a008"><path d="M 18.246094 317.574219 L 64.4375 317.574219 L 64.4375 326.351562 L 18.246094 326.351562 Z M 18.246094 317.574219 " clip-rule="nonzero"/></clipPath><clipPath id="8c74917fe8"><path d="M 13.203125 243 L 70 243 L 70 301 L 13.203125 301 Z M 13.203125 243 " clip-rule="nonzero"/></clipPath><clipPath id="eeed8c8779"><path d="M 164.546875 317.574219 L 210.578125 317.574219 L 210.578125 326.351562 L 164.546875 326.351562 Z M 164.546875 317.574219 " clip-rule="nonzero"/></clipPath><clipPath id="3612a41613"><path d="M 310.683594 317.574219 L 356.875 317.574219 L 356.875 326.351562 L 310.683594 326.351562 Z M 310.683594 317.574219 " clip-rule="nonzero"/></clipPath><clipPath id="af6d4f370f"><path d="M 305.484375 209.175781 L 361.945312 209.175781 L 361.945312 265.820312 L 305.484375 265.820312 Z M 305.484375 209.175781 " clip-rule="nonzero"/></clipPath></defs><path fill="#83807b" d="M 77.953125 280.117188 L 46.414062 280.117188 L 46.414062 237.664062 C 46.414062 235.660156 48.039062 234.035156 50.039062 234.035156 L 74.328125 234.035156 C 76.332031 234.035156 77.953125 235.660156 77.953125 237.664062 L 77.953125 280.117188 " fill-opacity="1" fill-rule="nonzero"/><path fill="#83807b" d="M 203.386719 280.117188 L 171.847656 280.117188 L 171.847656 151.160156 C 171.847656 149.378906 173.289062 147.933594 175.070312 147.933594 L 200.164062 147.933594 C 201.945312 147.933594 203.386719 149.378906 203.386719 151.160156 L 203.386719 280.117188 " fill-opacity="1" fill-rule="nonzero"/><path fill="#83807b" d="M 329.941406 280.113281 L 298.398438 280.113281 L 298.398438 112.25 C 298.398438 110.222656 300.042969 108.578125 302.070312 108.578125 L 326.269531 108.578125 C 328.296875 108.578125 329.941406 110.222656 329.941406 112.25 L 329.941406 280.113281 " fill-opacity="1" fill-rule="nonzero"/><path fill="#83807b" d="M 140.390625 280.117188 L 108.851562 280.117188 L 108.851562 211.195312 C 108.851562 209.421875 110.285156 207.984375 112.058594 207.984375 L 137.183594 207.984375 C 138.953125 207.984375 140.390625 209.421875 140.390625 211.195312 L 140.390625 280.117188 " fill-opacity="1" fill-rule="nonzero"/><path fill="#83807b" d="M 266.382812 280.117188 L 234.84375 280.117188 L 234.84375 175.515625 C 234.84375 174.191406 235.914062 173.117188 237.238281 173.117188 L 263.988281 173.117188 C 265.3125 173.117188 266.382812 174.191406 266.382812 175.515625 L 266.382812 280.117188 " fill-opacity="1" fill-rule="nonzero"/><path fill="#2d4d5d" d="M 349.089844 297.167969 L 34.570312 297.167969 C 32.300781 297.167969 30.464844 295.328125 30.464844 293.058594 L 30.464844 284.226562 C 30.464844 281.957031 32.300781 280.117188 34.570312 280.117188 L 349.089844 280.117188 C 351.355469 280.117188 353.191406 281.957031 353.191406 284.226562 L 353.191406 293.058594 C 353.191406 295.328125 351.355469 297.167969 349.089844 297.167969 " fill-opacity="1" fill-rule="nonzero"/><path fill="#ffbe31" d="M 62.179688 215.488281 C 61.609375 215.488281 61.035156 215.339844 60.511719 215.023438 C 58.964844 214.101562 58.460938 212.09375 59.382812 210.546875 L 95.863281 149.4375 C 96.425781 148.496094 97.421875 147.902344 98.515625 147.851562 C 99.609375 147.796875 100.65625 148.300781 101.300781 149.1875 L 124.507812 181.011719 L 185.464844 90.070312 C 186.007812 89.265625 186.875 88.742188 187.839844 88.640625 C 188.804688 88.542969 189.761719 88.875 190.457031 89.554688 L 250.210938 147.9375 L 311.542969 64.671875 C 312.613281 63.21875 314.65625 62.910156 316.105469 63.980469 C 317.558594 65.050781 317.863281 67.09375 316.796875 68.542969 L 253.238281 154.832031 C 252.679688 155.59375 251.820312 156.074219 250.875 156.148438 C 249.9375 156.222656 249.007812 155.890625 248.335938 155.230469 L 188.703125 96.96875 L 127.332031 188.523438 C 126.738281 189.410156 125.75 189.949219 124.683594 189.96875 C 124.664062 189.96875 124.640625 189.972656 124.621094 189.972656 C 123.578125 189.972656 122.601562 189.472656 121.984375 188.628906 L 98.9375 157.023438 L 64.984375 213.898438 C 64.375 214.921875 63.292969 215.488281 62.179688 215.488281 " fill-opacity="1" fill-rule="nonzero"/><path fill="#ffbe31" d="M 328.058594 49.019531 L 291.257812 54.84375 L 331.480469 86.15625 L 328.058594 49.019531 " fill-opacity="1" fill-rule="nonzero"/><path fill="#dba02a" d="M 60.789062 309.015625 L 21.957031 309.015625 C 19.988281 309.015625 18.390625 307.417969 18.390625 305.445312 L 18.390625 303.914062 C 18.390625 301.941406 19.988281 300.34375 21.957031 300.34375 L 60.789062 300.34375 C 62.757812 300.34375 64.355469 301.941406 64.355469 303.914062 L 64.355469 305.445312 C 64.355469 307.417969 62.757812 309.015625 60.789062 309.015625 " fill-opacity="1" fill-rule="nonzero"/><path fill="#ffbe31" d="M 60.789062 317.683594 L 21.957031 317.683594 C 19.988281 317.683594 18.390625 316.085938 18.390625 314.113281 L 18.390625 312.582031 C 18.390625 310.609375 19.988281 309.015625 21.957031 309.015625 L 60.789062 309.015625 C 62.757812 309.015625 64.355469 310.609375 64.355469 312.582031 L 64.355469 314.113281 C 64.355469 316.085938 62.757812 317.683594 60.789062 317.683594 " fill-opacity="1" fill-rule="nonzero"/><g clip-path="url(#35c792a008)"><path fill="#dba02a" d="M 60.789062 326.351562 L 21.957031 326.351562 C 19.988281 326.351562 18.390625 324.753906 18.390625 322.785156 L 18.390625 321.25 C 18.390625 319.28125 19.988281 317.683594 21.957031 317.683594 L 60.789062 317.683594 C 62.757812 317.683594 64.355469 319.28125 64.355469 321.25 L 64.355469 322.785156 C 64.355469 324.753906 62.757812 326.351562 60.789062 326.351562 " fill-opacity="1" fill-rule="nonzero"/></g><path fill="#ffbe31" d="M 63.917969 272.152344 C 63.917969 284.613281 53.824219 294.71875 41.371094 294.71875 C 28.921875 294.71875 18.824219 284.613281 18.824219 272.152344 C 18.824219 259.6875 28.921875 249.582031 41.371094 249.582031 C 53.824219 249.582031 63.917969 259.6875 63.917969 272.152344 " fill-opacity="1" fill-rule="nonzero"/><path fill="#dba02a" d="M 41.371094 252.800781 C 53.199219 252.800781 62.898438 261.917969 63.84375 273.511719 C 63.894531 272.898438 63.917969 272.28125 63.917969 271.652344 C 63.917969 259.191406 53.824219 249.085938 41.371094 249.085938 C 28.921875 249.085938 18.824219 259.191406 18.824219 271.652344 C 18.824219 272.28125 18.851562 272.898438 18.902344 273.511719 C 19.84375 261.917969 29.542969 252.800781 41.371094 252.800781 " fill-opacity="1" fill-rule="nonzero"/><path fill="#dba02a" d="M 44.644531 278.660156 C 44.191406 278.804688 43.683594 278.914062 43.113281 278.984375 L 43.113281 275.230469 C 43.453125 275.320312 43.757812 275.40625 44.03125 275.496094 C 44.675781 275.707031 45.160156 275.9375 45.480469 276.183594 C 45.800781 276.433594 45.964844 276.742188 45.964844 277.113281 C 45.964844 277.859375 45.523438 278.375 44.644531 278.660156 Z M 39.066406 267.71875 C 38.507812 267.507812 38.113281 267.277344 37.878906 267.03125 C 37.640625 266.78125 37.523438 266.472656 37.523438 266.097656 C 37.523438 265.726562 37.628906 265.417969 37.839844 265.167969 C 38.050781 264.921875 38.324219 264.726562 38.65625 264.59375 C 38.945312 264.476562 39.269531 264.386719 39.628906 264.324219 L 39.628906 267.910156 C 39.425781 267.847656 39.238281 267.78125 39.066406 267.71875 Z M 52.339844 273.894531 C 52.007812 273.039062 51.496094 272.296875 50.816406 271.664062 C 50.132812 271.03125 49.285156 270.503906 48.269531 270.082031 C 47.253906 269.660156 46.0625 269.3125 44.699219 269.039062 C 44.132812 268.925781 43.605469 268.816406 43.113281 268.71875 L 43.113281 264.511719 C 43.425781 264.621094 43.695312 264.75 43.917969 264.890625 C 44.214844 265.074219 44.445312 265.257812 44.605469 265.429688 C 44.769531 265.605469 44.886719 265.726562 44.960938 265.800781 C 45.183594 266 45.398438 266.148438 45.609375 266.246094 C 45.820312 266.347656 46.101562 266.398438 46.449219 266.398438 L 51.320312 266.398438 C 51.515625 266.398438 51.695312 266.316406 51.855469 266.15625 C 52.019531 265.992188 52.097656 265.800781 52.097656 265.578125 C 52.074219 264.785156 51.789062 263.953125 51.242188 263.085938 C 50.699219 262.214844 49.941406 261.421875 48.976562 260.703125 C 48.007812 259.984375 46.863281 259.394531 45.535156 258.9375 C 44.773438 258.671875 43.964844 258.484375 43.113281 258.375 L 43.113281 255.941406 L 39.628906 255.941406 L 39.628906 258.320312 C 38.617188 258.417969 37.671875 258.605469 36.800781 258.898438 C 35.496094 259.332031 34.386719 259.921875 33.472656 260.667969 C 32.554688 261.410156 31.855469 262.265625 31.371094 263.234375 C 30.886719 264.199219 30.644531 265.21875 30.644531 266.285156 C 30.644531 268.417969 31.234375 270.125 32.410156 271.402344 C 33.589844 272.679688 35.453125 273.589844 38.007812 274.136719 C 38.582031 274.261719 39.121094 274.378906 39.628906 274.484375 L 39.628906 278.875 C 39.578125 278.859375 39.527344 278.84375 39.476562 278.828125 C 38.96875 278.652344 38.546875 278.449219 38.210938 278.210938 C 37.878906 277.976562 37.609375 277.746094 37.414062 277.523438 C 37.214844 277.300781 37.066406 277.140625 36.964844 277.039062 C 36.769531 276.867188 36.570312 276.734375 36.371094 276.648438 C 36.171875 276.5625 35.898438 276.519531 35.554688 276.519531 L 30.683594 276.519531 C 30.484375 276.519531 30.304688 276.601562 30.144531 276.761719 C 29.980469 276.921875 29.902344 277.113281 29.902344 277.335938 C 29.925781 278.28125 30.222656 279.210938 30.792969 280.128906 C 31.363281 281.046875 32.152344 281.871094 33.15625 282.605469 C 34.160156 283.335938 35.355469 283.925781 36.742188 284.371094 C 37.640625 284.660156 38.605469 284.855469 39.628906 284.957031 L 39.628906 288.359375 L 43.113281 288.359375 L 43.113281 284.964844 C 44.109375 284.878906 45.054688 284.71875 45.945312 284.484375 C 47.347656 284.109375 48.558594 283.570312 49.589844 282.863281 C 50.617188 282.15625 51.417969 281.304688 51.988281 280.3125 C 52.558594 279.320312 52.84375 278.195312 52.84375 276.929688 C 52.84375 275.761719 52.675781 274.75 52.339844 273.894531 " fill-opacity="1" fill-rule="nonzero"/><g clip-path="url(#8c74917fe8)"><path fill="#fff597" d="M 41.371094 294.71875 C 28.921875 294.71875 18.824219 284.613281 18.824219 272.152344 C 18.824219 259.6875 28.921875 249.582031 41.371094 249.582031 C 53.824219 249.582031 63.917969 259.6875 63.917969 272.152344 C 63.917969 284.613281 53.824219 294.71875 41.371094 294.71875 Z M 41.371094 243.957031 C 25.8125 243.957031 13.203125 256.578125 13.203125 272.152344 C 13.203125 287.722656 25.8125 300.34375 41.371094 300.34375 C 56.929688 300.34375 69.542969 287.722656 69.542969 272.152344 C 69.542969 256.578125 56.929688 243.957031 41.371094 243.957031 " fill-opacity="1" fill-rule="nonzero"/></g><g clip-path="url(#eeed8c8779)"><path fill="#dba02a" d="M 206.992188 326.351562 L 168.15625 326.351562 C 166.1875 326.351562 164.59375 324.753906 164.59375 322.785156 L 164.59375 321.25 C 164.59375 319.28125 166.1875 317.683594 168.15625 317.683594 L 206.992188 317.683594 C 208.960938 317.683594 210.554688 319.28125 210.554688 321.25 L 210.554688 322.785156 C 210.554688 324.753906 208.960938 326.351562 206.992188 326.351562 " fill-opacity="1" fill-rule="nonzero"/></g><path fill="#dba02a" d="M 206.992188 291.675781 L 168.15625 291.675781 C 166.1875 291.675781 164.59375 290.078125 164.59375 288.105469 L 164.59375 286.574219 C 164.59375 284.605469 166.1875 283.007812 168.15625 283.007812 L 206.992188 283.007812 C 208.960938 283.007812 210.554688 284.605469 210.554688 286.574219 L 210.554688 288.105469 C 210.554688 290.078125 208.960938 291.675781 206.992188 291.675781 " fill-opacity="1" fill-rule="nonzero"/><path fill="#ffbe31" d="M 206.992188 300.34375 L 168.15625 300.34375 C 166.1875 300.34375 164.59375 298.746094 164.59375 296.777344 L 164.59375 295.242188 C 164.59375 293.273438 166.1875 291.675781 168.15625 291.675781 L 206.992188 291.675781 C 208.960938 291.675781 210.554688 293.273438 210.554688 295.242188 L 210.554688 296.777344 C 210.554688 298.746094 208.960938 300.34375 206.992188 300.34375 " fill-opacity="1" fill-rule="nonzero"/><path fill="#dba02a" d="M 206.992188 309.015625 L 168.15625 309.015625 C 166.1875 309.015625 164.59375 307.417969 164.59375 305.445312 L 164.59375 303.914062 C 164.59375 301.941406 166.1875 300.34375 168.15625 300.34375 L 206.992188 300.34375 C 208.960938 300.34375 210.554688 301.941406 210.554688 303.914062 L 210.554688 305.445312 C 210.554688 307.417969 208.960938 309.015625 206.992188 309.015625 " fill-opacity="1" fill-rule="nonzero"/><path fill="#ffbe31" d="M 206.992188 317.683594 L 168.15625 317.683594 C 166.1875 317.683594 164.59375 316.085938 164.59375 314.113281 L 164.59375 312.582031 C 164.59375 310.609375 166.1875 309.015625 168.15625 309.015625 L 206.992188 309.015625 C 208.960938 309.015625 210.554688 310.609375 210.554688 312.582031 L 210.554688 314.113281 C 210.554688 316.085938 208.960938 317.683594 206.992188 317.683594 " fill-opacity="1" fill-rule="nonzero"/><path fill="#ffbe31" d="M 210.121094 254.8125 C 210.121094 267.273438 200.027344 277.378906 187.574219 277.378906 C 175.121094 277.378906 165.027344 267.273438 165.027344 254.8125 C 165.027344 242.347656 175.121094 232.246094 187.574219 232.246094 C 200.027344 232.246094 210.121094 242.347656 210.121094 254.8125 " fill-opacity="1" fill-rule="nonzero"/><path fill="#dba02a" d="M 187.574219 235.464844 C 199.402344 235.464844 209.101562 244.578125 210.042969 256.171875 C 210.09375 255.5625 210.121094 254.941406 210.121094 254.316406 C 210.121094 241.851562 200.027344 231.75 187.574219 231.75 C 175.121094 231.75 165.027344 241.851562 165.027344 254.316406 C 165.027344 254.941406 165.054688 255.5625 165.105469 256.171875 C 166.046875 244.578125 175.746094 235.464844 187.574219 235.464844 " fill-opacity="1" fill-rule="nonzero"/><path fill="#dba02a" d="M 190.84375 261.320312 C 190.394531 261.464844 189.882812 261.574219 189.316406 261.648438 L 189.316406 257.894531 C 189.652344 257.980469 189.960938 258.066406 190.234375 258.15625 C 190.878906 258.367188 191.359375 258.597656 191.683594 258.847656 C 192.003906 259.09375 192.167969 259.402344 192.167969 259.777344 C 192.167969 260.519531 191.726562 261.035156 190.84375 261.320312 Z M 185.269531 250.378906 C 184.710938 250.167969 184.3125 249.9375 184.078125 249.691406 C 183.84375 249.441406 183.726562 249.132812 183.726562 248.761719 C 183.726562 248.390625 183.832031 248.078125 184.042969 247.832031 C 184.253906 247.582031 184.523438 247.390625 184.859375 247.253906 C 185.148438 247.136719 185.472656 247.050781 185.832031 246.988281 L 185.832031 250.570312 C 185.628906 250.507812 185.4375 250.445312 185.269531 250.378906 Z M 198.542969 256.554688 C 198.207031 255.699219 197.699219 254.957031 197.019531 254.324219 C 196.335938 253.691406 195.488281 253.164062 194.472656 252.742188 C 193.453125 252.320312 192.265625 251.972656 190.902344 251.699219 C 190.335938 251.585938 189.808594 251.480469 189.316406 251.378906 L 189.316406 247.171875 C 189.628906 247.28125 189.894531 247.410156 190.121094 247.550781 C 190.417969 247.738281 190.648438 247.917969 190.808594 248.089844 C 190.96875 248.265625 191.089844 248.390625 191.164062 248.464844 C 191.382812 248.664062 191.601562 248.808594 191.8125 248.910156 C 192.023438 249.007812 192.300781 249.058594 192.648438 249.058594 L 197.519531 249.058594 C 197.71875 249.058594 197.898438 248.976562 198.058594 248.816406 C 198.21875 248.65625 198.300781 248.464844 198.300781 248.238281 C 198.277344 247.445312 197.988281 246.617188 197.445312 245.746094 C 196.902344 244.878906 196.144531 244.085938 195.175781 243.367188 C 194.210938 242.644531 193.0625 242.058594 191.738281 241.597656 C 190.976562 241.332031 190.167969 241.148438 189.316406 241.035156 L 189.316406 238.605469 L 185.832031 238.605469 L 185.832031 240.980469 C 184.820312 241.078125 183.875 241.269531 183 241.558594 C 181.699219 241.992188 180.589844 242.582031 179.671875 243.328125 C 178.753906 244.074219 178.054688 244.925781 177.574219 245.894531 C 177.089844 246.863281 176.847656 247.878906 176.847656 248.945312 C 176.847656 251.082031 177.4375 252.785156 178.613281 254.0625 C 179.792969 255.339844 181.65625 256.253906 184.207031 256.800781 C 184.78125 256.925781 185.320312 257.039062 185.832031 257.148438 L 185.832031 261.535156 C 185.777344 261.519531 185.726562 261.503906 185.679688 261.488281 C 185.171875 261.316406 184.746094 261.109375 184.414062 260.871094 C 184.078125 260.636719 183.8125 260.410156 183.613281 260.183594 C 183.414062 259.960938 183.269531 259.800781 183.167969 259.699219 C 182.96875 259.527344 182.769531 259.398438 182.574219 259.3125 C 182.375 259.222656 182.101562 259.179688 181.757812 259.179688 L 176.882812 259.179688 C 176.6875 259.179688 176.507812 259.261719 176.34375 259.421875 C 176.183594 259.585938 176.105469 259.777344 176.105469 260 C 176.128906 260.941406 176.425781 261.871094 176.996094 262.789062 C 177.566406 263.707031 178.351562 264.535156 179.359375 265.265625 C 180.359375 265.996094 181.558594 266.585938 182.945312 267.035156 C 183.84375 267.320312 184.808594 267.515625 185.832031 267.617188 L 185.832031 271.019531 L 189.316406 271.019531 L 189.316406 267.628906 C 190.3125 267.542969 191.257812 267.378906 192.148438 267.144531 C 193.546875 266.773438 194.761719 266.230469 195.789062 265.523438 C 196.820312 264.816406 197.617188 263.96875 198.1875 262.976562 C 198.757812 261.984375 199.042969 260.855469 199.042969 259.589844 C 199.042969 258.425781 198.878906 257.414062 198.542969 256.554688 " fill-opacity="1" fill-rule="nonzero"/><path fill="#fff597" d="M 187.574219 277.378906 C 175.121094 277.378906 165.027344 267.273438 165.027344 254.8125 C 165.027344 242.347656 175.121094 232.246094 187.574219 232.246094 C 200.027344 232.246094 210.121094 242.347656 210.121094 254.8125 C 210.121094 267.273438 200.027344 277.378906 187.574219 277.378906 Z M 187.574219 226.617188 C 172.015625 226.617188 159.402344 239.242188 159.402344 254.8125 C 159.402344 270.382812 172.015625 283.007812 187.574219 283.007812 C 203.132812 283.007812 215.746094 270.382812 215.746094 254.8125 C 215.746094 239.242188 203.132812 226.617188 187.574219 226.617188 " fill-opacity="1" fill-rule="nonzero"/><g clip-path="url(#3612a41613)"><path fill="#dba02a" d="M 353.191406 326.351562 L 314.359375 326.351562 C 312.390625 326.351562 310.792969 324.753906 310.792969 322.785156 L 310.792969 321.25 C 310.792969 319.28125 312.390625 317.683594 314.359375 317.683594 L 353.191406 317.683594 C 355.160156 317.683594 356.757812 319.28125 356.757812 321.25 L 356.757812 322.785156 C 356.757812 324.753906 355.160156 326.351562 353.191406 326.351562 " fill-opacity="1" fill-rule="nonzero"/></g><path fill="#dba02a" d="M 353.191406 291.675781 L 314.359375 291.675781 C 312.390625 291.675781 310.792969 290.078125 310.792969 288.105469 L 310.792969 286.574219 C 310.792969 284.605469 312.390625 283.007812 314.359375 283.007812 L 353.191406 283.007812 C 355.160156 283.007812 356.757812 284.605469 356.757812 286.574219 L 356.757812 288.105469 C 356.757812 290.078125 355.160156 291.675781 353.191406 291.675781 " fill-opacity="1" fill-rule="nonzero"/><path fill="#ffbe31" d="M 353.191406 300.347656 L 314.359375 300.347656 C 312.390625 300.347656 310.792969 298.746094 310.792969 296.777344 L 310.792969 295.242188 C 310.792969 293.273438 312.390625 291.675781 314.359375 291.675781 L 353.191406 291.675781 C 355.160156 291.675781 356.757812 293.273438 356.757812 295.242188 L 356.757812 296.777344 C 356.757812 298.746094 355.160156 300.347656 353.191406 300.347656 " fill-opacity="1" fill-rule="nonzero"/><path fill="#dba02a" d="M 353.191406 274.335938 L 314.359375 274.335938 C 312.390625 274.335938 310.792969 272.742188 310.792969 270.769531 L 310.792969 269.238281 C 310.792969 267.265625 312.390625 265.667969 314.359375 265.667969 L 353.191406 265.667969 C 355.160156 265.667969 356.757812 267.265625 356.757812 269.238281 L 356.757812 270.769531 C 356.757812 272.742188 355.160156 274.335938 353.191406 274.335938 " fill-opacity="1" fill-rule="nonzero"/><path fill="#ffbe31" d="M 353.191406 283.007812 L 314.359375 283.007812 C 312.390625 283.007812 310.792969 281.410156 310.792969 279.4375 L 310.792969 277.90625 C 310.792969 275.933594 312.390625 274.335938 314.359375 274.335938 L 353.191406 274.335938 C 355.160156 274.335938 356.757812 275.933594 356.757812 277.90625 L 356.757812 279.4375 C 356.757812 281.410156 355.160156 283.007812 353.191406 283.007812 " fill-opacity="1" fill-rule="nonzero"/><path fill="#dba02a" d="M 353.191406 309.015625 L 314.359375 309.015625 C 312.390625 309.015625 310.792969 307.417969 310.792969 305.445312 L 310.792969 303.914062 C 310.792969 301.941406 312.390625 300.347656 314.359375 300.347656 L 353.191406 300.347656 C 355.160156 300.347656 356.757812 301.941406 356.757812 303.914062 L 356.757812 305.445312 C 356.757812 307.417969 355.160156 309.015625 353.191406 309.015625 " fill-opacity="1" fill-rule="nonzero"/><path fill="#ffbe31" d="M 353.191406 317.683594 L 314.359375 317.683594 C 312.390625 317.683594 310.792969 316.085938 310.792969 314.113281 L 310.792969 312.582031 C 310.792969 310.609375 312.390625 309.015625 314.359375 309.015625 L 353.191406 309.015625 C 355.160156 309.015625 356.757812 310.609375 356.757812 312.582031 L 356.757812 314.113281 C 356.757812 316.085938 355.160156 317.683594 353.191406 317.683594 " fill-opacity="1" fill-rule="nonzero"/><path fill="#ffbe31" d="M 356.324219 237.472656 C 356.324219 249.9375 346.230469 260.039062 333.777344 260.039062 C 321.324219 260.039062 311.230469 249.9375 311.230469 237.472656 C 311.230469 225.007812 321.324219 214.90625 333.777344 214.90625 C 346.230469 214.90625 356.324219 225.007812 356.324219 237.472656 " fill-opacity="1" fill-rule="nonzero"/><path fill="#dba02a" d="M 333.777344 218.125 C 345.605469 218.125 355.300781 227.238281 356.246094 238.832031 C 356.296875 238.222656 356.324219 237.601562 356.324219 236.976562 C 356.324219 224.515625 346.230469 214.410156 333.777344 214.410156 C 321.324219 214.410156 311.230469 224.515625 311.230469 236.976562 C 311.230469 237.601562 311.257812 238.222656 311.304688 238.832031 C 312.25 227.238281 321.949219 218.125 333.777344 218.125 " fill-opacity="1" fill-rule="nonzero"/><path fill="#dba02a" d="M 337.050781 243.980469 C 336.597656 244.128906 336.085938 244.238281 335.519531 244.308594 L 335.519531 240.554688 C 335.855469 240.640625 336.164062 240.730469 336.433594 240.816406 C 337.078125 241.03125 337.5625 241.261719 337.886719 241.507812 C 338.207031 241.753906 338.367188 242.066406 338.367188 242.4375 C 338.367188 243.183594 337.929688 243.695312 337.050781 243.980469 Z M 331.472656 233.039062 C 330.914062 232.832031 330.515625 232.601562 330.28125 232.351562 C 330.046875 232.105469 329.929688 231.792969 329.929688 231.421875 C 329.929688 231.050781 330.035156 230.742188 330.246094 230.492188 C 330.457031 230.246094 330.726562 230.050781 331.0625 229.914062 C 331.347656 229.796875 331.675781 229.710938 332.03125 229.648438 L 332.03125 233.230469 C 331.828125 233.167969 331.640625 233.105469 331.472656 233.039062 Z M 344.746094 239.21875 C 344.410156 238.363281 343.902344 237.617188 343.222656 236.984375 C 342.539062 236.351562 341.691406 235.824219 340.675781 235.40625 C 339.65625 234.980469 338.464844 234.636719 337.105469 234.363281 C 336.539062 234.246094 336.011719 234.140625 335.519531 234.042969 L 335.519531 229.832031 C 335.832031 229.945312 336.097656 230.070312 336.324219 230.214844 C 336.621094 230.398438 336.851562 230.578125 337.011719 230.753906 C 337.171875 230.925781 337.289062 231.050781 337.367188 231.125 C 337.589844 231.324219 337.804688 231.472656 338.015625 231.570312 C 338.226562 231.667969 338.503906 231.71875 338.851562 231.71875 L 343.722656 231.71875 C 343.921875 231.71875 344.101562 231.640625 344.261719 231.480469 C 344.421875 231.316406 344.503906 231.125 344.503906 230.902344 C 344.476562 230.109375 344.191406 229.277344 343.648438 228.410156 C 343.105469 227.539062 342.347656 226.746094 341.382812 226.023438 C 340.414062 225.304688 339.269531 224.71875 337.941406 224.257812 C 337.175781 223.996094 336.371094 223.808594 335.519531 223.695312 L 335.519531 221.265625 L 332.03125 221.265625 L 332.03125 223.644531 C 331.019531 223.738281 330.078125 223.929688 329.203125 224.222656 C 327.902344 224.65625 326.792969 225.246094 325.875 225.988281 C 324.960938 226.730469 324.257812 227.589844 323.777344 228.558594 C 323.292969 229.523438 323.050781 230.542969 323.050781 231.609375 C 323.050781 233.742188 323.636719 235.445312 324.816406 236.726562 C 325.992188 238.003906 327.859375 238.914062 330.414062 239.460938 C 330.984375 239.585938 331.523438 239.699219 332.03125 239.808594 L 332.03125 244.195312 C 331.980469 244.183594 331.929688 244.167969 331.878906 244.148438 C 331.371094 243.976562 330.949219 243.773438 330.617188 243.535156 C 330.28125 243.300781 330.015625 243.070312 329.816406 242.847656 C 329.617188 242.625 329.46875 242.460938 329.371094 242.363281 C 329.171875 242.1875 328.976562 242.058594 328.777344 241.972656 C 328.578125 241.886719 328.304688 241.84375 327.957031 241.84375 L 323.089844 241.84375 C 322.890625 241.84375 322.710938 241.921875 322.546875 242.082031 C 322.386719 242.246094 322.304688 242.4375 322.304688 242.660156 C 322.332031 243.605469 322.628906 244.535156 323.199219 245.453125 C 323.769531 246.367188 324.558594 247.195312 325.5625 247.925781 C 326.566406 248.660156 327.757812 249.246094 329.148438 249.695312 C 330.046875 249.984375 331.011719 250.179688 332.03125 250.277344 L 332.03125 253.679688 L 335.519531 253.679688 L 335.519531 250.289062 C 336.515625 250.203125 337.460938 250.042969 338.351562 249.804688 C 339.75 249.433594 340.964844 248.894531 341.996094 248.1875 C 343.023438 247.480469 343.820312 246.628906 344.394531 245.636719 C 344.960938 244.644531 345.246094 243.515625 345.246094 242.25 C 345.246094 241.085938 345.082031 240.074219 344.746094 239.21875 " fill-opacity="1" fill-rule="nonzero"/><g clip-path="url(#af6d4f370f)"><path fill="#fff597" d="M 333.773438 260.039062 C 321.320312 260.039062 311.226562 249.9375 311.226562 237.472656 C 311.226562 225.011719 321.320312 214.90625 333.773438 214.90625 C 346.226562 214.90625 356.324219 225.011719 356.324219 237.472656 C 356.324219 249.9375 346.226562 260.039062 333.773438 260.039062 Z M 333.773438 209.28125 C 318.21875 209.28125 305.605469 221.902344 305.605469 237.472656 C 305.605469 253.046875 318.21875 265.667969 333.773438 265.667969 C 349.332031 265.667969 361.945312 253.046875 361.945312 237.472656 C 361.945312 221.902344 349.332031 209.28125 333.773438 209.28125 " fill-opacity="1" fill-rule="nonzero"/></g></svg>