<svg xmlns="http://www.w3.org/2000/svg" xmlns:xlink="http://www.w3.org/1999/xlink" width="500" zoomAndPan="magnify" viewBox="0 0 375 374.999991" height="500" preserveAspectRatio="xMidYMid meet" version="1.0"><path fill="#db3f4b" d="M 173.730469 92.390625 C 197.109375 74.039062 256.25 48.277344 300.328125 47.421875 C 261.3125 24.1875 186.792969 8.425781 128.640625 34.746094 C 157.792969 40.164062 173.257812 62.691406 173.730469 92.390625 " fill-opacity="1" fill-rule="nonzero"/><path fill="#db3f4b" d="M 182.375 101.214844 C 215.792969 76.824219 279.78125 54.660156 316.050781 60.785156 C 316.050781 71.191406 322.25 106.289062 291.082031 168.347656 C 284.390625 181.667969 277.097656 192.394531 275.53125 194.238281 C 268.796875 151.410156 225.125 107.9375 182.375 101.214844 " fill-opacity="1" fill-rule="nonzero"/><path fill="#db3f4b" d="M 284.371094 202.84375 C 317.144531 203.378906 337.203125 221.433594 342.113281 247.878906 C 368.046875 190.769531 353.332031 116.503906 329.4375 76.480469 C 328.644531 118.214844 306.164062 173.335938 284.371094 202.84375 " fill-opacity="1" fill-rule="nonzero"/><path fill="#db3f4b" d="M 352.152344 20.332031 L 314.679688 44.144531 L 332.71875 62.15625 L 356.570312 24.742188 C 358.394531 21.875 355.027344 18.511719 352.152344 20.332031 " fill-opacity="1" fill-rule="nonzero"/><path fill="#fbd862" d="M 204.960938 184.386719 C 218.945312 184.386719 230.273438 173.078125 230.273438 159.117188 C 230.273438 145.15625 218.945312 133.847656 204.960938 133.847656 C 190.976562 133.847656 179.648438 145.15625 179.648438 159.117188 C 179.648438 173.078125 190.976562 184.386719 204.960938 184.386719 " fill-opacity="1" fill-rule="nonzero"/><path fill="#fbd862" d="M 268.667969 257.042969 L 254.253906 210.53125 C 251.292969 200.960938 242.414062 194.429688 232.375 194.429688 L 177.527344 194.429688 C 167.488281 194.429688 158.628906 200.960938 155.644531 210.53125 L 151.355469 224.429688 C 163.625 230.019531 167.078125 245.714844 158.414062 255.910156 C 158.414062 265.503906 158.414062 260.707031 158.414062 262.183594 L 158.949219 262.183594 L 176.859375 226.015625 L 169.761719 266.296875 C 173.128906 269.507812 172.507812 269.292969 184.5625 303.257812 C 188.808594 315.226562 171.046875 321.992188 166.179688 310.300781 L 164.613281 306.46875 C 164.613281 310.730469 164.613281 313.792969 164.613281 317.96875 L 177.527344 317.96875 L 177.527344 358.761719 C 177.527344 364.566406 181.964844 369.617188 187.757812 369.875 C 193.761719 370.152344 198.78125 365.484375 198.953125 359.53125 L 200.304688 317.96875 L 209.617188 317.96875 L 210.945312 359.53125 C 211.136719 365.316406 215.878906 369.898438 221.671875 369.898438 C 227.570312 369.898438 232.375 365.101562 232.375 359.191406 L 232.375 317.96875 L 249.234375 317.96875 L 233.039062 226.015625 L 251.765625 263.789062 C 256.71875 273.789062 271.972656 267.6875 268.667969 257.042969 " fill-opacity="1" fill-rule="nonzero"/><path fill="#fbd862" d="M 177.570312 312.25 C 180.507812 311.117188 182.222656 307.6875 181.085938 304.5 C 167.421875 265.953125 170.039062 265.867188 154.722656 265.867188 L 154.722656 261.839844 C 147.96875 267.816406 137.84375 267.75 131.148438 261.839844 L 131.148438 265.867188 C 115.210938 265.867188 118 267.257812 104.789062 304.5 C 103.671875 307.625 105.257812 311.03125 108.285156 312.25 C 111.414062 313.492188 114.976562 311.992188 116.261719 308.886719 L 124.949219 287.945312 C 124.949219 344.648438 124.949219 262.097656 124.949219 363.707031 C 124.949219 367.132812 127.71875 369.898438 131.148438 369.898438 C 134.410156 369.898438 137.113281 367.371094 137.328125 364.136719 L 140.632812 316.492188 L 145.242188 316.492188 L 148.523438 364.136719 C 148.761719 367.371094 151.464844 369.898438 154.722656 369.898438 C 158.132812 369.898438 160.921875 367.132812 160.921875 363.707031 C 160.921875 336.683594 160.921875 315.3125 160.921875 287.945312 C 165.578125 299.1875 162.1875 290.984375 169.609375 308.886719 C 170.898438 311.992188 174.4375 313.492188 177.570312 312.25 " fill-opacity="1" fill-rule="nonzero"/><path fill="#fbd862" d="M 80.914062 183.871094 C 94.75 183.871094 105.96875 172.671875 105.96875 158.859375 C 105.96875 145.046875 94.75 133.847656 80.914062 133.847656 C 67.078125 133.847656 55.859375 145.046875 55.859375 158.859375 C 55.859375 172.671875 67.078125 183.871094 80.914062 183.871094 " fill-opacity="1" fill-rule="nonzero"/><path fill="#fbd862" d="M 101.3125 303.257812 L 108.046875 284.261719 C 108.046875 255.074219 108.046875 227.429688 108.046875 221.304688 L 123.171875 262.527344 C 124.90625 262.164062 125.832031 262.183594 127.460938 262.183594 C 127.460938 260.707031 127.460938 265.503906 127.460938 255.910156 C 120.597656 247.835938 121.152344 235.910156 128.640625 228.476562 L 122.871094 208.132812 C 120.402344 199.441406 112.445312 193.445312 103.394531 193.445312 L 58.410156 193.445312 C 49.382812 193.445312 41.421875 199.441406 38.957031 208.132812 L 24.003906 260.8125 C 21.410156 269.550781 34.386719 274.113281 37.710938 265.054688 L 53.757812 221.304688 C 53.757812 226.464844 53.757812 357.796875 53.757812 360.195312 C 53.757812 372.722656 71.667969 373.046875 72.417969 361.179688 L 77.074219 289.316406 L 84.753906 289.316406 L 89.363281 360.859375 C 90.179688 373.28125 108.046875 372.445312 108.046875 360.582031 C 108.046875 355.828125 108.046875 337.734375 108.046875 316.019531 C 107.683594 315.933594 107.296875 315.804688 106.933594 315.65625 C 102 313.683594 99.53125 308.246094 101.3125 303.257812 " fill-opacity="1" fill-rule="nonzero"/><path fill="#fbd862" d="M 140.84375 259.273438 C 151.011719 260.535156 159.527344 252.589844 159.527344 242.847656 C 159.527344 233.53125 151.890625 226.273438 142.925781 226.273438 C 133.722656 226.273438 126.324219 233.765625 126.324219 242.847656 C 126.324219 251.304688 132.714844 258.242188 140.84375 259.273438 " fill-opacity="1" fill-rule="nonzero"/></svg>