<svg xmlns="http://www.w3.org/2000/svg" xmlns:xlink="http://www.w3.org/1999/xlink" width="500" zoomAndPan="magnify" viewBox="0 0 375 374.999991" height="500" preserveAspectRatio="xMidYMid meet" version="1.0"><defs><clipPath id="5892602f00"><path d="M 62.640625 21.476562 L 304 21.476562 L 304 339 L 62.640625 339 Z M 62.640625 21.476562 " clip-rule="nonzero"/></clipPath><clipPath id="e2fa8fd9ea"><path d="M 249 294 L 352.890625 294 L 352.890625 325 L 249 325 Z M 249 294 " clip-rule="nonzero"/></clipPath><clipPath id="0dcbe346fc"><path d="M 249 324 L 352.890625 324 L 352.890625 353.726562 L 249 353.726562 Z M 249 324 " clip-rule="nonzero"/></clipPath></defs><g clip-path="url(#5892602f00)"><path fill="#f8333c" d="M 74.648438 338.878906 C 68.019531 338.878906 62.648438 333.496094 62.648438 326.859375 L 62.648438 33.515625 C 62.648438 26.875 68.019531 21.496094 74.648438 21.496094 L 291.269531 21.496094 C 297.898438 21.496094 303.273438 26.875 303.273438 33.515625 L 303.273438 325.671875 C 303.273438 332.964844 297.371094 338.875 290.089844 338.875 L 74.648438 338.875 Z M 74.648438 338.878906 " fill-opacity="1" fill-rule="evenodd"/></g><path fill="#fbf5fc" d="M 123.179688 92.742188 L 97.667969 92.742188 L 97.667969 57.949219 C 97.667969 55.484375 95.671875 53.488281 93.210938 53.488281 C 90.75 53.488281 88.757812 55.488281 88.757812 57.949219 L 88.757812 97.207031 C 88.757812 99.671875 90.753906 101.667969 93.210938 101.667969 L 123.179688 101.667969 C 125.640625 101.667969 127.632812 99.671875 127.632812 97.207031 C 127.632812 94.738281 125.636719 92.742188 123.179688 92.742188 Z M 123.179688 92.742188 " fill-opacity="1" fill-rule="evenodd"/><path fill="#fbf5fc" d="M 208.289062 56.183594 C 207.582031 54.546875 205.972656 53.488281 204.195312 53.488281 C 202.414062 53.488281 200.808594 54.546875 200.101562 56.183594 L 183.203125 95.4375 C 182.230469 97.703125 183.269531 100.328125 185.53125 101.304688 C 187.789062 102.28125 190.410156 101.238281 191.386719 98.972656 L 194.65625 91.375 L 213.734375 91.375 L 217.003906 98.972656 C 217.730469 100.660156 219.371094 101.671875 221.097656 101.671875 C 221.683594 101.671875 222.285156 101.554688 222.859375 101.304688 C 225.117188 100.328125 226.160156 97.703125 225.1875 95.4375 Z M 198.5 82.449219 L 204.195312 69.222656 L 209.890625 82.449219 Z M 198.5 82.449219 " fill-opacity="1" fill-rule="evenodd"/><path fill="#fbf5fc" d="M 154.96875 53.488281 C 143.195312 53.488281 133.613281 63.085938 133.613281 74.878906 L 133.613281 80.277344 C 133.613281 92.074219 143.195312 101.667969 154.96875 101.667969 C 166.746094 101.667969 176.328125 92.074219 176.328125 80.277344 L 176.328125 74.878906 C 176.324219 63.085938 166.746094 53.488281 154.96875 53.488281 Z M 167.414062 80.277344 C 167.414062 87.152344 161.832031 92.742188 154.96875 92.742188 C 148.105469 92.742188 142.523438 87.152344 142.523438 80.277344 L 142.523438 74.878906 C 142.523438 68.003906 148.105469 62.414062 154.96875 62.414062 C 161.832031 62.414062 167.414062 68.003906 167.414062 74.878906 Z M 167.414062 80.277344 " fill-opacity="1" fill-rule="evenodd"/><path fill="#fbf5fc" d="M 272.707031 53.488281 C 270.246094 53.488281 268.25 55.488281 268.25 57.949219 L 268.25 85.195312 L 242.28125 55.035156 C 241.0625 53.625 239.097656 53.117188 237.351562 53.769531 C 235.605469 54.417969 234.449219 56.085938 234.449219 57.953125 L 234.449219 97.207031 C 234.449219 99.671875 236.445312 101.667969 238.90625 101.667969 C 241.367188 101.667969 243.359375 99.671875 243.359375 97.207031 L 243.359375 69.960938 L 269.332031 100.121094 C 270.191406 101.125 271.433594 101.667969 272.703125 101.667969 C 273.222656 101.667969 273.75 101.578125 274.257812 101.390625 C 276.003906 100.738281 277.160156 99.070312 277.160156 97.207031 L 277.160156 57.953125 C 277.164062 55.488281 275.167969 53.488281 272.707031 53.488281 Z M 272.707031 53.488281 " fill-opacity="1" fill-rule="evenodd"/><path fill="#ffe563" d="M 110.929688 300.558594 C 108.125 300.558594 105.375 299.597656 103.074219 297.730469 C 99.507812 294.839844 95.703125 288.953125 97.828125 277.320312 C 97.867188 277.105469 97.910156 276.890625 97.953125 276.675781 C 97.199219 276.792969 95.179688 276.835938 93.167969 276.847656 C 90.507812 276.859375 88.429688 274.546875 88.722656 271.894531 C 88.972656 269.640625 90.875 267.929688 93.140625 267.929688 C 94.539062 267.925781 95.761719 267.921875 95.726562 267.921875 C 95.859375 267.929688 98.953125 268.050781 102.195312 264.558594 C 103.683594 262.949219 106.117188 262.664062 107.9375 263.882812 C 109.757812 265.101562 110.421875 267.464844 109.507812 269.457031 C 107.613281 273.625 103.382812 286.496094 108.683594 290.792969 C 110.207031 292.027344 111.78125 291.578125 112.390625 291.328125 C 113.707031 290.78125 114.582031 289.609375 114.734375 288.1875 C 114.738281 288.128906 114.746094 288.066406 114.75 288.007812 C 114.957031 285.75 116.804688 283.917969 119.070312 283.863281 C 121.324219 283.816406 123.242188 285.363281 123.570312 287.589844 C 123.625 287.796875 123.921875 288.839844 124.726562 289.648438 C 125.8125 290.742188 127.628906 291.042969 130.121094 290.53125 C 133.125 289.921875 134.097656 288.925781 135.039062 287.96875 C 136.058594 286.921875 137.960938 284.976562 141.171875 285.421875 C 143.324219 285.71875 145.375 287.039062 148.164062 289.222656 C 150.074219 290.714844 150.53125 293.476562 149.105469 295.4375 C 147.609375 297.480469 144.734375 297.871094 142.757812 296.320312 C 141.878906 295.628906 141.238281 295.164062 140.769531 294.847656 C 139.308594 296.261719 136.789062 298.28125 131.902344 299.277344 C 127.308594 300.214844 123.382812 299.601562 120.226562 297.457031 C 120.039062 297.328125 119.855469 297.195312 119.679688 297.058594 C 118.566406 298.113281 117.257812 298.972656 115.796875 299.578125 C 114.203125 300.234375 112.558594 300.558594 110.929688 300.558594 Z M 123.5625 287.550781 Z M 123.5625 287.550781 " fill-opacity="1" fill-rule="evenodd"/><path fill="#fbf5fc" d="M 198.847656 285.957031 L 191.726562 285.957031 C 189.265625 285.957031 187.269531 283.957031 187.269531 281.492188 C 187.269531 279.027344 189.265625 277.03125 191.726562 277.03125 L 198.847656 277.03125 C 201.308594 277.03125 203.304688 279.027344 203.304688 281.492188 C 203.304688 283.957031 201.308594 285.957031 198.847656 285.957031 Z M 198.847656 285.957031 " fill-opacity="1" fill-rule="evenodd"/><path fill="#fbf5fc" d="M 238.914062 285.957031 L 217.175781 285.957031 C 214.714844 285.957031 212.71875 283.957031 212.71875 281.492188 C 212.71875 279.027344 214.714844 277.03125 217.175781 277.03125 L 238.914062 277.03125 C 241.371094 277.03125 243.367188 279.027344 243.367188 281.492188 C 243.367188 283.957031 241.375 285.957031 238.914062 285.957031 Z M 238.914062 285.957031 " fill-opacity="1" fill-rule="evenodd"/><path fill="#c4121f" d="M 273.050781 133.886719 L 92.863281 133.886719 C 90.402344 133.886719 88.410156 131.886719 88.410156 129.421875 C 88.410156 126.957031 90.402344 124.957031 92.863281 124.957031 L 273.054688 124.957031 C 275.515625 124.957031 277.507812 126.957031 277.507812 129.421875 C 277.507812 131.886719 275.511719 133.886719 273.050781 133.886719 Z M 273.050781 133.886719 " fill-opacity="1" fill-rule="evenodd"/><path fill="#c4121f" d="M 273.050781 160.035156 L 92.863281 160.035156 C 90.402344 160.035156 88.410156 158.039062 88.410156 155.574219 C 88.410156 153.105469 90.402344 151.109375 92.863281 151.109375 L 273.054688 151.109375 C 275.515625 151.109375 277.507812 153.105469 277.507812 155.570312 C 277.507812 158.035156 275.511719 160.035156 273.050781 160.035156 Z M 273.050781 160.035156 " fill-opacity="1" fill-rule="evenodd"/><path fill="#c4121f" d="M 273.050781 186.1875 L 92.863281 186.1875 C 90.402344 186.1875 88.410156 184.1875 88.410156 181.722656 C 88.410156 179.261719 90.402344 177.261719 92.863281 177.261719 L 273.054688 177.261719 C 275.515625 177.261719 277.507812 179.257812 277.507812 181.722656 C 277.507812 184.191406 275.511719 186.1875 273.050781 186.1875 Z M 273.050781 186.1875 " fill-opacity="1" fill-rule="evenodd"/><path fill="#c4121f" d="M 230.828125 212.335938 L 135.089844 212.335938 C 132.628906 212.335938 130.636719 210.339844 130.636719 207.875 C 130.636719 205.410156 132.632812 203.410156 135.089844 203.410156 L 230.828125 203.410156 C 233.289062 203.410156 235.285156 205.410156 235.285156 207.875 C 235.285156 210.339844 233.289062 212.335938 230.828125 212.335938 Z M 230.828125 212.335938 " fill-opacity="1" fill-rule="evenodd"/><path fill="#fe9719" d="M 345.449219 252.039062 C 345.449219 253.484375 345.378906 254.925781 345.238281 256.363281 C 345.097656 257.800781 344.886719 259.230469 344.605469 260.644531 C 344.324219 262.0625 343.972656 263.464844 343.554688 264.847656 C 343.132812 266.230469 342.648438 267.589844 342.097656 268.925781 C 341.542969 270.257812 340.929688 271.5625 340.25 272.839844 C 339.566406 274.113281 338.828125 275.351562 338.027344 276.554688 C 337.222656 277.753906 336.367188 278.914062 335.449219 280.03125 C 334.535156 281.148438 333.566406 282.21875 332.546875 283.238281 C 331.527344 284.261719 330.457031 285.230469 329.34375 286.148438 C 328.226562 287.066406 327.070312 287.925781 325.871094 288.726562 C 324.671875 289.53125 323.433594 290.273438 322.164062 290.953125 C 320.890625 291.636719 319.585938 292.253906 318.253906 292.804688 C 316.921875 293.359375 315.5625 293.84375 314.183594 294.265625 C 312.804688 294.683594 311.40625 295.035156 309.988281 295.316406 C 308.574219 295.597656 307.148438 295.808594 305.714844 295.953125 C 304.277344 296.09375 302.835938 296.164062 301.394531 296.164062 C 299.953125 296.164062 298.511719 296.09375 297.078125 295.953125 C 295.640625 295.808594 294.214844 295.597656 292.800781 295.316406 C 291.386719 295.035156 289.988281 294.683594 288.605469 294.265625 C 287.226562 293.84375 285.867188 293.359375 284.535156 292.804688 C 283.203125 292.253906 281.898438 291.636719 280.628906 290.953125 C 279.355469 290.273438 278.117188 289.53125 276.917969 288.726562 C 275.71875 287.925781 274.5625 287.066406 273.445312 286.148438 C 272.332031 285.230469 271.261719 284.261719 270.242188 283.238281 C 269.222656 282.21875 268.253906 281.148438 267.339844 280.03125 C 266.425781 278.914062 265.566406 277.753906 264.765625 276.554688 C 263.960938 275.351562 263.222656 274.113281 262.542969 272.839844 C 261.859375 271.5625 261.246094 270.257812 260.691406 268.925781 C 260.140625 267.589844 259.65625 266.230469 259.234375 264.847656 C 258.816406 263.464844 258.46875 262.0625 258.1875 260.644531 C 257.90625 259.230469 257.691406 257.800781 257.550781 256.363281 C 257.410156 254.925781 257.339844 253.484375 257.339844 252.039062 C 257.339844 250.59375 257.410156 249.152344 257.550781 247.710938 C 257.691406 246.273438 257.90625 244.847656 258.1875 243.429688 C 258.46875 242.011719 258.816406 240.613281 259.234375 239.226562 C 259.65625 237.84375 260.140625 236.488281 260.691406 235.152344 C 261.246094 233.816406 261.859375 232.511719 262.542969 231.238281 C 263.222656 229.960938 263.960938 228.722656 264.765625 227.523438 C 265.566406 226.320312 266.425781 225.160156 267.339844 224.042969 C 268.253906 222.925781 269.222656 221.859375 270.242188 220.835938 C 271.261719 219.8125 272.332031 218.84375 273.445312 217.925781 C 274.5625 217.011719 275.71875 216.152344 276.917969 215.347656 C 278.117188 214.546875 279.355469 213.804688 280.628906 213.121094 C 281.898438 212.441406 283.203125 211.824219 284.535156 211.269531 C 285.867188 210.71875 287.226562 210.230469 288.605469 209.8125 C 289.988281 209.390625 291.386719 209.042969 292.800781 208.757812 C 294.214844 208.476562 295.640625 208.265625 297.078125 208.125 C 298.511719 207.980469 299.953125 207.910156 301.394531 207.910156 C 302.835938 207.910156 304.277344 207.980469 305.714844 208.125 C 307.148438 208.265625 308.574219 208.476562 309.988281 208.757812 C 311.40625 209.042969 312.804688 209.390625 314.183594 209.8125 C 315.5625 210.230469 316.921875 210.71875 318.253906 211.269531 C 319.585938 211.824219 320.890625 212.441406 322.164062 213.121094 C 323.433594 213.804688 324.671875 214.546875 325.871094 215.347656 C 327.070312 216.152344 328.226562 217.011719 329.34375 217.925781 C 330.457031 218.84375 331.527344 219.8125 332.546875 220.835938 C 333.566406 221.859375 334.535156 222.925781 335.449219 224.042969 C 336.367188 225.160156 337.222656 226.320312 338.027344 227.523438 C 338.828125 228.722656 339.566406 229.960938 340.25 231.238281 C 340.929688 232.511719 341.542969 233.816406 342.097656 235.152344 C 342.648438 236.488281 343.132812 237.84375 343.554688 239.226562 C 343.972656 240.613281 344.324219 242.011719 344.605469 243.429688 C 344.886719 244.847656 345.097656 246.273438 345.238281 247.710938 C 345.378906 249.152344 345.449219 250.59375 345.449219 252.039062 Z M 345.449219 252.039062 " fill-opacity="1" fill-rule="nonzero"/><path fill="#ffe563" d="M 326.152344 227.234375 C 326.964844 228.046875 327.734375 228.898438 328.460938 229.785156 C 329.1875 230.671875 329.871094 231.59375 330.507812 232.550781 C 331.144531 233.503906 331.734375 234.488281 332.273438 235.503906 C 332.816406 236.515625 333.304688 237.554688 333.746094 238.613281 C 334.183594 239.675781 334.570312 240.757812 334.902344 241.855469 C 335.234375 242.953125 335.515625 244.066406 335.738281 245.195312 C 335.960938 246.320312 336.128906 247.457031 336.242188 248.597656 C 336.355469 249.742188 336.410156 250.886719 336.410156 252.039062 C 336.410156 253.1875 336.355469 254.332031 336.242188 255.476562 C 336.128906 256.617188 335.960938 257.753906 335.738281 258.878906 C 335.515625 260.007812 335.234375 261.121094 334.902344 262.21875 C 334.570312 263.316406 334.183594 264.398438 333.746094 265.460938 C 333.304688 266.519531 332.816406 267.558594 332.277344 268.570312 C 331.734375 269.585938 331.144531 270.570312 330.507812 271.523438 C 329.871094 272.480469 329.191406 273.402344 328.460938 274.289062 C 327.734375 275.175781 326.964844 276.027344 326.152344 276.839844 C 325.34375 277.652344 324.496094 278.421875 323.609375 279.152344 C 322.722656 279.878906 321.800781 280.5625 320.847656 281.203125 C 319.894531 281.839844 318.910156 282.429688 317.898438 282.972656 C 316.886719 283.511719 315.851562 284.003906 314.792969 284.441406 C 313.734375 284.882812 312.65625 285.269531 311.558594 285.601562 C 310.460938 285.9375 309.347656 286.214844 308.222656 286.4375 C 307.097656 286.664062 305.964844 286.832031 304.824219 286.945312 C 303.683594 287.058594 302.539062 287.113281 301.390625 287.113281 C 300.246094 287.113281 299.101562 287.058594 297.960938 286.945312 C 296.816406 286.832031 295.683594 286.664062 294.558594 286.4375 C 293.433594 286.214844 292.324219 285.9375 291.226562 285.601562 C 290.128906 285.269531 289.050781 284.882812 287.992188 284.445312 C 286.929688 284.003906 285.894531 283.511719 284.882812 282.972656 C 283.871094 282.429688 282.890625 281.839844 281.9375 281.203125 C 280.980469 280.5625 280.0625 279.878906 279.175781 279.152344 C 278.289062 278.421875 277.441406 277.652344 276.628906 276.839844 C 275.816406 276.027344 275.050781 275.179688 274.320312 274.289062 C 273.59375 273.402344 272.910156 272.480469 272.273438 271.523438 C 271.636719 270.570312 271.046875 269.585938 270.507812 268.574219 C 269.964844 267.558594 269.476562 266.523438 269.039062 265.460938 C 268.597656 264.398438 268.214844 263.320312 267.878906 262.21875 C 267.546875 261.121094 267.269531 260.007812 267.042969 258.882812 C 266.820312 257.753906 266.652344 256.621094 266.539062 255.476562 C 266.429688 254.332031 266.371094 253.1875 266.371094 252.039062 C 266.371094 250.890625 266.429688 249.742188 266.539062 248.601562 C 266.652344 247.457031 266.820312 246.320312 267.042969 245.195312 C 267.269531 244.070312 267.546875 242.957031 267.878906 241.855469 C 268.210938 240.757812 268.597656 239.675781 269.039062 238.617188 C 269.476562 237.554688 269.964844 236.515625 270.507812 235.503906 C 271.046875 234.492188 271.636719 233.507812 272.273438 232.550781 C 272.910156 231.597656 273.59375 230.675781 274.320312 229.785156 C 275.046875 228.898438 275.816406 228.046875 276.628906 227.234375 C 277.4375 226.421875 278.289062 225.652344 279.175781 224.925781 C 280.0625 224.195312 280.980469 223.511719 281.933594 222.875 C 282.886719 222.234375 283.871094 221.644531 284.882812 221.105469 C 285.894531 220.5625 286.929688 220.070312 287.988281 219.632812 C 289.050781 219.191406 290.128906 218.804688 291.226562 218.472656 C 292.324219 218.140625 293.433594 217.859375 294.558594 217.636719 C 295.683594 217.414062 296.816406 217.242188 297.957031 217.132812 C 299.097656 217.019531 300.242188 216.960938 301.390625 216.960938 C 302.539062 216.960938 303.683594 217.019531 304.824219 217.132812 C 305.964844 217.242188 307.097656 217.410156 308.222656 217.636719 C 309.347656 217.859375 310.457031 218.140625 311.554688 218.472656 C 312.652344 218.804688 313.730469 219.191406 314.792969 219.632812 C 315.851562 220.070312 316.886719 220.5625 317.898438 221.105469 C 318.910156 221.644531 319.894531 222.234375 320.847656 222.875 C 321.800781 223.511719 322.71875 224.195312 323.605469 224.921875 C 324.492188 225.652344 325.34375 226.421875 326.152344 227.234375 Z M 326.152344 227.234375 " fill-opacity="1" fill-rule="nonzero"/><path fill="#fe9f2b" d="M 298.835938 238.644531 L 311.625 238.644531 C 313.300781 238.644531 314.660156 237.28125 314.660156 235.601562 C 314.660156 233.921875 313.300781 232.558594 311.625 232.558594 L 304.429688 232.558594 L 304.429688 229.703125 C 304.429688 228.023438 303.070312 226.664062 301.394531 226.664062 C 299.714844 226.664062 298.355469 228.023438 298.355469 229.703125 L 298.355469 232.574219 C 292.675781 232.824219 288.128906 237.53125 288.128906 243.285156 C 288.128906 249.199219 292.933594 254.011719 298.835938 254.011719 L 302.886719 254.011719 C 306.027344 254.011719 308.585938 256.574219 308.585938 259.722656 C 308.585938 262.871094 306.027344 265.429688 302.886719 265.429688 L 291.164062 265.429688 C 289.488281 265.429688 288.128906 266.792969 288.128906 268.472656 C 288.128906 270.152344 289.488281 271.515625 291.164062 271.515625 L 298.355469 271.515625 L 298.355469 274.371094 C 298.355469 276.050781 299.714844 277.414062 301.394531 277.414062 C 303.070312 277.414062 304.429688 276.050781 304.429688 274.371094 L 304.429688 271.410156 C 310.195312 270.648438 314.660156 265.699219 314.660156 259.722656 C 314.660156 253.21875 309.378906 247.929688 302.886719 247.929688 L 298.835938 247.929688 C 296.28125 247.929688 294.203125 245.847656 294.203125 243.285156 C 294.203125 240.726562 296.28125 238.644531 298.835938 238.644531 Z M 298.835938 238.644531 " fill-opacity="1" fill-rule="evenodd"/><g clip-path="url(#e2fa8fd9ea)"><path fill="#ffe563" d="M 338.1875 324.300781 L 264.601562 324.300781 C 256.472656 324.300781 249.882812 317.699219 249.882812 309.558594 C 249.882812 301.417969 256.472656 294.816406 264.601562 294.816406 L 338.1875 294.816406 C 346.316406 294.816406 352.90625 301.417969 352.90625 309.558594 C 352.90625 317.699219 346.316406 324.300781 338.1875 324.300781 Z M 338.1875 324.300781 " fill-opacity="1" fill-rule="evenodd"/></g><g clip-path="url(#0dcbe346fc)"><path fill="#feb82b" d="M 338.1875 353.78125 L 264.601562 353.78125 C 256.472656 353.78125 249.882812 347.179688 249.882812 339.039062 C 249.882812 330.898438 256.472656 324.300781 264.601562 324.300781 L 338.1875 324.300781 C 346.316406 324.300781 352.90625 330.898438 352.90625 339.039062 C 352.90625 347.179688 346.316406 353.78125 338.1875 353.78125 Z M 338.1875 353.78125 " fill-opacity="1" fill-rule="evenodd"/></g><path fill="#feb82b" d="M 298.394531 312.390625 L 295.519531 312.390625 C 293.957031 312.390625 292.691406 311.121094 292.691406 309.558594 C 292.691406 307.992188 293.957031 306.726562 295.519531 306.726562 L 298.394531 306.726562 C 299.957031 306.726562 301.222656 307.992188 301.222656 309.558594 C 301.222656 311.121094 299.953125 312.390625 298.394531 312.390625 Z M 298.394531 312.390625 " fill-opacity="1" fill-rule="evenodd"/><path fill="#feb82b" d="M 283.480469 312.390625 L 266.589844 312.390625 C 265.027344 312.390625 263.761719 311.121094 263.761719 309.558594 C 263.761719 307.992188 265.027344 306.726562 266.589844 306.726562 L 283.480469 306.726562 C 285.042969 306.726562 286.308594 307.992188 286.308594 309.558594 C 286.308594 311.121094 285.042969 312.390625 283.480469 312.390625 Z M 283.480469 312.390625 " fill-opacity="1" fill-rule="evenodd"/></svg>