<svg xmlns="http://www.w3.org/2000/svg" xmlns:xlink="http://www.w3.org/1999/xlink" width="500" zoomAndPan="magnify" viewBox="0 0 375 374.999991" height="500" preserveAspectRatio="xMidYMid meet" version="1.0"><defs><clipPath id="f81079222d"><path d="M 258 8.039062 L 263 8.039062 L 263 14 L 258 14 Z M 258 8.039062 " clip-rule="nonzero"/></clipPath><clipPath id="d429d6fcf8"><path d="M 46 269 L 144 269 L 144 337.289062 L 46 337.289062 Z M 46 269 " clip-rule="nonzero"/></clipPath><clipPath id="ab47a23062"><path d="M 16.890625 277 L 143 277 L 143 337.289062 L 16.890625 337.289062 Z M 16.890625 277 " clip-rule="nonzero"/></clipPath><clipPath id="1c91cbdc1d"><path d="M 120 330 L 129 330 L 129 337.289062 L 120 337.289062 Z M 120 330 " clip-rule="nonzero"/></clipPath><clipPath id="8dd273433f"><path d="M 259 285 L 355 285 L 355 337.289062 L 259 337.289062 Z M 259 285 " clip-rule="nonzero"/></clipPath><clipPath id="cc68ac1544"><path d="M 261.277344 291.136719 L 374.640625 291.136719 L 374.640625 337.15625 L 261.277344 337.15625 Z M 261.277344 291.136719 " clip-rule="nonzero"/></clipPath></defs><path fill="#ffef66" d="M 75.519531 90.917969 C 77.761719 93.710938 81.839844 94.15625 84.632812 91.914062 C 87.421875 89.671875 87.867188 85.59375 85.625 82.800781 C 83.386719 80.011719 79.308594 79.5625 76.519531 81.804688 C 73.726562 84.046875 73.28125 88.125 75.519531 90.917969 " fill-opacity="1" fill-rule="nonzero"/><path fill="#ffef66" d="M 210.378906 28.355469 C 211.988281 28.53125 213.4375 27.367188 213.613281 25.753906 C 213.792969 24.144531 212.625 22.691406 211.015625 22.515625 C 209.40625 22.339844 207.953125 23.503906 207.78125 25.117188 C 207.601562 26.730469 208.765625 28.179688 210.378906 28.355469 " fill-opacity="1" fill-rule="nonzero"/><path fill="#ffef66" d="M 76.710938 187.328125 C 78.320312 187.503906 79.769531 186.339844 79.945312 184.726562 C 80.121094 183.117188 78.960938 181.667969 77.347656 181.492188 C 75.734375 181.316406 74.289062 182.476562 74.109375 184.089844 C 73.933594 185.703125 75.097656 187.152344 76.710938 187.328125 " fill-opacity="1" fill-rule="nonzero"/><path fill="#ffffff" d="M 284.691406 24.382812 C 286.523438 26.667969 289.859375 27.03125 292.136719 25.199219 C 294.417969 23.367188 294.78125 20.035156 292.953125 17.75 C 291.121094 15.46875 287.789062 15.105469 285.507812 16.9375 C 283.226562 18.769531 282.863281 22.105469 284.691406 24.382812 " fill-opacity="1" fill-rule="nonzero"/><path fill="#ffffff" d="M 241.523438 30.882812 C 242.855469 32.542969 245.277344 32.808594 246.933594 31.476562 C 248.589844 30.144531 248.855469 27.722656 247.523438 26.066406 C 246.195312 24.410156 243.773438 24.144531 242.117188 25.472656 C 240.457031 26.804688 240.195312 29.226562 241.523438 30.882812 " fill-opacity="1" fill-rule="nonzero"/><path fill="#ffffff" d="M 45.425781 181.570312 C 46.757812 183.226562 49.179688 183.492188 50.835938 182.160156 C 52.492188 180.832031 52.757812 178.410156 51.425781 176.75 C 50.097656 175.09375 47.675781 174.832031 46.015625 176.160156 C 44.363281 177.492188 44.097656 179.914062 45.425781 181.570312 " fill-opacity="1" fill-rule="nonzero"/><path fill="#ffffff" d="M 41.578125 88.019531 C 42.910156 89.675781 45.332031 89.941406 46.988281 88.609375 C 48.644531 87.28125 48.910156 84.859375 47.582031 83.199219 C 46.25 81.542969 43.828125 81.28125 42.171875 82.609375 C 40.515625 83.941406 40.25 86.363281 41.578125 88.019531 " fill-opacity="1" fill-rule="nonzero"/><path fill="#ffffff" d="M 153.21875 46.949219 C 156.664062 47.324219 159.761719 44.839844 160.136719 41.390625 C 160.511719 37.945312 158.027344 34.847656 154.582031 34.472656 C 151.136719 34.09375 148.039062 36.582031 147.664062 40.027344 C 147.289062 43.472656 149.773438 46.574219 153.21875 46.949219 " fill-opacity="1" fill-rule="nonzero"/><g clip-path="url(#f81079222d)"><path fill="#ffef66" d="M 258.660156 12.183594 C 259.453125 13.171875 260.894531 13.328125 261.882812 12.539062 C 262.871094 11.746094 263.027344 10.300781 262.234375 9.3125 C 261.441406 8.328125 260 8.167969 259.015625 8.960938 C 258.027344 9.753906 257.867188 11.199219 258.660156 12.183594 " fill-opacity="1" fill-rule="nonzero"/></g><path fill="#ffffff" d="M 30.355469 130.496094 C 32.597656 133.289062 36.675781 133.734375 39.464844 131.492188 C 42.253906 129.253906 42.699219 125.171875 40.460938 122.378906 C 38.21875 119.589844 34.140625 119.140625 31.351562 121.382812 C 28.558594 123.625 28.113281 127.703125 30.355469 130.496094 " fill-opacity="1" fill-rule="nonzero"/><path fill="#ffffff" d="M 184.613281 46.917969 C 185.40625 47.90625 186.847656 48.0625 187.835938 47.269531 C 188.824219 46.476562 188.980469 45.035156 188.1875 44.046875 C 187.394531 43.058594 185.953125 42.902344 184.964844 43.695312 C 183.976562 44.488281 183.820312 45.929688 184.613281 46.917969 " fill-opacity="1" fill-rule="nonzero"/><path fill="#ffffff" d="M 59.449219 160.054688 C 60.242188 161.042969 61.6875 161.199219 62.671875 160.40625 C 63.660156 159.613281 63.816406 158.171875 63.023438 157.183594 C 62.230469 156.195312 60.789062 156.039062 59.800781 156.832031 C 58.816406 157.625 58.65625 159.066406 59.449219 160.054688 " fill-opacity="1" fill-rule="nonzero"/><path fill="#ffef66" d="M 18.953125 157.761719 C 19.746094 158.75 21.1875 158.90625 22.175781 158.113281 C 23.164062 157.320312 23.320312 155.878906 22.527344 154.890625 C 21.734375 153.902344 20.292969 153.746094 19.304688 154.539062 C 18.316406 155.332031 18.160156 156.773438 18.953125 157.761719 " fill-opacity="1" fill-rule="nonzero"/><path fill="#ffffff" d="M 81.078125 155.46875 C 81.871094 156.453125 83.3125 156.613281 84.300781 155.820312 C 85.289062 155.027344 85.445312 153.585938 84.652344 152.597656 C 83.859375 151.609375 82.417969 151.453125 81.429688 152.246094 C 80.445312 153.039062 80.285156 154.480469 81.078125 155.46875 " fill-opacity="1" fill-rule="nonzero"/><path fill="#ffffff" d="M 111.738281 64.644531 L 97.0625 60.03125 C 96.25 59.777344 95.382812 60.230469 95.125 61.042969 C 94.867188 61.859375 95.320312 62.726562 96.136719 62.984375 C 96.234375 63.015625 96.339844 63.035156 96.441406 63.046875 Z M 112 58.996094 L 98.140625 41.300781 C 97.617188 40.632812 96.648438 40.511719 95.976562 41.039062 C 95.308594 41.5625 95.191406 42.535156 95.714844 43.203125 C 95.757812 43.257812 95.808594 43.3125 95.859375 43.359375 Z M 111.003906 43.589844 C 110.96875 43.492188 110.941406 43.386719 110.921875 43.285156 C 110.785156 42.441406 111.355469 41.644531 112.195312 41.507812 C 113.039062 41.367188 113.835938 41.9375 113.976562 42.78125 L 116.449219 57.785156 L 111.003906 43.589844 " fill-opacity="1" fill-rule="nonzero"/><path fill="#e6eaf5" d="M 143.617188 304.28125 C 143.617188 304.28125 132.378906 296.382812 115.714844 288.691406 C 99.054688 280.996094 68.460938 268.121094 65.492188 269.558594 C 65.492188 269.558594 62.941406 276.777344 103.921875 295.488281 C 138.992188 311.496094 143.617188 304.28125 143.617188 304.28125 " fill-opacity="1" fill-rule="nonzero"/><path fill="#1a2636" d="M 55.796875 277.960938 C 55.796875 277.960938 57.75 276.191406 99.757812 295.613281 C 116.140625 303.1875 126.519531 307.609375 133.117188 310.425781 C 142.355469 314.367188 142.355469 315.640625 142.355469 315.640625 C 142.355469 315.640625 123.40625 320.890625 102.257812 311.617188 C 81.109375 302.347656 55.796875 277.960938 55.796875 277.960938 " fill-opacity="1" fill-rule="nonzero"/><path fill="#ffc09e" d="M 248.253906 167.363281 C 245.039062 161.96875 240.105469 162.039062 229.894531 163.949219 C 222.105469 165.40625 182.398438 178.097656 168.703125 184.042969 C 152.710938 190.980469 129.402344 191.097656 127.296875 194.425781 C 127.296875 194.425781 116.402344 205.757812 86.425781 233.722656 C 83.496094 239.597656 69.574219 272.824219 44.578125 321.253906 C 44.578125 321.253906 123.945312 332.5 126.386719 332.628906 C 133 315.632812 141.6875 293.578125 146.015625 293.011719 C 152.207031 292.207031 181.953125 276.328125 201.085938 264.121094 C 203.449219 262.613281 205.632812 260.519531 207.519531 259.183594 C 211.542969 256.347656 213.941406 253.210938 214.800781 251.929688 C 215.792969 249.433594 217.761719 248.445312 217.863281 248.183594 C 219.492188 244.019531 216.988281 239.433594 216.988281 239.433594 C 217.746094 239.023438 221.613281 233.140625 222.160156 230.574219 C 222.699219 228.007812 222.109375 226.058594 219.304688 221.023438 C 216.5 215.984375 211.738281 215.542969 211.738281 215.542969 C 211.738281 215.542969 213.9375 213 215.667969 211.390625 C 217.398438 209.777344 215.714844 202.621094 212.476562 197.648438 C 209.238281 192.679688 207.832031 195.457031 205.039062 196.371094 C 202.488281 197.199219 197.046875 199.125 191.457031 202.332031 C 206.402344 192.636719 222.589844 189.972656 237.425781 183.53125 C 249.777344 178.171875 251.089844 172.117188 248.253906 167.363281 " fill-opacity="1" fill-rule="nonzero"/><path fill="#ffc09e" d="M 219 192.605469 C 219 192.605469 226.644531 194.523438 228.179688 194.882812 C 229.710938 195.242188 249.296875 199.117188 251.34375 207.65625 C 253.390625 216.199219 229.917969 213.070312 226.390625 213.179688 C 222.871094 213.292969 215.011719 205.144531 215.546875 202.296875 C 216.082031 199.449219 219 192.605469 219 192.605469 " fill-opacity="1" fill-rule="nonzero"/><path fill="#f7af8a" d="M 132.074219 294.652344 C 128.09375 285.613281 127.632812 280.035156 131.710938 285.359375 C 135.734375 291.804688 145.9375 293.078125 145.9375 293.078125 C 141.457031 294.140625 128.398438 326.4375 121.484375 331.867188 L 107.449219 330.941406 C 118.984375 322.820312 133.421875 297.707031 132.074219 294.652344 " fill-opacity="1" fill-rule="nonzero"/><path fill="#f7af8a" d="M 212.632812 232.589844 C 215.730469 228.765625 217.183594 225.09375 217.664062 223.628906 C 217.796875 222.335938 218.246094 221.320312 218.679688 220.582031 C 205.78125 222.425781 166.761719 219.003906 146.804688 224.390625 L 141.046875 190.867188 L 133.5625 191.867188 L 132.6875 189.679688 C 132.6875 189.679688 127.085938 201.828125 131.390625 215.328125 C 133.554688 222.121094 134.457031 228.921875 134.761719 234.667969 C 134.808594 237.855469 134.449219 248.628906 134.285156 249.738281 L 134.367188 249.648438 C 134.269531 253.25 134.289062 255.671875 134.710938 254.691406 C 136.007812 251.6875 142.832031 248.363281 143.828125 247.773438 C 149.433594 244.445312 153.570312 248.199219 160.703125 257.386719 C 167.859375 266.601562 168.996094 271.449219 180.890625 276.175781 C 181.980469 274.992188 235.21875 255.683594 236.21875 254.5625 C 238.082031 252.46875 211.175781 234.386719 212.632812 232.589844 " fill-opacity="1" fill-rule="nonzero"/><path fill="#1b1b1b" d="M 145.25 243.253906 L 231.871094 233.0625 C 235.351562 232.636719 237.828125 229.46875 237.402344 225.988281 L 216.875 58.09375 C 216.449219 54.609375 213.285156 52.136719 209.804688 52.5625 L 123.183594 62.753906 C 119.703125 63.179688 117.230469 66.34375 117.652344 69.824219 L 138.179688 237.722656 C 138.605469 241.203125 141.773438 243.679688 145.25 243.253906 " fill-opacity="1" fill-rule="nonzero"/><path fill="#e0f3ff" d="M 230.074219 218.089844 C 230.949219 217.980469 231.570312 217.183594 231.464844 216.3125 L 212.191406 58.667969 C 212.085938 57.792969 211.289062 57.171875 210.414062 57.277344 L 123.792969 67.46875 C 122.921875 67.578125 122.296875 68.375 122.40625 69.246094 L 141.675781 226.890625 C 141.78125 227.765625 142.582031 228.386719 143.453125 228.28125 L 230.074219 218.089844 " fill-opacity="1" fill-rule="nonzero"/><path fill="#fafdff" d="M 201.804688 58.289062 L 123.796875 67.457031 C 122.925781 67.5625 122.296875 68.359375 122.40625 69.230469 L 136.246094 182.222656 L 201.804688 58.289062 " fill-opacity="1" fill-rule="nonzero"/><path fill="#c8e5f7" d="M 137.054688 189.347656 C 139.472656 184.050781 142.335938 178.617188 144.195312 176.378906 C 146.566406 173.527344 155.199219 163.816406 156.171875 149.164062 C 156.90625 138.101562 152.457031 134.496094 147.53125 135.496094 C 144.796875 136.050781 142.1875 138.839844 139.960938 141.742188 C 138.890625 143.136719 137.152344 147.117188 132.445312 151.652344 L 137.054688 189.347656 " fill-opacity="1" fill-rule="nonzero"/><path fill="#e0f3ff" d="M 133.015625 156.328125 L 166.472656 140.96875 C 169.984375 139.632812 173.757812 138.011719 172.421875 134.496094 L 157.128906 94.234375 C 155.792969 90.71875 151.863281 88.949219 148.351562 90.285156 L 125.980469 98.789062 L 133.015625 156.328125 " fill-opacity="1" fill-rule="nonzero"/><path fill="#d6314f" d="M 169.257812 135.484375 C 170.59375 139 168.824219 142.929688 165.3125 144.265625 L 92.25 172.035156 C 88.734375 173.371094 84.804688 171.605469 83.46875 168.089844 L 67.226562 125.316406 C 65.890625 121.800781 67.65625 117.871094 71.167969 116.535156 L 144.234375 88.765625 C 147.746094 87.429688 151.675781 89.195312 153.011719 92.710938 L 169.257812 135.484375 " fill-opacity="1" fill-rule="nonzero"/><path fill="#1b1b1b" d="M 71.683594 137.058594 L 157.472656 104.453125 L 154.125 95.640625 L 68.339844 128.246094 L 71.683594 137.058594 " fill-opacity="1" fill-rule="nonzero"/><path fill="#e0f3ff" d="M 133.492188 127.554688 L 79.921875 147.917969 L 76.28125 138.328125 L 129.847656 117.96875 L 133.492188 127.554688 " fill-opacity="1" fill-rule="nonzero"/><path fill="#fe5268" d="M 106.167969 161.738281 L 93.578125 166.523438 C 92.722656 166.847656 91.761719 166.417969 91.4375 165.558594 L 88.839844 158.71875 C 88.511719 157.863281 88.945312 156.902344 89.800781 156.574219 L 102.390625 151.789062 C 103.25 151.464844 104.207031 151.898438 104.535156 152.753906 L 107.132812 159.59375 C 107.457031 160.453125 107.027344 161.410156 106.167969 161.738281 " fill-opacity="1" fill-rule="nonzero"/><path fill="#fe5268" d="M 210.539062 176.894531 C 210.667969 178.035156 210.339844 179.179688 209.625 180.074219 C 208.914062 180.972656 207.871094 181.546875 206.730469 181.675781 L 157.136719 187.25 C 154.765625 187.515625 152.632812 185.8125 152.363281 183.445312 L 150.785156 169.539062 C 150.660156 168.402344 150.988281 167.257812 151.703125 166.359375 C 152.414062 165.464844 153.457031 164.886719 154.597656 164.761719 L 204.191406 159.183594 C 206.558594 158.917969 208.695312 160.621094 208.964844 162.992188 L 210.539062 176.894531 " fill-opacity="1" fill-rule="nonzero"/><path fill="#ffffff" d="M 167.796875 174.351562 L 168.640625 174.253906 C 169.425781 174.164062 169.996094 173.9375 170.351562 173.582031 C 170.707031 173.226562 170.851562 172.75 170.78125 172.15625 C 170.710938 171.554688 170.496094 171.128906 170.136719 170.878906 C 169.773438 170.632812 169.246094 170.550781 168.546875 170.628906 L 167.382812 170.765625 Z M 173.355469 171.761719 C 173.507812 173.0625 173.214844 174.105469 172.484375 174.886719 C 171.75 175.667969 170.636719 176.148438 169.136719 176.324219 L 168.039062 176.449219 L 168.539062 180.746094 L 165.976562 181.042969 L 164.578125 168.960938 L 168.433594 168.515625 C 169.902344 168.347656 171.050781 168.53125 171.886719 169.074219 C 172.722656 169.617188 173.210938 170.515625 173.355469 171.761719 " fill-opacity="1" fill-rule="nonzero"/><path fill="#ffffff" d="M 181.921875 174.101562 C 180.8125 171.589844 180.183594 170.171875 180.042969 169.839844 C 179.902344 169.511719 179.796875 169.25 179.730469 169.058594 C 179.632812 169.78125 179.3125 171.585938 178.773438 174.46875 Z M 183.992188 178.957031 L 182.78125 176.183594 L 178.378906 176.691406 L 177.835938 179.667969 L 175.078125 179.988281 L 177.933594 167.367188 L 181.066406 167 L 186.75 178.632812 L 183.992188 178.957031 " fill-opacity="1" fill-rule="nonzero"/><path fill="#ffffff" d="M 191.203125 170.917969 L 193.148438 165.652344 L 195.90625 165.332031 L 192.753906 173.175781 L 193.300781 177.875 L 190.753906 178.171875 L 190.21875 173.550781 L 185.351562 166.554688 L 188.125 166.234375 L 191.203125 170.917969 " fill-opacity="1" fill-rule="nonzero"/><path fill="#ffc09e" d="M 137.609375 138.328125 C 139.839844 135.425781 142.449219 132.636719 145.179688 132.082031 C 150.109375 131.082031 154.554688 134.683594 153.820312 145.75 C 152.847656 160.402344 144.214844 170.113281 141.84375 172.964844 C 138.699219 176.746094 132.6875 189.679688 130.796875 195.625 C 130.796875 195.625 126.398438 192.480469 118.222656 222.550781 C 115.832031 231.34375 84.34375 242.539062 86.195312 233.628906 C 88.863281 220.769531 97.726562 191.460938 104.539062 181.496094 C 111.351562 171.53125 118.203125 156.628906 122.238281 154.199219 C 133.199219 147.589844 136.082031 140.316406 137.609375 138.328125 " fill-opacity="1" fill-rule="nonzero"/><path fill="#f7af8a" d="M 145.0625 133.144531 C 145.0625 133.144531 147.160156 134.726562 146.425781 136.90625 C 145.691406 139.089844 143.542969 142.140625 141.71875 144.480469 C 139.894531 146.824219 137.378906 150.199219 135.167969 148.160156 C 132.957031 146.121094 145.0625 133.144531 145.0625 133.144531 " fill-opacity="1" fill-rule="nonzero"/><path fill="#ffd5bf" d="M 144.3125 132.4375 C 144.3125 132.4375 148.75 134.402344 144.796875 138.800781 C 141.789062 142.140625 137.847656 149.515625 136 148.535156 C 134.148438 147.554688 132.09375 146.191406 132.09375 146.191406 C 132.09375 146.191406 133.589844 142.375 137.976562 137.457031 C 143.710938 131.023438 144.3125 132.4375 144.3125 132.4375 " fill-opacity="1" fill-rule="nonzero"/><path fill="#f7af8a" d="M 133.085938 221.738281 C 130.183594 209.171875 124.328125 202.734375 125.320312 201.28125 C 128.730469 196.300781 135.75 178.257812 134.898438 176.464844 C 133.597656 173.75 135.265625 174.824219 139.230469 171.617188 C 143.191406 168.410156 149.410156 157.378906 151.449219 151.214844 C 154.109375 143.175781 153.078125 139.402344 152.820312 136.582031 C 153.675781 138.765625 154.082031 141.773438 153.820312 145.75 C 152.847656 160.402344 144.21875 170.113281 141.84375 172.964844 C 138.699219 176.746094 133.476562 189.5625 133.828125 194.976562 C 134.394531 203.738281 133.085938 221.738281 133.085938 221.738281 " fill-opacity="1" fill-rule="nonzero"/><path fill="#ffd2ba" d="M 86.15625 233.929688 C 86.53125 229.964844 96.472656 193.296875 104.539062 181.496094 C 111.144531 171.832031 117.800781 157.5 121.878906 154.441406 C 122.589844 153.910156 127.5625 151.25 132.074219 146.179688 C 132.09375 146.191406 127.234375 152.8125 124.027344 155.542969 C 120.820312 158.273438 113.820312 171.511719 112.613281 176.851562 C 111.40625 182.195312 106.695312 185.421875 104.019531 193.453125 C 101.804688 200.089844 95.082031 225.941406 95.09375 235.816406 C 95.101562 242.941406 105.078125 254.160156 103.796875 254.5625 C 101.300781 255.347656 92.261719 246.703125 88.992188 249.738281 C 85.113281 253.339844 67.328125 313.835938 51.5 324.84375 L 41.886719 306.636719 C 67.460938 283.351562 73.039062 260.757812 86.15625 233.929688 " fill-opacity="1" fill-rule="nonzero"/><g clip-path="url(#d429d6fcf8)"><path fill="#e0f3ff" d="M 93.917969 285.097656 C 70.535156 272.824219 65.492188 269.558594 65.492188 269.558594 L 46.488281 303.78125 L 114.066406 337.15625 L 128.042969 337.15625 L 143.617188 304.28125 C 141.09375 306.578125 109.867188 293.464844 93.917969 285.097656 " fill-opacity="1" fill-rule="nonzero"/></g><g clip-path="url(#ab47a23062)"><path fill="#1f2f42" d="M 55.796875 277.960938 L 16.890625 337.15625 L 133.179688 337.15625 L 142.355469 315.640625 C 133.742188 313.601562 117.511719 309.285156 99.078125 300.710938 C 61.617188 283.285156 55.796875 277.960938 55.796875 277.960938 " fill-opacity="1" fill-rule="nonzero"/></g><path fill="#355070" d="M 131.628906 322.683594 C 132.820312 324.269531 132.503906 326.519531 130.921875 327.714844 C 129.335938 328.90625 127.085938 328.585938 125.894531 327.003906 C 124.703125 325.417969 125.019531 323.167969 126.601562 321.976562 C 128.1875 320.78125 130.4375 321.101562 131.628906 322.683594 " fill-opacity="1" fill-rule="nonzero"/><g clip-path="url(#1c91cbdc1d)"><path fill="#355070" d="M 122.34375 331.664062 C 120.761719 332.855469 120.445312 335.109375 121.636719 336.691406 C 121.765625 336.863281 121.914062 337.015625 122.066406 337.15625 L 126.925781 337.15625 C 128.265625 335.921875 128.488281 333.859375 127.371094 332.375 C 126.179688 330.789062 123.929688 330.472656 122.34375 331.664062 " fill-opacity="1" fill-rule="nonzero"/></g><path fill="#c8e5f7" d="M 199.828125 208.011719 C 195.921875 205.15625 182.054688 195.136719 176.230469 192.65625 C 169.960938 189.984375 159.074219 184.566406 157.648438 187.796875 C 156.242188 190.988281 156.832031 194.796875 164.960938 204.378906 C 169.535156 209.777344 178.648438 217.980469 184.199219 223.480469 L 214.050781 219.96875 C 207.125 212.5 203.335938 210.570312 199.828125 208.011719 " fill-opacity="1" fill-rule="nonzero"/><path fill="#e6eaf5" d="M 259.910156 324.28125 C 259.910156 324.28125 261.0625 320.746094 275.996094 312.796875 C 290.925781 304.84375 311.878906 292.613281 317.167969 288.984375 C 322.460938 285.359375 331.023438 283.65625 332.464844 285.777344 C 333.910156 287.898438 304.09375 311.617188 304.09375 311.617188 C 304.09375 311.617188 262.730469 328.078125 259.910156 324.28125 " fill-opacity="1" fill-rule="nonzero"/><path fill="#ffc09e" d="M 236.910156 234.140625 C 229.378906 227.550781 207.355469 212.535156 201.804688 208.480469 C 197.894531 205.625 176.808594 188.09375 171.664062 184.410156 C 164.859375 179.539062 158.828125 181.800781 157.648438 187.796875 C 156.601562 193.105469 164.457031 201.460938 171.085938 208.171875 C 177.441406 214.597656 186.390625 223.871094 191.273438 228.292969 C 192.300781 229.222656 202.972656 241.667969 211.539062 250.996094 C 217.183594 257.140625 219.972656 261.925781 219.726562 263.496094 C 219.121094 267.398438 246.082031 242.164062 236.910156 234.140625 " fill-opacity="1" fill-rule="nonzero"/><path fill="#ffd5bf" d="M 166.804688 197.605469 C 169.238281 195.65625 174.214844 191.203125 173.90625 189.679688 C 173.523438 187.785156 166.085938 181.847656 163.011719 183.941406 C 159.933594 186.03125 158.589844 188.296875 159.679688 191.503906 C 160.257812 193.214844 161.933594 195.5 163.589844 196.886719 C 164.679688 197.800781 166.214844 198.070312 166.804688 197.605469 " fill-opacity="1" fill-rule="nonzero"/><path fill="#ffc09e" d="M 274.769531 334.691406 L 311.554688 334.691406 C 311.757812 334.597656 311.964844 334.5 312.167969 334.402344 C 326.757812 327.285156 346.753906 320.417969 341.65625 311.207031 C 341.65625 311.207031 327.957031 286.339844 326.667969 284.367188 C 325.378906 282.390625 324.484375 275.910156 323.171875 265.808594 C 321.863281 255.703125 311.722656 233.84375 306.652344 222.402344 C 303.167969 214.53125 301.503906 207.824219 295.078125 202.820312 C 290.839844 199.519531 286.761719 193.855469 281.144531 193.011719 C 275.527344 192.171875 270.753906 192.058594 269.644531 198.457031 C 269.644531 198.457031 264.398438 193.199219 255.433594 197.007812 C 248.964844 199.753906 248.015625 203.148438 247.445312 207.65625 C 247.445312 207.65625 241.167969 203.113281 235.453125 205.414062 C 229.738281 207.710938 227.34375 209.972656 225.742188 213.195312 C 224.140625 216.417969 227.53125 225.832031 227.53125 225.832031 C 227.53125 225.832031 220.300781 221.0625 213.539062 226.554688 C 209.769531 229.617188 209.859375 231.679688 209.542969 234.035156 C 209.363281 235.339844 211.28125 243.21875 216.671875 253.304688 C 217.277344 254.433594 222.125 270.652344 234.335938 286.546875 C 246.097656 301.847656 253.191406 310.519531 260.582031 316.625 C 262.066406 317.851562 269.574219 327.78125 274.769531 334.691406 " fill-opacity="1" fill-rule="nonzero"/><path fill="#f7af8a" d="M 280.589844 192.4375 C 274.964844 191.667969 270.191406 191.613281 269.160156 198.027344 C 269.160156 198.027344 263.847656 192.835938 254.933594 196.757812 C 248.5 199.585938 247.59375 202.992188 247.078125 207.507812 C 247.078125 207.507812 240.746094 203.046875 235.0625 205.414062 C 229.375 207.785156 227.007812 210.078125 225.449219 213.320312 C 224.421875 215.453125 225.160156 222.832031 226.96875 225.597656 C 228.210938 228.234375 231.355469 229.542969 233.496094 232.636719 C 233.613281 228.257812 219.445312 210.914062 236.34375 206.757812 C 242.773438 205.175781 254.019531 219.230469 253.203125 217.277344 C 248.164062 205.238281 248.925781 201.386719 257.945312 197.824219 C 267.96875 193.871094 275.003906 210.242188 276.148438 209.667969 C 277.082031 209.195312 270.945312 197.097656 273.023438 194.613281 C 274.964844 192.285156 283.089844 193.816406 283.925781 193.847656 C 282.851562 193.449219 281.679688 192.585938 280.589844 192.4375 " fill-opacity="1" fill-rule="nonzero"/><path fill="#f7af8a" d="M 314.113281 291.328125 C 311.136719 293.246094 320.925781 291.242188 324.46875 293.945312 C 326.816406 295.734375 342.539062 322.757812 346.339844 328.957031 C 348 325.183594 349.585938 319.214844 347.949219 316.347656 C 347.949219 316.347656 328.1875 285.652344 326.875 283.691406 C 326.039062 282.441406 325.671875 279.511719 324.433594 275.066406 C 324.433594 275.066406 323.820312 285.0625 314.113281 291.328125 " fill-opacity="1" fill-rule="nonzero"/><path fill="#1a2636" d="M 341.691406 291.285156 C 341.691406 291.285156 338.886719 289.8125 326.605469 296.738281 C 314.320312 303.660156 267.410156 329.242188 267.410156 329.242188 C 267.410156 329.242188 260.667969 332.640625 261.578125 334.644531 C 262.488281 336.652344 296.886719 336.835938 307.652344 332.734375 C 318.421875 328.632812 341.632812 295.226562 341.691406 291.285156 " fill-opacity="1" fill-rule="nonzero"/><g clip-path="url(#8dd273433f)"><path fill="#e0f3ff" d="M 304.898438 305.519531 C 290.269531 313.847656 263.273438 324.851562 259.910156 324.28125 L 267.507812 337.15625 L 323.898438 337.15625 L 354.492188 318.136719 L 332.464844 285.777344 C 332.464844 285.777344 329.558594 291.480469 304.898438 305.519531 " fill-opacity="1" fill-rule="nonzero"/></g><g clip-path="url(#cc68ac1544)"><path fill="#1f2f42" d="M 341.691406 291.285156 C 341.691406 291.285156 337.300781 299.363281 305.089844 317.15625 C 289.011719 326.035156 270.453125 331.671875 261.578125 334.644531 L 262.71875 337.15625 L 374.648438 337.15625 L 341.691406 291.285156 " fill-opacity="1" fill-rule="nonzero"/></g><path fill="#ffc09e" d="M 255.289062 288.359375 C 254.597656 280.996094 249.140625 275.148438 236.628906 267.078125 C 236.628906 267.078125 229.996094 265.648438 226.933594 264.304688 C 219.21875 260.921875 207.46875 255.363281 201.089844 251.269531 C 194.714844 247.171875 183.800781 245.0625 176.40625 248.90625 C 169.054688 252.71875 168.023438 256.589844 168.324219 260.011719 C 170.082031 266.035156 190.105469 271.308594 195.65625 274.535156 C 201.210938 277.765625 209.03125 288.238281 224.148438 299.878906 C 235.730469 308.792969 253.273438 309.304688 258.59375 311.617188 C 259.210938 300.652344 255.949219 295.453125 255.289062 288.359375 " fill-opacity="1" fill-rule="nonzero"/><path fill="#ffd5bf" d="M 184.886719 256.566406 C 182.28125 255.019531 177.53125 253.367188 175.070312 252.5625 C 174.132812 252.253906 172.960938 252.566406 172.714844 252.820312 C 170.210938 255.382812 169.339844 257.910156 169.292969 259.875 C 168.363281 263.34375 175.273438 266.339844 182.433594 269.085938 C 184.113281 267.933594 188.507812 258.714844 184.886719 256.566406 " fill-opacity="1" fill-rule="nonzero"/><path fill="#f7af8a" d="M 175.070312 252.5625 L 184.886719 256.566406 C 184.886719 256.566406 180.714844 253.097656 175.070312 252.5625 " fill-opacity="1" fill-rule="nonzero"/><path fill="#f7af8a" d="M 233.496094 269.085938 C 239.296875 274.335938 237.085938 275.964844 233.496094 274.074219 C 229.074219 271.746094 219.136719 260.757812 219.136719 260.757812 C 219.136719 260.757812 232.089844 267.8125 233.496094 269.085938 " fill-opacity="1" fill-rule="nonzero"/><path fill="#c8e5f7" d="M 215.464844 85.6875 C 211.828125 85.339844 208.058594 86.214844 204.8125 88.4375 C 197.445312 93.476562 195.558594 103.542969 200.597656 110.910156 C 204.820312 117.089844 212.558594 119.394531 219.292969 117.027344 L 215.464844 85.6875 " fill-opacity="1" fill-rule="nonzero"/><path fill="#f9ff42" d="M 220.5 112.183594 C 213.132812 117.226562 203.070312 115.339844 198.03125 107.96875 C 192.992188 100.59375 194.878906 90.53125 202.246094 85.488281 C 209.617188 80.449219 219.675781 82.335938 224.71875 89.707031 C 229.757812 97.078125 227.871094 107.140625 220.5 112.183594 " fill-opacity="1" fill-rule="nonzero"/><path fill="#fcce26" d="M 218.132812 108.722656 C 212.675781 112.457031 205.226562 111.058594 201.492188 105.597656 C 197.761719 100.140625 199.15625 92.6875 204.617188 88.953125 C 210.070312 85.21875 217.523438 86.617188 221.253906 92.074219 C 224.988281 97.535156 223.589844 104.988281 218.132812 108.722656 " fill-opacity="1" fill-rule="nonzero"/><path fill="#f9ff42" d="M 213.050781 98.691406 C 212.226562 96.921875 212.003906 96.070312 212.5 95.5625 C 212.921875 95.132812 213.667969 95.019531 214.664062 96 C 215.582031 96.894531 215.984375 97.765625 216.226562 98.359375 C 216.621094 99.160156 217.65625 99.289062 218.242188 98.691406 C 219.214844 97.699219 217.691406 95.675781 216.78125 94.699219 L 217.691406 93.769531 C 218.542969 92.765625 217.175781 91.417969 216.195312 92.300781 C 216.1875 92.292969 215.167969 93.332031 215.167969 93.332031 C 213.210938 92.042969 211.21875 92.167969 209.894531 93.519531 C 208.4375 95.011719 208.804688 96.878906 209.90625 99.042969 C 210.664062 100.539062 210.796875 101.390625 210.222656 101.976562 C 209.621094 102.589844 208.691406 102.339844 207.816406 101.480469 C 206.976562 100.660156 206.40625 99.644531 206.074219 98.765625 C 205.472656 97.238281 203.15625 98.085938 203.71875 99.648438 C 203.960938 100.5625 204.6875 101.816406 205.671875 102.871094 L 204.6875 103.878906 C 203.714844 104.871094 205.210938 106.355469 206.199219 105.347656 L 207.28125 104.238281 C 209.347656 105.664062 211.457031 105.445312 212.796875 104.078125 C 214.152344 102.695312 214.242188 101.128906 213.050781 98.691406 " fill-opacity="1" fill-rule="nonzero"/><path fill="#c8e5f7" d="M 211.429688 149.269531 C 204.6875 155.914062 193.832031 155.832031 187.191406 149.089844 C 180.550781 142.34375 180.632812 131.488281 187.375 124.84375 C 194.117188 118.199219 204.96875 118.277344 211.609375 125.023438 C 218.253906 131.769531 218.171875 142.625 211.429688 149.269531 " fill-opacity="1" fill-rule="nonzero"/><path fill="#f9ff42" d="M 208.828125 148.191406 C 202.085938 154.835938 191.234375 154.753906 184.59375 148.011719 C 177.949219 141.265625 178.03125 130.410156 184.773438 123.765625 C 191.515625 117.121094 202.367188 117.199219 209.011719 123.949219 C 215.652344 130.695312 215.570312 141.546875 208.828125 148.191406 " fill-opacity="1" fill-rule="nonzero"/><path fill="#fcce26" d="M 205.707031 145.023438 C 200.714844 149.945312 192.679688 149.886719 187.757812 144.890625 C 182.839844 139.894531 182.898438 131.855469 187.894531 126.933594 C 192.886719 122.011719 200.921875 122.074219 205.84375 127.066406 C 210.761719 132.0625 210.703125 140.101562 205.707031 145.023438 " fill-opacity="1" fill-rule="nonzero"/><path fill="#f9ff42" d="M 198.523438 135.511719 C 197.328125 133.820312 196.9375 132.972656 197.363281 132.351562 C 197.722656 131.824219 198.476562 131.566406 199.703125 132.398438 C 200.824219 133.164062 201.410156 134 201.777344 134.570312 C 202.335938 135.332031 203.441406 135.273438 203.9375 134.539062 C 204.769531 133.320312 202.796875 131.492188 201.667969 130.648438 L 202.441406 129.503906 C 203.144531 128.296875 201.460938 127.152344 200.605469 128.253906 C 200.59375 128.246094 199.726562 129.519531 199.726562 129.519531 C 197.441406 128.542969 195.386719 129.050781 194.261719 130.710938 C 193.015625 132.539062 193.75 134.417969 195.304688 136.46875 C 196.378906 137.890625 196.675781 138.753906 196.1875 139.46875 C 195.675781 140.222656 194.660156 140.136719 193.582031 139.40625 C 192.554688 138.707031 191.769531 137.753906 191.257812 136.898438 C 190.34375 135.417969 188.085938 136.738281 188.960938 138.261719 C 189.386719 139.171875 190.382812 140.34375 191.605469 141.261719 L 190.769531 142.492188 C 189.941406 143.710938 191.777344 144.980469 192.621094 143.742188 L 193.542969 142.386719 C 195.96875 143.484375 198.128906 142.859375 199.269531 141.179688 C 200.425781 139.484375 200.226562 137.832031 198.523438 135.511719 " fill-opacity="1" fill-rule="nonzero"/><path fill="#f9ff42" d="M 263.988281 105.84375 C 266.429688 114.4375 261.441406 123.378906 252.855469 125.820312 C 244.265625 128.257812 235.328125 123.273438 232.890625 114.679688 C 230.449219 106.089844 235.433594 97.148438 244.023438 94.707031 C 252.609375 92.265625 261.550781 97.253906 263.988281 105.84375 " fill-opacity="1" fill-rule="nonzero"/><path fill="#fcce26" d="M 259.953125 106.992188 C 261.761719 113.351562 258.070312 119.976562 251.707031 121.78125 C 245.347656 123.589844 238.730469 119.898438 236.921875 113.535156 C 235.117188 107.171875 238.808594 100.550781 245.167969 98.742188 C 251.527344 96.9375 258.148438 100.628906 259.953125 106.992188 " fill-opacity="1" fill-rule="nonzero"/><path fill="#f9ff42" d="M 248.832031 108.628906 C 246.890625 108.847656 246.015625 108.785156 245.695312 108.15625 C 245.417969 107.617188 245.546875 106.875 246.792969 106.238281 C 247.933594 105.65625 248.890625 105.550781 249.527344 105.507812 C 250.414062 105.390625 250.863281 104.449219 250.480469 103.703125 C 249.847656 102.464844 247.449219 103.269531 246.234375 103.820312 L 245.640625 102.660156 C 244.960938 101.535156 243.25 102.40625 243.773438 103.613281 C 243.765625 103.621094 244.425781 104.914062 244.425781 104.914062 C 242.582031 106.363281 242.070312 108.292969 242.929688 109.976562 C 243.878906 111.835938 245.765625 112.078125 248.167969 111.722656 C 249.828125 111.476562 250.675781 111.625 251.046875 112.351562 C 251.4375 113.117188 250.90625 113.921875 249.816406 114.476562 C 248.769531 115.011719 247.625 115.230469 246.6875 115.265625 C 245.046875 115.351562 245.117188 117.816406 246.773438 117.785156 C 247.71875 117.84375 249.140625 117.554688 250.453125 116.953125 L 251.089844 118.207031 C 251.722656 119.441406 253.605469 118.5 252.964844 117.242188 L 252.261719 115.863281 C 254.269531 114.355469 254.730469 112.28125 253.859375 110.578125 C 252.980469 108.851562 251.523438 108.269531 248.832031 108.628906 " fill-opacity="1" fill-rule="nonzero"/><path fill="#f9ff42" d="M 243.828125 85.902344 C 235.777344 84.554688 230.34375 76.929688 231.695312 68.871094 C 233.042969 60.816406 240.664062 55.382812 248.71875 56.730469 C 256.769531 58.082031 262.203125 65.707031 260.855469 73.761719 C 259.503906 81.820312 251.882812 87.253906 243.828125 85.902344 " fill-opacity="1" fill-rule="nonzero"/><path fill="#fcce26" d="M 244.464844 82.121094 C 238.5 81.121094 234.476562 75.472656 235.476562 69.507812 C 236.476562 63.542969 242.121094 59.515625 248.085938 60.515625 C 254.046875 61.515625 258.070312 67.164062 257.074219 73.128906 C 256.074219 79.09375 250.429688 83.121094 244.464844 82.121094 " fill-opacity="1" fill-rule="nonzero"/><path fill="#f9ff42" d="M 247.46875 72.285156 C 248.050781 70.59375 248.441406 69.894531 249.09375 69.875 C 249.640625 69.859375 250.207031 70.253906 250.242188 71.535156 C 250.277344 72.707031 249.992188 73.535156 249.777344 74.082031 C 249.527344 74.859375 250.125 75.597656 250.890625 75.578125 C 252.164062 75.539062 252.441406 73.238281 252.460938 72.019531 L 253.648438 71.984375 C 254.847656 71.863281 254.796875 70.109375 253.59375 70.070312 C 253.59375 70.058594 252.265625 70.097656 252.265625 70.097656 C 251.789062 68.003906 250.398438 66.824219 248.667969 66.875 C 246.761719 66.933594 245.820312 68.394531 245.175781 70.519531 C 244.726562 71.992188 244.273438 72.636719 243.527344 72.65625 C 242.738281 72.679688 242.285156 71.925781 242.253906 70.804688 C 242.21875 69.730469 242.488281 68.699219 242.828125 67.910156 C 243.398438 66.519531 241.335938 65.613281 240.710938 66.996094 C 240.292969 67.753906 239.976562 69.042969 239.957031 70.359375 L 238.671875 70.398438 C 237.402344 70.4375 237.445312 72.363281 238.734375 72.324219 L 240.152344 72.285156 C 240.609375 74.535156 242.140625 75.726562 243.890625 75.675781 C 245.660156 75.625 246.710938 74.648438 247.46875 72.285156 " fill-opacity="1" fill-rule="nonzero"/><path fill="#f9ff42" d="M 290.683594 91.59375 C 287.378906 97.886719 279.601562 100.3125 273.308594 97.007812 C 267.019531 93.699219 264.59375 85.917969 267.902344 79.625 C 271.203125 73.332031 278.984375 70.910156 285.273438 74.214844 C 291.566406 77.519531 293.988281 85.300781 290.683594 91.59375 " fill-opacity="1" fill-rule="nonzero"/><path fill="#fcce26" d="M 287.726562 90.042969 C 285.28125 94.703125 279.523438 96.496094 274.859375 94.050781 C 270.203125 91.601562 268.40625 85.839844 270.855469 81.179688 C 273.300781 76.515625 279.0625 74.722656 283.722656 77.171875 C 288.382812 79.617188 290.175781 85.382812 287.726562 90.042969 " fill-opacity="1" fill-rule="nonzero"/><path fill="#f9ff42" d="M 280.414062 84.882812 C 279.175781 83.945312 278.703125 83.429688 278.863281 82.890625 C 279 82.429688 279.480469 82.070312 280.546875 82.386719 C 281.527344 82.675781 282.136719 83.140625 282.527344 83.464844 C 283.101562 83.882812 283.878906 83.585938 284.066406 82.949219 C 284.382812 81.886719 282.554688 81.03125 281.554688 80.683594 L 281.847656 79.691406 C 282.074219 78.667969 280.609375 78.230469 280.246094 79.21875 C 280.238281 79.214844 279.910156 80.324219 279.910156 80.324219 C 278.050781 80.148438 276.699219 80.980469 276.269531 82.421875 C 275.800781 84.015625 276.753906 85.191406 278.335938 86.304688 C 279.425781 87.074219 279.835938 87.621094 279.652344 88.246094 C 279.457031 88.902344 278.710938 89.074219 277.773438 88.796875 C 276.878906 88.53125 276.097656 88.03125 275.539062 87.535156 C 274.546875 86.683594 273.230469 88.144531 274.207031 89.035156 C 274.71875 89.589844 275.699219 90.199219 276.785156 90.574219 L 276.464844 91.648438 C 276.152344 92.707031 277.757812 93.195312 278.074219 92.117188 L 278.425781 90.9375 C 280.410156 91.167969 281.8125 90.226562 282.246094 88.765625 C 282.683594 87.289062 282.164062 86.152344 280.414062 84.882812 " fill-opacity="1" fill-rule="nonzero"/><path fill="#f9ff42" d="M 279.507812 43.519531 C 284.566406 40.199219 291.359375 41.609375 294.679688 46.671875 C 298 51.730469 296.589844 58.527344 291.527344 61.847656 C 286.46875 65.167969 279.675781 63.757812 276.359375 58.695312 C 273.039062 53.636719 274.449219 46.839844 279.507812 43.519531 " fill-opacity="1" fill-rule="nonzero"/><path fill="#fcce26" d="M 281.066406 45.894531 C 284.816406 43.4375 289.84375 44.480469 292.300781 48.230469 C 294.761719 51.980469 293.714844 57.011719 289.96875 59.472656 C 286.222656 61.929688 281.191406 60.886719 278.734375 57.136719 C 276.277344 53.386719 277.320312 48.355469 281.066406 45.894531 " fill-opacity="1" fill-rule="nonzero"/><path fill="#f9ff42" d="M 284.382812 52.761719 C 284.914062 53.96875 285.054688 54.550781 284.710938 54.886719 C 284.421875 55.171875 283.914062 55.238281 283.253906 54.5625 C 282.640625 53.941406 282.378906 53.347656 282.222656 52.945312 C 281.96875 52.394531 281.269531 52.296875 280.863281 52.691406 C 280.191406 53.351562 281.199219 54.746094 281.800781 55.417969 L 281.171875 56.035156 C 280.582031 56.703125 281.492188 57.632812 282.164062 57.050781 C 282.171875 57.054688 282.875 56.363281 282.875 56.363281 C 284.1875 57.265625 285.535156 57.203125 286.453125 56.304688 C 287.460938 55.3125 287.234375 54.042969 286.515625 52.5625 C 286.019531 51.539062 285.945312 50.960938 286.339844 50.570312 C 286.757812 50.164062 287.382812 50.34375 287.964844 50.9375 C 288.523438 51.503906 288.894531 52.203125 289.109375 52.800781 C 289.496094 53.84375 291.078125 53.300781 290.71875 52.234375 C 290.566406 51.609375 290.089844 50.75 289.433594 50.023438 L 290.117188 49.355469 C 290.785156 48.695312 289.792969 47.667969 289.113281 48.339844 L 288.363281 49.074219 C 286.980469 48.082031 285.546875 48.203125 284.621094 49.113281 C 283.683594 50.03125 283.601562 51.09375 284.382812 52.761719 " fill-opacity="1" fill-rule="nonzero"/><path fill="#f9ff42" d="M 324.394531 52.566406 C 323.117188 57.117188 318.390625 59.769531 313.84375 58.488281 C 309.296875 57.207031 306.648438 52.484375 307.925781 47.933594 C 309.207031 43.382812 313.929688 40.734375 318.480469 42.011719 C 323.027344 43.292969 325.675781 48.019531 324.394531 52.566406 " fill-opacity="1" fill-rule="nonzero"/><path fill="#fcce26" d="M 322.257812 51.96875 C 321.3125 55.335938 317.8125 57.300781 314.445312 56.351562 C 311.078125 55.402344 309.117188 51.902344 310.0625 48.535156 C 311.011719 45.164062 314.507812 43.203125 317.878906 44.148438 C 321.246094 45.097656 323.207031 48.597656 322.257812 51.96875 " fill-opacity="1" fill-rule="nonzero"/><path fill="#f9ff42" d="M 316.792969 49.621094 C 315.855469 49.183594 315.480469 48.914062 315.507812 48.539062 C 315.53125 48.222656 315.796875 47.921875 316.53125 47.980469 C 317.210938 48.035156 317.671875 48.25 317.96875 48.40625 C 318.398438 48.601562 318.863281 48.300781 318.898438 47.859375 C 318.957031 47.125 317.652344 46.820312 316.953125 46.734375 L 317.007812 46.046875 C 317.011719 45.351562 316 45.269531 315.902344 45.960938 C 315.894531 45.960938 315.832031 46.726562 315.832031 46.726562 C 314.601562 46.867188 313.835938 47.597656 313.757812 48.59375 C 313.671875 49.695312 314.453125 50.328125 315.632812 50.832031 C 316.453125 51.183594 316.792969 51.484375 316.757812 51.914062 C 316.722656 52.367188 316.261719 52.582031 315.613281 52.53125 C 314.996094 52.484375 314.417969 52.265625 313.988281 52.019531 C 313.222656 51.605469 312.570312 52.734375 313.328125 53.179688 C 313.738281 53.46875 314.457031 53.730469 315.214844 53.824219 L 315.15625 54.566406 C 315.101562 55.300781 316.210938 55.394531 316.269531 54.652344 L 316.332031 53.835938 C 317.65625 53.710938 318.4375 52.90625 318.519531 51.894531 C 318.597656 50.871094 318.101562 50.207031 316.792969 49.621094 " fill-opacity="1" fill-rule="nonzero"/></svg>