<svg xmlns="http://www.w3.org/2000/svg" xmlns:xlink="http://www.w3.org/1999/xlink" width="500" zoomAndPan="magnify" viewBox="0 0 375 374.999991" height="500" preserveAspectRatio="xMidYMid meet" version="1.0"><defs><clipPath id="230ddd53e7"><path d="M 85 15 L 319 15 L 319 351.75 L 85 351.75 Z M 85 15 " clip-rule="nonzero"/></clipPath><clipPath id="94c56f6654"><path d="M 215 149 L 343.058594 149 L 343.058594 277 L 215 277 Z M 215 149 " clip-rule="nonzero"/></clipPath></defs><path fill="#ffc39c" d="M 64.957031 294.523438 C 65.628906 292.539062 67.78125 291.472656 69.765625 292.148438 C 71.746094 292.820312 72.8125 294.972656 72.140625 296.957031 L 55.980469 344.234375 C 55.308594 346.21875 53.15625 347.28125 51.171875 346.609375 C 50.011719 346.214844 49.164062 345.3125 48.800781 344.234375 L 48.796875 344.234375 L 32.640625 296.957031 C 31.96875 294.972656 33.03125 292.820312 35.011719 292.148438 C 36.996094 291.472656 39.148438 292.539062 39.820312 294.523438 Z M 64.957031 294.523438 " fill-opacity="1" fill-rule="evenodd"/><path fill="#808080" d="M 61.90625 326.890625 L 55.980469 344.234375 C 55.308594 346.21875 53.15625 347.28125 51.171875 346.609375 C 50.011719 346.214844 49.164062 345.3125 48.800781 344.234375 L 48.796875 344.234375 L 42.871094 326.890625 Z M 61.90625 326.890625 " fill-opacity="1" fill-rule="evenodd"/><path fill="#ffc107" d="M 32.429688 295.738281 L 32.429688 58.6875 L 72.347656 58.6875 L 72.347656 295.738281 C 72.347656 297.839844 70.644531 299.542969 68.546875 299.542969 L 36.230469 299.542969 C 34.132812 299.542969 32.429688 297.839844 32.429688 295.738281 Z M 32.429688 295.738281 " fill-opacity="1" fill-rule="evenodd"/><path fill="#c4ced3" d="M 32.429688 51.082031 L 72.347656 51.082031 L 72.347656 58.683594 L 32.429688 58.683594 Z M 32.429688 51.082031 " fill-opacity="1" fill-rule="evenodd"/><path fill="#ef5350" d="M 32.429688 51.082031 L 32.429688 28.410156 C 32.429688 24.722656 33.933594 21.375 36.355469 18.953125 C 38.777344 16.527344 42.125 15.023438 45.804688 15.023438 L 58.972656 15.023438 C 62.65625 15.023438 66 16.527344 68.421875 18.953125 C 70.84375 21.375 72.347656 24.722656 72.347656 28.410156 L 72.347656 51.082031 Z M 32.429688 51.082031 " fill-opacity="1" fill-rule="evenodd"/><path fill="#c4ced3" d="M 32.429688 51.082031 L 72.347656 51.082031 L 72.347656 58.683594 L 32.429688 58.683594 Z M 32.429688 51.082031 " fill-opacity="1" fill-rule="evenodd"/><path fill="#ff9d05" d="M 55.929688 273.773438 C 55.929688 275.871094 54.226562 277.574219 52.128906 277.574219 C 50.03125 277.574219 48.332031 275.871094 48.332031 273.773438 L 48.332031 213.363281 C 48.332031 211.265625 50.03125 209.5625 52.128906 209.5625 C 54.226562 209.5625 55.929688 211.265625 55.929688 213.363281 Z M 55.929688 273.773438 " fill-opacity="1" fill-rule="evenodd"/><path fill="#ff9d05" d="M 55.929688 137.257812 C 55.929688 139.359375 54.226562 141.058594 52.128906 141.058594 C 50.03125 141.058594 48.332031 139.359375 48.332031 137.257812 L 48.332031 76.851562 C 48.332031 74.75 50.03125 73.050781 52.128906 73.050781 C 54.226562 73.050781 55.929688 74.75 55.929688 76.851562 Z M 55.929688 137.257812 " fill-opacity="1" fill-rule="evenodd"/><path fill="#ff9d05" d="M 47.992188 198.140625 C 45.894531 198.140625 44.195312 196.4375 44.195312 194.339844 C 44.195312 192.238281 45.894531 190.539062 47.992188 190.539062 L 56.785156 190.539062 C 58.882812 190.539062 60.582031 192.238281 60.582031 194.339844 C 60.582031 196.4375 58.882812 198.140625 56.785156 198.140625 Z M 47.992188 198.140625 " fill-opacity="1" fill-rule="evenodd"/><path fill="#ff9d05" d="M 47.992188 179.113281 C 45.894531 179.113281 44.195312 177.410156 44.195312 175.3125 C 44.195312 173.210938 45.894531 171.511719 47.992188 171.511719 L 56.785156 171.511719 C 58.882812 171.511719 60.582031 173.210938 60.582031 175.3125 C 60.582031 177.410156 58.882812 179.113281 56.785156 179.113281 Z M 47.992188 179.113281 " fill-opacity="1" fill-rule="evenodd"/><path fill="#ff9d05" d="M 47.992188 160.085938 C 45.894531 160.085938 44.195312 158.382812 44.195312 156.285156 C 44.195312 154.1875 45.894531 152.484375 47.992188 152.484375 L 56.785156 152.484375 C 58.882812 152.484375 60.582031 154.1875 60.582031 156.285156 C 60.582031 158.382812 58.882812 160.085938 56.785156 160.085938 Z M 47.992188 160.085938 " fill-opacity="1" fill-rule="evenodd"/><g clip-path="url(#230ddd53e7)"><path fill="#f0ebeb" d="M 89.015625 14.996094 L 314.734375 14.996094 C 316.761719 14.996094 318.40625 16.644531 318.40625 18.671875 L 318.40625 348.070312 C 318.40625 350.101562 316.761719 351.746094 314.734375 351.746094 L 89.015625 351.746094 C 86.984375 351.746094 85.339844 350.101562 85.339844 348.070312 L 85.339844 18.671875 C 85.339844 16.644531 86.984375 14.996094 89.015625 14.996094 Z M 89.015625 14.996094 " fill-opacity="1" fill-rule="nonzero"/></g><path fill="#808080" d="M 220.257812 50.03125 C 218.226562 50.03125 216.582031 48.382812 216.582031 46.355469 C 216.582031 44.324219 218.226562 42.675781 220.257812 42.675781 L 292.199219 42.675781 C 294.226562 42.675781 295.871094 44.324219 295.871094 46.355469 C 295.871094 48.382812 294.226562 50.03125 292.199219 50.03125 Z M 220.257812 50.03125 " fill-opacity="1" fill-rule="evenodd"/><path fill="#808080" d="M 220.257812 67.304688 C 218.226562 67.304688 216.582031 65.65625 216.582031 63.628906 C 216.582031 61.597656 218.226562 59.949219 220.257812 59.949219 L 292.199219 59.949219 C 294.226562 59.949219 295.871094 61.597656 295.871094 63.628906 C 295.871094 65.65625 294.226562 67.304688 292.199219 67.304688 Z M 220.257812 67.304688 " fill-opacity="1" fill-rule="evenodd"/><path fill="#808080" d="M 228.800781 84.578125 C 226.769531 84.578125 225.125 82.929688 225.125 80.902344 C 225.125 78.871094 226.769531 77.222656 228.800781 77.222656 L 292.199219 77.222656 C 294.226562 77.222656 295.871094 78.871094 295.871094 80.902344 C 295.871094 82.929688 294.226562 84.578125 292.199219 84.578125 Z M 228.800781 84.578125 " fill-opacity="1" fill-rule="evenodd"/><path fill="#808080" d="M 228.800781 101.851562 C 226.769531 101.851562 225.125 100.203125 225.125 98.175781 C 225.125 96.144531 226.769531 94.496094 228.800781 94.496094 L 292.199219 94.496094 C 294.226562 94.496094 295.871094 96.144531 295.871094 98.175781 C 295.871094 100.203125 294.226562 101.851562 292.199219 101.851562 Z M 228.800781 101.851562 " fill-opacity="1" fill-rule="evenodd"/><path fill="#808080" d="M 220.257812 119.125 C 218.226562 119.125 216.582031 117.476562 216.582031 115.449219 C 216.582031 113.417969 218.226562 111.769531 220.257812 111.769531 L 292.199219 111.769531 C 294.226562 111.769531 295.871094 113.417969 295.871094 115.449219 C 295.871094 117.476562 294.226562 119.125 292.199219 119.125 Z M 220.257812 119.125 " fill-opacity="1" fill-rule="evenodd"/><path fill="#808080" d="M 220.257812 136.398438 C 218.226562 136.398438 216.582031 134.75 216.582031 132.722656 C 216.582031 130.691406 218.226562 129.042969 220.257812 129.042969 L 292.199219 129.042969 C 294.226562 129.042969 295.871094 130.691406 295.871094 132.722656 C 295.871094 134.75 294.226562 136.398438 292.199219 136.398438 Z M 220.257812 136.398438 " fill-opacity="1" fill-rule="evenodd"/><path fill="#808080" d="M 111.546875 164.058594 C 109.519531 164.058594 107.875 162.410156 107.875 160.382812 C 107.875 158.351562 109.519531 156.703125 111.546875 156.703125 L 144.269531 156.703125 C 146.300781 156.703125 147.945312 158.351562 147.945312 160.382812 C 147.945312 162.410156 146.300781 164.058594 144.269531 164.058594 Z M 111.546875 164.058594 " fill-opacity="1" fill-rule="evenodd"/><path fill="#808080" d="M 111.546875 184.757812 C 109.519531 184.757812 107.875 183.109375 107.875 181.082031 C 107.875 179.050781 109.519531 177.402344 111.546875 177.402344 L 144.269531 177.402344 C 146.300781 177.402344 147.945312 179.050781 147.945312 181.082031 C 147.945312 183.109375 146.300781 184.757812 144.269531 184.757812 Z M 111.546875 184.757812 " fill-opacity="1" fill-rule="evenodd"/><path fill="#808080" d="M 111.546875 205.457031 C 109.519531 205.457031 107.875 203.808594 107.875 201.78125 C 107.875 199.75 109.519531 198.105469 111.546875 198.105469 L 144.269531 198.105469 C 146.300781 198.105469 147.945312 199.75 147.945312 201.78125 C 147.945312 203.808594 146.300781 205.457031 144.269531 205.457031 Z M 111.546875 205.457031 " fill-opacity="1" fill-rule="evenodd"/><path fill="#808080" d="M 111.546875 226.15625 C 109.519531 226.15625 107.875 224.511719 107.875 222.480469 C 107.875 220.449219 109.519531 218.804688 111.546875 218.804688 L 144.269531 218.804688 C 146.300781 218.804688 147.945312 220.449219 147.945312 222.480469 C 147.945312 224.511719 146.300781 226.15625 144.269531 226.15625 Z M 111.546875 226.15625 " fill-opacity="1" fill-rule="evenodd"/><path fill="#808080" d="M 111.546875 246.855469 C 109.519531 246.855469 107.875 245.210938 107.875 243.179688 C 107.875 241.148438 109.519531 239.503906 111.546875 239.503906 L 144.269531 239.503906 C 146.300781 239.503906 147.945312 241.148438 147.945312 243.179688 C 147.945312 245.210938 146.300781 246.855469 144.269531 246.855469 Z M 111.546875 246.855469 " fill-opacity="1" fill-rule="evenodd"/><path fill="#808080" d="M 111.546875 267.554688 C 109.519531 267.554688 107.875 265.910156 107.875 263.878906 C 107.875 261.847656 109.519531 260.203125 111.546875 260.203125 L 144.269531 260.203125 C 146.300781 260.203125 147.945312 261.847656 147.945312 263.878906 C 147.945312 265.910156 146.300781 267.554688 144.269531 267.554688 Z M 111.546875 267.554688 " fill-opacity="1" fill-rule="evenodd"/><path fill="#808080" d="M 111.546875 288.253906 C 109.519531 288.253906 107.875 286.609375 107.875 284.578125 C 107.875 282.550781 109.519531 280.902344 111.546875 280.902344 L 144.269531 280.902344 C 146.300781 280.902344 147.945312 282.550781 147.945312 284.578125 C 147.945312 286.609375 146.300781 288.253906 144.269531 288.253906 Z M 111.546875 288.253906 " fill-opacity="1" fill-rule="evenodd"/><path fill="#808080" d="M 111.546875 308.957031 C 109.519531 308.957031 107.875 307.308594 107.875 305.277344 C 107.875 303.25 109.519531 301.601562 111.546875 301.601562 L 144.269531 301.601562 C 146.300781 301.601562 147.945312 303.25 147.945312 305.277344 C 147.945312 307.308594 146.300781 308.957031 144.269531 308.957031 Z M 111.546875 308.957031 " fill-opacity="1" fill-rule="evenodd"/><path fill="#808080" d="M 111.546875 329.65625 C 109.519531 329.65625 107.875 328.007812 107.875 325.980469 C 107.875 323.949219 109.519531 322.304688 111.546875 322.304688 L 144.269531 322.304688 C 146.300781 322.304688 147.945312 323.949219 147.945312 325.980469 C 147.945312 328.007812 146.300781 329.65625 144.269531 329.65625 Z M 111.546875 329.65625 " fill-opacity="1" fill-rule="evenodd"/><path fill="#808080" d="M 162.707031 164.058594 C 160.675781 164.058594 159.03125 162.410156 159.03125 160.382812 C 159.03125 158.351562 160.675781 156.703125 162.707031 156.703125 L 212.609375 156.703125 C 214.636719 156.703125 216.28125 158.351562 216.28125 160.382812 C 216.28125 162.410156 214.636719 164.058594 212.609375 164.058594 Z M 162.707031 164.058594 " fill-opacity="1" fill-rule="evenodd"/><path fill="#808080" d="M 162.707031 184.757812 C 160.675781 184.757812 159.03125 183.109375 159.03125 181.082031 C 159.03125 179.050781 160.675781 177.402344 162.707031 177.402344 L 205.722656 177.402344 C 207.75 177.402344 209.394531 179.050781 209.394531 181.082031 C 209.394531 183.109375 207.75 184.757812 205.722656 184.757812 Z M 162.707031 184.757812 " fill-opacity="1" fill-rule="evenodd"/><path fill="#808080" d="M 162.707031 205.457031 C 160.675781 205.457031 159.03125 203.808594 159.03125 201.78125 C 159.03125 199.75 160.675781 198.105469 162.707031 198.105469 L 198.832031 198.105469 C 200.863281 198.105469 202.507812 199.75 202.507812 201.78125 C 202.507812 203.808594 200.863281 205.457031 198.832031 205.457031 Z M 162.707031 205.457031 " fill-opacity="1" fill-rule="evenodd"/><path fill="#808080" d="M 162.707031 226.15625 C 160.675781 226.15625 159.03125 224.511719 159.03125 222.480469 C 159.03125 220.449219 160.675781 218.804688 162.707031 218.804688 L 201.894531 218.804688 C 203.921875 218.804688 205.566406 220.449219 205.566406 222.480469 C 205.566406 224.511719 203.921875 226.15625 201.894531 226.15625 Z M 162.707031 226.15625 " fill-opacity="1" fill-rule="evenodd"/><path fill="#808080" d="M 162.707031 246.855469 C 160.675781 246.855469 159.03125 245.210938 159.03125 243.179688 C 159.03125 241.148438 160.675781 239.503906 162.707031 239.503906 L 197.304688 239.503906 C 199.332031 239.503906 200.976562 241.148438 200.976562 243.179688 C 200.976562 245.210938 199.332031 246.855469 197.304688 246.855469 Z M 162.707031 246.855469 " fill-opacity="1" fill-rule="evenodd"/><path fill="#808080" d="M 162.707031 267.554688 C 160.675781 267.554688 159.03125 265.910156 159.03125 263.878906 C 159.03125 261.847656 160.675781 260.203125 162.707031 260.203125 L 214.90625 260.203125 C 216.933594 260.203125 218.578125 261.847656 218.578125 263.878906 C 218.578125 265.910156 216.933594 267.554688 214.90625 267.554688 Z M 162.707031 267.554688 " fill-opacity="1" fill-rule="evenodd"/><path fill="#808080" d="M 162.707031 288.253906 C 160.675781 288.253906 159.03125 286.609375 159.03125 284.578125 C 159.03125 282.550781 160.675781 280.902344 162.707031 280.902344 L 247.046875 280.902344 C 249.074219 280.902344 250.71875 282.550781 250.71875 284.578125 C 250.71875 286.609375 249.074219 288.253906 247.046875 288.253906 Z M 162.707031 288.253906 " fill-opacity="1" fill-rule="evenodd"/><path fill="#808080" d="M 162.707031 308.957031 C 160.675781 308.957031 159.03125 307.308594 159.03125 305.277344 C 159.03125 303.25 160.675781 301.601562 162.707031 301.601562 L 292.199219 301.601562 C 294.226562 301.601562 295.871094 303.25 295.871094 305.277344 C 295.871094 307.308594 294.226562 308.957031 292.199219 308.957031 Z M 162.707031 308.957031 " fill-opacity="1" fill-rule="evenodd"/><path fill="#808080" d="M 162.707031 329.65625 C 160.675781 329.65625 159.03125 328.007812 159.03125 325.980469 C 159.03125 323.949219 160.675781 322.304688 162.707031 322.304688 L 292.199219 322.304688 C 294.226562 322.304688 295.871094 323.949219 295.871094 325.980469 C 295.871094 328.007812 294.226562 329.65625 292.199219 329.65625 Z M 162.707031 329.65625 " fill-opacity="1" fill-rule="evenodd"/><path fill="#ffc107" d="M 122.496094 57.308594 C 132.242188 47.554688 145.015625 42.675781 157.792969 42.675781 C 170.566406 42.675781 183.339844 47.554688 193.089844 57.308594 C 202.835938 67.0625 207.707031 79.847656 207.707031 92.632812 C 207.707031 105.417969 202.835938 118.207031 193.089844 127.960938 C 183.339844 137.714844 170.566406 142.59375 157.792969 142.59375 C 145.015625 142.59375 132.242188 137.714844 122.496094 127.960938 C 112.746094 118.207031 107.875 105.417969 107.875 92.632812 C 107.875 79.847656 112.746094 67.0625 122.496094 57.308594 Z M 122.496094 57.308594 " fill-opacity="1" fill-rule="evenodd"/><path fill="#ffffff" d="M 126.59375 61.410156 C 135.207031 52.789062 146.5 48.476562 157.792969 48.476562 C 169.082031 48.476562 180.375 52.789062 188.992188 61.410156 C 197.605469 70.03125 201.914062 81.332031 201.914062 92.632812 C 201.914062 103.9375 197.605469 115.238281 188.992188 123.859375 C 180.375 132.480469 169.082031 136.792969 157.792969 136.792969 C 146.5 136.792969 135.207031 132.480469 126.59375 123.859375 C 117.976562 115.238281 113.667969 103.9375 113.667969 92.632812 C 113.667969 81.332031 117.976562 70.03125 126.59375 61.410156 Z M 126.59375 61.410156 " fill-opacity="1" fill-rule="evenodd"/><path fill="#fab1a6" d="M 148.238281 101.460938 C 148.238281 100.484375 148.890625 99.691406 149.695312 99.691406 C 151.042969 99.691406 162.019531 99.691406 163.363281 99.691406 C 164.167969 99.691406 164.824219 100.484375 164.824219 101.460938 L 164.824219 117.800781 C 164.824219 118.777344 164.167969 119.570312 163.363281 119.570312 C 159.707031 119.570312 153.355469 119.570312 149.695312 119.570312 C 148.890625 119.570312 148.238281 118.777344 148.238281 117.800781 Z M 148.238281 101.460938 " fill-opacity="1" fill-rule="nonzero"/><path fill="#f9c5b8" d="M 171.300781 85.03125 C 172.203125 85.128906 172.894531 85.902344 172.875 86.828125 C 172.652344 95.953125 168.574219 101.878906 163.375 104.578125 C 161.21875 105.699219 158.867188 106.257812 156.511719 106.253906 C 154.15625 106.25 151.800781 105.679688 149.640625 104.550781 C 144.445312 101.832031 140.378906 95.878906 140.1875 86.730469 C 140.171875 86.082031 140.511719 85.507812 141.027344 85.191406 C 140.257812 82.21875 138.84375 74.113281 145.96875 73.246094 C 150.066406 72.746094 155.554688 72.105469 160.136719 72.121094 C 164.894531 72.136719 168.695312 72.886719 169.132812 75.265625 C 169.714844 78.429688 170.804688 82.992188 171.300781 85.03125 Z M 171.300781 85.03125 " fill-opacity="1" fill-rule="nonzero"/><path fill="#71c285" d="M 188.648438 124.199219 C 180.078125 132.59375 168.933594 136.792969 157.792969 136.792969 C 146.5 136.792969 135.207031 132.480469 126.59375 123.859375 C 126.09375 123.359375 125.605469 122.847656 125.136719 122.332031 C 128.144531 116.886719 131.328125 111.730469 132.851562 110.148438 C 135.703125 107.199219 139.273438 105.398438 143.625 105.398438 L 148.238281 105.398438 C 148.902344 105.398438 149.484375 105.769531 149.785156 106.3125 L 156.53125 116.804688 L 163.335938 106.214844 C 163.671875 105.691406 164.242188 105.402344 164.824219 105.402344 L 164.824219 105.398438 L 169.4375 105.398438 C 173.960938 105.398438 177.585938 107.34375 180.449219 110.5 C 182.328125 112.566406 185.8125 118.53125 188.648438 124.199219 Z M 188.648438 124.199219 " fill-opacity="1" fill-rule="evenodd"/><path fill="#5ca776" d="M 138.519531 132.371094 C 137.429688 131.839844 136.359375 131.265625 135.308594 130.640625 L 136.625 125.523438 C 136.835938 124.566406 137.777344 123.964844 138.734375 124.175781 C 139.6875 124.382812 140.292969 125.328125 140.082031 126.285156 Z M 138.519531 132.371094 " fill-opacity="1" fill-rule="evenodd"/><path fill="#5ca776" d="M 178.058594 131.871094 C 176.988281 132.425781 175.902344 132.933594 174.796875 133.390625 L 172.976562 126.285156 C 172.769531 125.328125 173.371094 124.382812 174.324219 124.175781 C 175.28125 123.964844 176.226562 124.566406 176.433594 125.523438 Z M 178.058594 131.871094 " fill-opacity="1" fill-rule="evenodd"/><path fill="#6e555e" d="M 171.964844 67.902344 C 179.613281 74.179688 173.144531 86.757812 172.691406 87.609375 C 172.410156 88.175781 171.835938 88.574219 171.160156 88.589844 C 170.1875 88.617188 169.375 87.851562 169.347656 86.875 C 169.140625 79.851562 167.71875 76.929688 166.855469 75.792969 C 159.660156 79.757812 153.996094 77.617188 149.902344 76.066406 C 148.289062 75.457031 147.042969 74.984375 146.441406 75.191406 C 146.339844 81.253906 143.921875 86.644531 143.578125 87.378906 C 143.460938 87.667969 143.257812 87.929688 142.984375 88.128906 C 142.195312 88.699219 141.089844 88.523438 140.519531 87.734375 C 135.269531 80.488281 136.273438 73.195312 140.183594 67.542969 C 142.476562 64.234375 145.777344 61.511719 149.386719 59.734375 C 153.042969 57.929688 157.042969 57.074219 160.679688 57.519531 C 165.847656 58.152344 170.238281 61.300781 171.964844 67.902344 Z M 171.964844 67.902344 " fill-opacity="1" fill-rule="evenodd"/><g clip-path="url(#94c56f6654)"><path fill="#71c285" d="M 234.59375 167.847656 C 247.003906 155.425781 263.269531 149.214844 279.535156 149.214844 C 295.800781 149.214844 312.066406 155.425781 324.476562 167.847656 C 336.886719 180.265625 343.09375 196.546875 343.09375 212.824219 C 343.09375 229.105469 336.886719 245.382812 324.476562 257.804688 C 312.066406 270.222656 295.800781 276.433594 279.535156 276.433594 C 263.269531 276.433594 247.003906 270.222656 234.59375 257.804688 C 222.183594 245.382812 215.976562 229.105469 215.976562 212.824219 C 215.976562 196.546875 222.183594 180.265625 234.59375 167.847656 Z M 234.59375 167.847656 " fill-opacity="1" fill-rule="evenodd"/></g><path fill="#66b47d" d="M 246.210938 179.476562 C 255.414062 170.265625 267.472656 165.660156 279.535156 165.660156 C 291.59375 165.660156 303.65625 170.265625 312.859375 179.476562 C 322.058594 188.683594 326.660156 200.753906 326.660156 212.824219 C 326.660156 224.894531 322.058594 236.964844 312.859375 246.175781 C 303.65625 255.386719 291.59375 259.988281 279.535156 259.988281 L 279.535156 259.976562 C 267.464844 259.976562 255.402344 255.375 246.210938 246.175781 C 237.007812 236.964844 232.40625 224.894531 232.40625 212.824219 C 232.40625 200.753906 237.007812 188.683594 246.210938 179.476562 Z M 246.210938 179.476562 " fill-opacity="1" fill-rule="evenodd"/><path fill="#ffffff" d="M 306.753906 203.796875 L 278.503906 232.070312 L 273.488281 237.089844 C 272.054688 238.523438 269.726562 238.523438 268.292969 237.089844 L 263.277344 232.070312 L 252.320312 221.101562 C 250.882812 219.664062 250.882812 217.335938 252.320312 215.902344 L 262.347656 205.863281 C 263.78125 204.429688 266.109375 204.429688 267.542969 205.863281 L 270.890625 209.21875 L 291.53125 188.5625 C 292.964844 187.125 295.289062 187.125 296.722656 188.5625 L 306.753906 198.597656 C 308.1875 200.035156 308.1875 202.363281 306.753906 203.796875 Z M 306.753906 203.796875 " fill-opacity="1" fill-rule="nonzero"/><path fill="#5ca776" d="M 279.535156 165.660156 C 267.472656 165.660156 255.414062 170.265625 246.210938 179.476562 C 241.550781 184.140625 238.070312 189.539062 235.769531 195.296875 C 237.796875 191.761719 240.320312 188.433594 243.339844 185.410156 C 252.542969 176.199219 264.605469 171.597656 276.664062 171.597656 C 288.726562 171.597656 300.785156 176.199219 309.988281 185.410156 C 313.441406 188.867188 316.246094 192.726562 318.40625 196.835938 C 321.996094 203.679688 323.792969 211.21875 323.792969 218.761719 C 323.792969 224.71875 322.671875 230.675781 320.429688 236.289062 C 324.585938 229.046875 326.660156 220.933594 326.660156 212.824219 C 326.660156 203.488281 323.910156 194.15625 318.40625 186.144531 C 316.792969 183.796875 314.941406 181.5625 312.859375 179.476562 C 303.65625 170.265625 291.59375 165.660156 279.535156 165.660156 Z M 279.535156 165.660156 " fill-opacity="1" fill-rule="evenodd"/></svg>