<svg xmlns="http://www.w3.org/2000/svg" xmlns:xlink="http://www.w3.org/1999/xlink" width="500" zoomAndPan="magnify" viewBox="0 0 375 374.999991" height="500" preserveAspectRatio="xMidYMid meet" version="1.0"><defs><clipPath id="4668550aaa"><path d="M 62 224 L 344 224 L 344 369.859375 L 62 369.859375 Z M 62 224 " clip-rule="nonzero"/></clipPath><clipPath id="eb97c44cf8"><path d="M 169 5.359375 L 334 5.359375 L 334 107 L 169 107 Z M 169 5.359375 " clip-rule="nonzero"/></clipPath></defs><path fill="#ac7762" d="M 168.792969 216.851562 C 153.078125 207.785156 138.621094 202.480469 127.1875 199.378906 C 115.789062 196.285156 107.421875 195.386719 103.804688 195.125 C 102.882812 195.058594 102.003906 194.921875 101.121094 194.707031 C 100.230469 194.488281 99.386719 194.199219 98.53125 193.828125 C 64.046875 178.835938 59.234375 166.578125 65.441406 157.355469 C 71.085938 148.972656 87 144.136719 95.863281 142.019531 C 97.300781 141.675781 98.554688 141.078125 99.601562 140.246094 C 100.652344 139.410156 101.519531 138.316406 102.175781 136.992188 C 147.535156 45.609375 218.289062 48.746094 218.5 48.753906 L 218.5 48.746094 C 219.078125 48.765625 219.617188 48.929688 220.082031 49.203125 L 288.414062 88.640625 C 288.96875 88.964844 289.398438 89.421875 289.675781 89.949219 C 291.898438 93.589844 326.058594 152.207031 271.285156 234.59375 C 270.464844 235.824219 269.953125 237.121094 269.753906 238.453125 C 269.554688 239.773438 269.664062 241.15625 270.085938 242.570312 C 272.683594 251.304688 276.453125 267.5 272.011719 276.578125 C 267.125 286.558594 254.097656 288.523438 223.867188 266.164062 C 223.117188 265.613281 222.449219 265.027344 221.8125 264.363281 C 221.183594 263.707031 220.628906 263.015625 220.109375 262.25 C 218.074219 259.25 213.109375 252.457031 204.734375 244.132812 C 196.328125 235.785156 184.503906 225.921875 168.792969 216.851562 Z M 168.792969 216.851562 " fill-opacity="1" fill-rule="nonzero"/><path fill="#b48572" d="M 106.253906 195.339844 C 105.285156 195.242188 104.464844 195.171875 103.804688 195.125 C 102.882812 195.058594 102.003906 194.921875 101.121094 194.707031 C 100.230469 194.488281 99.386719 194.199219 98.53125 193.828125 C 97.992188 193.59375 97.460938 193.359375 96.933594 193.125 C 97.097656 192.996094 97.273438 192.875 97.464844 192.773438 C 123.75 178.914062 120.921875 166.824219 120.914062 166.789062 C 120.546875 165.007812 121.695312 163.261719 123.480469 162.894531 C 125.265625 162.523438 127.011719 163.671875 127.378906 165.457031 C 127.390625 165.5 130.761719 180.210938 106.253906 195.339844 Z M 106.253906 195.339844 " fill-opacity="1" fill-rule="nonzero"/><path fill="#b48572" d="M 225.277344 267.199219 C 224.8125 266.863281 224.34375 266.515625 223.867188 266.167969 C 223.121094 265.613281 222.449219 265.027344 221.8125 264.367188 C 221.183594 263.707031 220.628906 263.019531 220.109375 262.25 C 219.738281 261.703125 219.265625 261.027344 218.695312 260.238281 C 219.550781 231.457031 233.980469 227.023438 234.023438 227.007812 C 235.753906 226.433594 237.621094 227.371094 238.195312 229.101562 C 238.769531 230.832031 237.832031 232.699219 236.101562 233.269531 C 236.066406 233.28125 224.179688 236.878906 225.3125 266.5625 C 225.320312 266.78125 225.308594 266.992188 225.277344 267.199219 Z M 225.277344 267.199219 " fill-opacity="1" fill-rule="nonzero"/><path fill="#ffc107" d="M 245.203125 84.550781 C 260.886719 93.601562 271.417969 108.152344 275.761719 124.359375 C 280.105469 140.566406 278.261719 158.429688 269.207031 174.105469 C 260.152344 189.785156 245.597656 200.308594 229.386719 204.652344 C 213.175781 208.996094 195.304688 207.15625 179.621094 198.105469 C 163.9375 189.050781 153.40625 174.5 149.0625 158.292969 C 144.71875 142.085938 146.558594 124.222656 155.617188 108.546875 C 164.671875 92.867188 179.226562 82.34375 195.4375 78 C 211.648438 73.65625 229.519531 75.496094 245.203125 84.550781 Z M 245.203125 84.550781 " fill-opacity="1" fill-rule="nonzero"/><path fill="#feda2c" d="M 268 106.511719 C 268.839844 107.855469 269.628906 109.226562 270.363281 110.617188 L 256.007812 118.902344 C 254.875 119.558594 253.425781 119.167969 252.773438 118.03125 C 252.121094 116.898438 252.511719 115.449219 253.644531 114.796875 Z M 268 106.511719 " fill-opacity="1" fill-rule="nonzero"/><path fill="#ffe89f" d="M 277.960938 138.964844 C 278.019531 140.539062 278.019531 142.121094 277.964844 143.703125 L 261.390625 143.703125 C 260.082031 143.703125 259.019531 142.644531 259.019531 141.335938 C 259.015625 140.027344 260.078125 138.964844 261.386719 138.964844 Z M 277.960938 138.964844 " fill-opacity="1" fill-rule="nonzero"/><path fill="#ffe89f" d="M 270.355469 172.035156 C 269.988281 172.730469 269.605469 173.421875 269.207031 174.105469 C 268.808594 174.796875 268.398438 175.476562 267.980469 176.148438 L 253.640625 167.871094 C 252.503906 167.214844 252.113281 165.765625 252.769531 164.628906 C 253.425781 163.492188 254.878906 163.101562 256.015625 163.757812 Z M 270.355469 172.035156 " fill-opacity="1" fill-rule="nonzero"/><path stroke-linecap="butt" transform="matrix(2.384729, 0, 0, 2.383911, -20.657917, -19.196181)" fill-opacity="1" fill="#ffe89f" fill-rule="nonzero" stroke-linejoin="miter" d="M 112.336573 90.645451 C 111.77473 90.997747 111.199782 91.328742 110.615007 91.638436 L 107.14239 85.621538 C 106.867202 85.146347 107.031004 84.538431 107.50767 84.264787 C 107.982698 83.991142 108.590406 84.155001 108.863956 84.630192 Z M 112.336573 90.645451 " stroke="#fcaa17" stroke-width="0.076" stroke-opacity="1" stroke-miterlimit="4"/><path fill="#ffe89f" d="M 214.777344 206.851562 C 213.203125 206.910156 211.621094 206.910156 210.039062 206.855469 L 210.039062 190.300781 C 210.035156 188.992188 211.097656 187.929688 212.40625 187.929688 C 213.714844 187.925781 214.777344 188.984375 214.777344 190.292969 Z M 214.777344 206.851562 " fill-opacity="1" fill-rule="nonzero"/><path fill="#ffe89f" d="M 181.699219 199.253906 C 181.003906 198.882812 180.308594 198.5 179.621094 198.105469 C 178.933594 197.707031 178.253906 197.296875 177.585938 196.878906 L 185.859375 182.550781 C 186.515625 181.414062 187.96875 181.023438 189.105469 181.679688 C 190.242188 182.335938 190.628906 183.789062 189.976562 184.925781 Z M 181.699219 199.253906 " fill-opacity="1" fill-rule="nonzero"/><path fill="#ffe89f" d="M 156.828125 176.144531 C 155.988281 174.804688 155.199219 173.433594 154.464844 172.042969 L 168.808594 163.761719 C 169.941406 163.109375 171.390625 163.5 172.042969 164.632812 C 172.695312 165.769531 172.304688 167.214844 171.171875 167.867188 Z M 156.828125 176.144531 " fill-opacity="1" fill-rule="nonzero"/><path fill="#ffe89f" d="M 146.863281 143.703125 C 146.804688 142.125 146.804688 140.546875 146.859375 138.964844 L 163.425781 138.964844 C 164.734375 138.960938 165.796875 140.023438 165.796875 141.328125 C 165.796875 142.636719 164.738281 143.699219 163.429688 143.703125 Z M 146.863281 143.703125 " fill-opacity="1" fill-rule="nonzero"/><path fill="#ffe89f" d="M 154.460938 110.632812 C 154.832031 109.933594 155.214844 109.238281 155.617188 108.546875 C 156.011719 107.859375 156.417969 107.183594 156.835938 106.519531 L 171.175781 114.792969 C 172.3125 115.449219 172.703125 116.902344 172.046875 118.039062 C 171.390625 119.175781 169.9375 119.5625 168.800781 118.90625 Z M 154.460938 110.632812 " fill-opacity="1" fill-rule="nonzero"/><path fill="#ffe89f" d="M 177.578125 85.765625 C 178.921875 84.925781 180.289062 84.136719 181.683594 83.398438 L 189.972656 97.746094 C 190.625 98.882812 190.234375 100.328125 189.101562 100.980469 C 187.964844 101.632812 186.515625 101.246094 185.863281 100.109375 Z M 177.578125 85.765625 " fill-opacity="1" fill-rule="nonzero"/><path fill="#ffe89f" d="M 210.039062 75.800781 C 211.613281 75.742188 213.195312 75.742188 214.777344 75.796875 L 214.777344 92.367188 C 214.78125 93.675781 213.71875 94.734375 212.410156 94.738281 C 211.101562 94.738281 210.039062 93.679688 210.039062 92.371094 Z M 210.039062 75.800781 " fill-opacity="1" fill-rule="nonzero"/><path fill="#ffe89f" d="M 268 106.511719 C 268.839844 107.855469 269.628906 109.226562 270.363281 110.617188 L 256.007812 118.902344 C 254.875 119.558594 253.425781 119.167969 252.773438 118.03125 C 252.121094 116.898438 252.511719 115.449219 253.644531 114.796875 Z M 268 106.511719 " fill-opacity="1" fill-rule="nonzero"/><path fill="#ffe89f" d="M 245.203125 84.550781 C 245.890625 84.945312 246.570312 85.355469 247.238281 85.773438 L 238.957031 100.117188 C 238.300781 101.253906 236.847656 101.640625 235.710938 100.984375 C 234.574219 100.328125 234.183594 98.878906 234.839844 97.742188 L 243.125 83.398438 C 243.820312 83.769531 244.515625 84.152344 245.203125 84.550781 Z M 245.203125 84.550781 " fill-opacity="1" fill-rule="nonzero"/><path fill="#ffae06" d="M 238.085938 96.871094 C 250.367188 103.960938 258.609375 115.351562 262.011719 128.042969 C 265.414062 140.730469 263.972656 154.714844 256.882812 166.992188 C 249.792969 179.265625 238.398438 187.507812 225.703125 190.90625 C 213.007812 194.308594 199.019531 192.867188 186.738281 185.78125 C 174.460938 178.691406 166.214844 167.300781 162.816406 154.613281 C 159.414062 141.921875 160.855469 127.9375 167.945312 115.660156 C 175.035156 103.386719 186.429688 95.144531 199.125 91.746094 C 211.816406 88.34375 225.808594 89.785156 238.085938 96.871094 Z M 238.085938 96.871094 " fill-opacity="1" fill-rule="nonzero"/><path fill="#ffffff" d="M 227.386719 136.085938 C 226.691406 137.195312 227.027344 138.65625 228.136719 139.347656 C 229.246094 140.042969 230.707031 139.707031 231.398438 138.597656 C 234.472656 133.691406 234.4375 128.652344 232.519531 124.5625 C 231.527344 122.449219 230.023438 120.597656 228.175781 119.160156 C 226.339844 117.726562 224.160156 116.703125 221.816406 116.242188 C 217.144531 115.320312 211.84375 116.589844 207.285156 121.210938 C 203.699219 124.839844 203.328125 128.832031 204.507812 132.691406 C 205.5625 136.144531 207.910156 139.375 210.160156 142.050781 C 211.191406 143.28125 213.34375 146.085938 214.558594 149.429688 C 215.660156 152.460938 215.960938 155.957031 213.660156 158.957031 L 213.65625 158.949219 C 213.601562 159.023438 213.550781 159.097656 213.503906 159.171875 C 211.601562 161.710938 207.855469 162.4375 204.242188 161.730469 C 202.667969 161.425781 201.144531 160.851562 199.820312 160.042969 C 198.539062 159.257812 197.433594 158.25 196.648438 157.046875 C 195.007812 154.535156 194.796875 151.019531 197.351562 146.699219 C 198.011719 145.570312 197.636719 144.121094 196.507812 143.460938 C 195.382812 142.796875 193.933594 143.175781 193.269531 144.300781 C 189.640625 150.445312 190.117188 155.707031 192.683594 159.640625 C 193.863281 161.445312 195.488281 162.9375 197.359375 164.082031 C 199.1875 165.199219 201.242188 165.980469 203.332031 166.390625 C 208.613281 167.421875 214.25 166.125 217.339844 161.949219 C 217.367188 161.914062 217.398438 161.875 217.425781 161.839844 L 217.421875 161.835938 L 217.421875 161.832031 C 220.949219 157.230469 220.589844 152.136719 219.011719 147.804688 C 217.550781 143.78125 215.003906 140.453125 213.785156 139 C 211.859375 136.707031 209.863281 133.992188 209.039062 131.300781 C 208.339844 129.015625 208.554688 126.660156 210.660156 124.527344 C 213.953125 121.191406 217.667969 120.257812 220.886719 120.890625 C 222.5 121.207031 224 121.914062 225.265625 122.898438 C 226.523438 123.878906 227.546875 125.140625 228.222656 126.582031 C 229.503906 129.308594 229.5 132.714844 227.386719 136.085938 Z M 227.386719 136.085938 " fill-opacity="1" fill-rule="nonzero"/><path fill="#ffffff" d="M 231.792969 113.601562 C 232.449219 112.464844 232.0625 111.011719 230.925781 110.355469 C 229.789062 109.703125 228.335938 110.089844 227.679688 111.226562 L 223.257812 118.886719 C 222.601562 120.019531 222.988281 121.472656 224.125 122.128906 C 225.261719 122.785156 226.714844 122.394531 227.371094 121.261719 Z M 231.792969 113.601562 " fill-opacity="1" fill-rule="nonzero"/><path fill="#ffffff" d="M 201.566406 163.765625 C 202.222656 162.632812 201.835938 161.179688 200.699219 160.523438 C 199.5625 159.867188 198.109375 160.257812 197.453125 161.394531 L 193.03125 169.050781 C 192.375 170.1875 192.765625 171.640625 193.898438 172.296875 C 195.035156 172.953125 196.488281 172.5625 197.144531 171.425781 Z M 201.566406 163.765625 " fill-opacity="1" fill-rule="nonzero"/><g clip-path="url(#4668550aaa)"><path fill="#f9c5b8" d="M 232.207031 300.851562 C 231.746094 298.585938 230.941406 296.390625 229.808594 294.355469 C 227.910156 290.933594 225.085938 287.960938 221.449219 285.859375 L 221.453125 285.855469 L 221.449219 285.851562 L 221.453125 285.84375 C 221.375 285.796875 221.292969 285.753906 221.214844 285.714844 L 174.246094 258.609375 C 167.492188 254.710938 161.34375 250.824219 155.535156 247.152344 C 126.042969 228.511719 104.925781 215.164062 64.453125 234.253906 C 62.488281 235.179688 61.648438 237.523438 62.574219 239.484375 C 63.1875 240.78125 68.675781 257.480469 72.898438 268.40625 C 74.785156 281.800781 85.144531 324.621094 85.820312 326.332031 C 86.621094 328.347656 88.902344 329.332031 90.917969 328.535156 C 98.6875 325.449219 106.578125 331.5625 113.515625 335.59375 C 120.433594 339.609375 125.160156 342.386719 129.460938 344.910156 C 156.839844 360.984375 168.910156 368.070312 181.707031 369.027344 C 191.847656 369.785156 201.550781 366.640625 218.910156 361.015625 C 230.203125 357.355469 244.855469 352.605469 265.308594 347.125 L 323.789062 331.460938 C 330.863281 329.566406 336.523438 324.949219 339.933594 319.042969 L 339.945312 319.042969 C 347.3125 306.273438 342.964844 290.074219 330.203125 282.707031 L 330.203125 282.695312 C 324.386719 279.34375 316.652344 278.03125 309.789062 280.074219 Z M 232.207031 300.851562 " fill-opacity="1" fill-rule="nonzero"/></g><path fill="#fab1a6" d="M 240.332031 298.675781 L 232.207031 300.851562 C 231.917969 303.496094 231.59375 306.136719 231.429688 306.726562 C 231.132812 307.769531 230.710938 308.796875 230.164062 309.78125 C 230.074219 309.917969 229.992188 310.058594 229.917969 310.210938 C 227.90625 313.5625 224.71875 315.820312 221.175781 316.769531 C 217.628906 317.71875 213.734375 317.355469 210.320312 315.457031 C 210.253906 315.414062 210.183594 315.371094 210.117188 315.328125 L 210.101562 315.339844 L 162.894531 288.09375 C 161.011719 287.015625 158.613281 287.664062 157.535156 289.542969 C 156.453125 291.421875 157.101562 293.820312 158.980469 294.898438 L 206.179688 322.136719 L 206.175781 322.144531 L 206.179688 322.144531 L 206.175781 322.15625 C 206.261719 322.207031 206.355469 322.253906 206.445312 322.296875 C 211.738281 325.257812 217.75 325.835938 223.210938 324.371094 C 228.765625 322.882812 233.757812 319.285156 236.847656 313.9375 L 236.847656 313.933594 L 236.851562 313.929688 L 236.859375 313.9375 C 236.910156 313.847656 236.960938 313.753906 237.003906 313.664062 C 237.871094 312.109375 238.535156 310.496094 239.003906 308.847656 C 239.351562 307.621094 239.96875 302.375 240.332031 298.675781 Z M 240.332031 298.675781 " fill-opacity="1" fill-rule="nonzero"/><path fill="#4a80aa" d="M 64.914062 218.070312 L 98.34375 342.785156 L 98.351562 342.785156 C 98.914062 344.886719 97.664062 347.046875 95.5625 347.609375 C 95.496094 347.628906 95.429688 347.644531 95.363281 347.660156 L 79.449219 351.921875 C 73.984375 353.386719 68.410156 352.480469 63.835938 349.839844 C 59.25 347.195312 55.671875 342.816406 54.207031 337.347656 L 29.355469 244.640625 C 27.890625 239.171875 28.800781 233.601562 31.441406 229.027344 C 34.085938 224.445312 38.464844 220.867188 43.9375 219.402344 L 60.042969 215.089844 L 60.039062 215.085938 C 62.140625 214.519531 64.304688 215.769531 64.867188 217.871094 C 64.886719 217.9375 64.902344 218.003906 64.914062 218.070312 Z M 64.914062 218.070312 " fill-opacity="1" fill-rule="nonzero"/><g clip-path="url(#eb97c44cf8)"><path fill="#ffc107" d="M 319.226562 105.714844 L 171.527344 38.867188 C 171.457031 38.839844 171.386719 38.8125 171.316406 38.78125 C 169.335938 37.882812 168.453125 35.546875 169.351562 33.566406 L 169.359375 33.570312 L 176.265625 18.3125 C 176.292969 18.242188 176.324219 18.171875 176.355469 18.105469 L 176.363281 18.105469 C 178.738281 12.867188 183.035156 9.074219 188.050781 7.1875 C 192.992188 5.324219 198.632812 5.3125 203.808594 7.582031 C 203.886719 7.609375 203.964844 7.644531 204.042969 7.679688 L 204.039062 7.683594 L 248.320312 27.726562 C 248.359375 27.738281 248.398438 27.753906 248.433594 27.773438 C 250.441406 28.617188 251.382812 30.925781 250.539062 32.933594 L 250.523438 32.925781 C 249.328125 35.769531 249.375 38.847656 250.429688 41.539062 C 251.476562 44.210938 253.527344 46.492188 256.351562 47.769531 C 259.085938 49.007812 262.042969 49.089844 264.671875 48.21875 C 264.761719 48.179688 264.859375 48.140625 264.957031 48.105469 L 264.960938 48.113281 C 267.605469 47.160156 269.894531 45.234375 271.257812 42.566406 C 271.273438 42.527344 271.289062 42.488281 271.308594 42.449219 C 272.207031 40.464844 274.542969 39.585938 276.523438 40.484375 L 276.523438 40.488281 L 320.796875 60.527344 L 320.824219 60.539062 L 320.828125 60.539062 L 320.914062 60.574219 L 320.925781 60.582031 L 321.003906 60.613281 L 321.011719 60.617188 C 321.058594 60.640625 321.105469 60.660156 321.148438 60.683594 L 321.148438 60.6875 C 326.320312 63.074219 330.0625 67.339844 331.933594 72.308594 C 333.792969 77.25 333.808594 82.882812 331.542969 88.054688 L 331.519531 88.109375 L 331.484375 88.195312 L 331.480469 88.210938 L 331.445312 88.285156 L 331.441406 88.296875 C 331.421875 88.34375 331.398438 88.386719 331.378906 88.433594 L 331.375 88.429688 L 324.527344 103.546875 C 324.5 103.617188 324.472656 103.6875 324.441406 103.757812 C 323.542969 105.742188 321.207031 106.621094 319.222656 105.722656 Z M 319.226562 105.714844 " fill-opacity="1" fill-rule="nonzero"/></g></svg>