<svg xmlns="http://www.w3.org/2000/svg" xmlns:xlink="http://www.w3.org/1999/xlink" width="500" zoomAndPan="magnify" viewBox="0 0 375 374.999991" height="500" preserveAspectRatio="xMidYMid meet" version="1.0"><defs><clipPath id="87dd6068c0"><path d="M 32 81.3125 L 346.011719 81.3125 L 346.011719 308.007812 L 32 308.007812 Z M 32 81.3125 " clip-rule="nonzero"/></clipPath></defs><g clip-path="url(#87dd6068c0)"><path fill="#d0c2b7" d="M 195.53125 308.007812 C 191.417969 308.007812 189.050781 307.910156 189.050781 307.910156 C 189.050781 307.910156 186.6875 308.007812 182.574219 308.007812 C 163.117188 308.007812 104.523438 305.820312 71.800781 280.769531 C 31.726562 250.089844 32.09375 212.316406 32.09375 194.9375 C 32.09375 177.5625 31.726562 139.789062 71.800781 109.109375 C 104.515625 84.0625 163.085938 81.875 182.558594 81.875 C 186.683594 81.875 189.050781 81.972656 189.050781 81.972656 C 189.050781 81.972656 191.421875 81.875 195.546875 81.875 C 215.023438 81.875 273.59375 84.0625 306.304688 109.109375 C 346.382812 139.789062 346.011719 177.5625 346.011719 194.9375 C 346.011719 212.316406 346.382812 250.089844 306.304688 280.769531 C 273.582031 305.824219 214.988281 308.007812 195.53125 308.007812 " fill-opacity="1" fill-rule="nonzero"/></g><path fill="#f6debc" d="M 303.371094 106.164062 C 263.730469 75.816406 186.117188 79.03125 186.117188 79.03125 C 186.117188 79.03125 108.507812 75.816406 68.867188 106.164062 C 28.789062 136.84375 29.160156 174.621094 29.160156 191.996094 C 29.160156 209.375 28.789062 247.148438 68.867188 277.828125 C 108.507812 308.175781 186.117188 304.96875 186.117188 304.96875 C 186.117188 304.96875 263.730469 308.175781 303.371094 277.828125 C 343.445312 247.148438 343.074219 209.375 343.074219 191.996094 C 343.074219 174.621094 343.445312 136.84375 303.371094 106.164062 " fill-opacity="1" fill-rule="nonzero"/><path fill="#c85b3b" d="M 192.605469 288.328125 C 188.953125 288.328125 186.816406 288.246094 186.792969 288.246094 C 186.570312 288.238281 186.339844 288.234375 186.117188 288.234375 C 185.882812 288.234375 185.65625 288.238281 185.429688 288.246094 C 185.417969 288.246094 183.289062 288.328125 179.632812 288.328125 C 163.316406 288.328125 107.847656 286.617188 79 264.53125 C 45.847656 239.148438 45.855469 208.785156 45.859375 192.472656 L 45.859375 191.523438 C 45.855469 175.210938 45.847656 144.847656 79 119.464844 C 107.847656 97.378906 163.316406 95.667969 179.632812 95.667969 C 183.28125 95.667969 185.417969 95.753906 185.445312 95.753906 C 185.664062 95.757812 185.894531 95.761719 186.121094 95.761719 C 186.351562 95.761719 186.578125 95.757812 186.808594 95.753906 C 186.816406 95.753906 188.949219 95.667969 192.605469 95.667969 C 208.917969 95.667969 264.386719 97.378906 293.234375 119.464844 C 326.386719 144.847656 326.378906 175.210938 326.378906 191.523438 L 326.378906 192.472656 C 326.378906 208.785156 326.386719 239.148438 293.234375 264.53125 C 264.386719 286.613281 208.921875 288.328125 192.605469 288.328125 " fill-opacity="1" fill-rule="nonzero"/><path fill="#5c3510" d="M 92.558594 154.25 C 92.828125 153.671875 93.109375 155.457031 93.042969 157.042969 L 92.394531 157.125 C 92.394531 157.125 92.296875 154.8125 92.558594 154.25 Z M 94.597656 153.671875 C 95.632812 153.882812 95.441406 156.953125 95.441406 156.953125 L 93.765625 156.953125 C 93.765625 156.953125 93.554688 153.882812 94.597656 153.671875 Z M 97.0625 153.671875 C 98.101562 153.882812 97.90625 156.953125 97.90625 156.953125 L 96.21875 156.953125 C 96.21875 156.953125 96.023438 153.882812 97.0625 153.671875 Z M 98.929688 154.25 C 99.195312 154.8125 99.09375 157.125 99.09375 157.125 L 98.4375 157.042969 C 98.378906 155.457031 98.660156 153.671875 98.929688 154.25 Z M 129.234375 184.535156 C 129.832031 184.886719 129.652344 186.730469 129.652344 186.730469 L 128.820312 186.730469 C 128.820312 186.730469 128.625 184.886719 129.234375 184.535156 Z M 130.648438 184.535156 C 131.230469 184.886719 131.058594 186.730469 131.058594 186.730469 L 130.214844 186.730469 C 130.214844 186.730469 130.039062 184.886719 130.648438 184.535156 Z M 132.046875 184.535156 C 132.644531 184.886719 132.460938 186.730469 132.460938 186.730469 L 131.632812 186.730469 C 131.632812 186.730469 131.441406 184.886719 132.046875 184.535156 Z M 240.195312 184.535156 C 240.796875 184.886719 240.605469 186.730469 240.605469 186.730469 L 239.769531 186.730469 C 239.769531 186.730469 239.59375 184.886719 240.195312 184.535156 Z M 241.601562 184.535156 C 242.199219 184.886719 242.015625 186.730469 242.015625 186.730469 L 241.1875 186.730469 C 241.1875 186.730469 241.003906 184.886719 241.601562 184.535156 Z M 243 184.535156 C 243.609375 184.886719 243.425781 186.730469 243.425781 186.730469 L 242.589844 186.730469 C 242.589844 186.730469 242.40625 184.886719 243 184.535156 Z M 273.304688 154.25 C 273.582031 153.671875 273.859375 155.457031 273.789062 157.042969 L 273.144531 157.125 C 273.144531 157.125 273.042969 154.8125 273.304688 154.25 Z M 275.175781 153.671875 C 276.214844 153.882812 276.011719 156.953125 276.011719 156.953125 L 274.339844 156.953125 C 274.339844 156.953125 274.136719 153.882812 275.175781 153.671875 Z M 277.640625 153.671875 C 278.679688 153.882812 278.484375 156.953125 278.484375 156.953125 L 276.800781 156.953125 C 276.800781 156.953125 276.601562 153.882812 277.640625 153.671875 Z M 279.675781 154.25 C 279.941406 154.8125 279.839844 157.125 279.839844 157.125 L 279.1875 157.042969 C 279.128906 155.457031 279.410156 153.671875 279.675781 154.25 Z M 287.585938 236.757812 C 287.820312 223.84375 286.910156 225.726562 286.910156 225.726562 C 286.953125 224.09375 285.480469 224.464844 285.480469 224.464844 C 285.480469 223.972656 284.691406 224.066406 284.691406 224.066406 L 283.707031 206.1875 C 284.382812 205.726562 283.777344 205.417969 283.777344 205.417969 C 284.316406 205.058594 285.300781 204.75 285.300781 203.425781 C 285.300781 202.125 283.554688 202.023438 283.554688 202.023438 L 282.363281 184.882812 C 282.820312 184.535156 282.457031 184.351562 282.457031 184.351562 C 283.289062 183.820312 283.890625 183.277344 283.804688 182.269531 C 283.644531 180.566406 281.90625 180.675781 281.90625 180.675781 L 280.640625 162.171875 C 280.933594 161.726562 282.195312 161.308594 282.28125 159.632812 C 282.363281 157.960938 280.183594 157.675781 280.183594 157.675781 L 280.183594 155.003906 C 280.574219 154.667969 280.34375 153.496094 280.34375 153.496094 C 280.859375 153.0625 282.339844 152.636719 282.335938 152.273438 C 282.328125 152.042969 280.605469 151.359375 280.605469 151.359375 C 280.644531 150.558594 279.902344 150.128906 279.902344 150.128906 C 279.902344 149.417969 279.828125 148.84375 278.921875 147.824219 C 278.070312 146.835938 276.585938 146.753906 276.585938 146.753906 C 276.617188 145.785156 276.351562 145.769531 276.351562 145.769531 L 276.351562 145.550781 C 276.863281 144.835938 276.351562 144.855469 276.351562 144.855469 L 276.351562 144.554688 C 276.800781 143.917969 276.359375 144.046875 276.359375 144.046875 L 276.359375 143.660156 C 276.863281 143.183594 276.351562 143.167969 276.351562 143.167969 C 276.414062 142.40625 276.085938 142.53125 276.085938 142.53125 C 275.785156 142.53125 275.894531 143.167969 275.894531 143.167969 C 275.3125 143.15625 275.894531 143.660156 275.894531 143.660156 L 275.894531 144.015625 C 275.421875 144.046875 275.894531 144.574219 275.894531 144.574219 L 275.894531 144.871094 C 275.355469 144.90625 275.894531 145.527344 275.894531 145.527344 L 275.894531 145.769531 C 275.617188 145.832031 275.742188 146.800781 275.742188 146.800781 C 275.269531 146.902344 274.660156 146.980469 273.78125 147.902344 C 272.792969 148.941406 272.742188 150.28125 272.742188 150.28125 C 272.097656 150.375 272.15625 151.558594 272.15625 151.558594 C 271.515625 151.863281 270.148438 152.371094 270.476562 152.734375 C 270.773438 153.082031 272.535156 153.921875 272.535156 153.921875 C 272.472656 155.109375 272.78125 155.355469 272.78125 155.355469 L 272.816406 158.023438 C 271.710938 158.421875 271.136719 159.117188 271.0625 160.015625 C 270.957031 161.25 272.957031 162.324219 272.957031 162.324219 L 272.742188 180.863281 C 271.410156 180.925781 271.125 181.878906 271.257812 182.757812 C 271.371094 183.640625 272.742188 184.726562 272.742188 184.726562 C 272.382812 184.839844 272.742188 185.269531 272.742188 185.269531 L 272.742188 202.054688 C 271.183594 202.125 271.019531 203.152344 271.101562 203.871094 C 271.210938 204.703125 272.558594 205.515625 272.558594 205.515625 C 272.15625 205.703125 272.742188 206.273438 272.742188 206.273438 L 272.742188 223.933594 C 272.28125 223.980469 272.238281 224.464844 272.238281 224.464844 L 244.847656 224.464844 L 244.875 216.875 C 244.875 216.875 246.179688 216.335938 246.179688 215.171875 C 246.179688 214.308594 244.828125 214.480469 244.828125 214.480469 L 244.523438 204.011719 C 244.761719 203.730469 244.523438 203.425781 244.523438 203.425781 C 245.117188 203.066406 245.796875 203.078125 245.746094 202.175781 C 245.703125 201.378906 244.261719 201.429688 244.261719 201.429688 L 244.277344 196.566406 L 244.136719 189.699219 C 244.46875 189.445312 244.230469 189.253906 244.230469 189.253906 C 244.398438 189.128906 245.132812 188.90625 245.117188 187.953125 C 245.113281 187.007812 243.859375 186.777344 243.859375 186.777344 L 243.800781 185 C 244.039062 184.828125 243.984375 184.113281 243.984375 184.113281 C 244.632812 184.042969 245.199219 183.867188 245.214844 183.457031 C 245.226562 183.042969 244.113281 182.910156 244.113281 182.910156 C 244.148438 181.996094 243.835938 182.066406 243.835938 182.066406 C 243.785156 180.390625 241.820312 179.808594 241.820312 179.808594 C 241.847656 177.101562 241.582031 177.421875 241.582031 177.421875 C 241.269531 177.421875 241.351562 179.769531 241.351562 179.769531 C 239.703125 180.425781 239.40625 182.117188 239.40625 182.117188 C 239.109375 182.203125 239.203125 182.992188 239.203125 182.992188 C 238.511719 182.992188 238.054688 183.257812 238.054688 183.585938 C 238.054688 183.902344 239.164062 184.089844 239.164062 184.089844 C 239.109375 184.925781 239.371094 185.035156 239.371094 185.035156 L 239.40625 186.949219 C 238.574219 186.992188 238.207031 187.601562 238.222656 188.144531 C 238.230469 188.699219 239.089844 189.226562 239.089844 189.226562 C 238.820312 189.40625 239.140625 189.699219 239.140625 189.699219 L 239.203125 201.4375 C 238.5 201.566406 237.945312 201.761719 237.945312 202.355469 C 237.945312 202.96875 238.996094 203.476562 238.996094 203.476562 C 238.84375 203.628906 238.996094 203.933594 238.996094 203.933594 L 238.996094 214.480469 C 237.988281 214.464844 237.804688 214.804688 237.792969 215.40625 C 237.785156 216.003906 238.996094 216.890625 238.996094 216.890625 L 238.996094 224.464844 L 234.867188 224.464844 C 234.90625 223.164062 234.300781 223.464844 234.402344 222.929688 C 234.503906 222.402344 233.734375 222.285156 233.734375 222.285156 L 233.734375 191.074219 C 234.179688 191.019531 234.402344 190.996094 234.402344 190.761719 C 234.402344 190.511719 233.675781 190.527344 233.675781 190.527344 L 233.675781 190.121094 C 234.722656 189.332031 233.46875 189.492188 233.46875 189.492188 L 233.46875 182.660156 C 233.75 182.496094 233.660156 181.203125 233.660156 181.203125 C 234.402344 180.984375 234.09375 180.613281 233.75 180.519531 C 233.414062 180.425781 233.097656 180.292969 233.117188 179.90625 C 233.140625 179.5 233.097656 177.886719 232.933594 178.03125 C 232.765625 178.191406 232.753906 179.5625 232.753906 180.042969 C 232.753906 180.5 232.511719 180.371094 232.070312 180.664062 C 231.636719 180.953125 232.382812 181.246094 232.382812 181.246094 C 232.269531 182.523438 232.5 182.636719 232.5 182.636719 L 232.5 187.433594 L 230.863281 187.019531 L 230.863281 184.632812 C 231.726562 184.296875 230.824219 183.941406 230.824219 183.941406 L 230.824219 177.691406 C 230.992188 177.457031 230.910156 176.46875 230.910156 176.46875 C 231.585938 176.355469 231.484375 175.957031 231.339844 175.859375 C 231.214844 175.746094 230.445312 175.519531 230.445312 175.195312 C 230.445312 174.875 230.4375 173.269531 230.222656 173.269531 C 230.011719 173.269531 230.058594 174.523438 229.96875 175.167969 C 229.882812 175.8125 229.0625 175.785156 229.078125 176.089844 C 229.09375 176.394531 229.621094 176.5 229.621094 176.5 C 229.550781 177.574219 229.738281 177.691406 229.738281 177.691406 L 229.738281 181.953125 C 229.433594 181.917969 227.585938 181.96875 227.585938 181.96875 L 226.050781 183.789062 L 226.050781 182.714844 C 226.226562 182.691406 226.320312 182.425781 226.320312 182.425781 C 226.460938 182.371094 226.644531 182.203125 226.480469 182.148438 C 226.292969 182.105469 226.074219 182.132812 226.015625 181.917969 C 225.957031 181.710938 225.683594 181.625 225.683594 181.625 C 225.683594 181.351562 225.710938 179.925781 225.453125 179.925781 C 225.1875 179.925781 225.273438 181.625 225.273438 181.625 C 225.035156 181.675781 225.085938 182.117188 224.703125 182.117188 C 224.324219 182.117188 224.71875 182.460938 224.71875 182.460938 C 224.683594 182.691406 224.945312 182.71875 224.945312 182.71875 L 224.945312 185.351562 C 224.765625 185.410156 224.511719 185.8125 224.511719 185.8125 L 223.109375 185.519531 L 223.109375 180.519531 C 223.40625 180.414062 223.304688 179.148438 223.304688 179.148438 C 223.707031 179.046875 223.75 178.65625 223.5 178.539062 C 223.261719 178.40625 222.898438 178.351562 222.839844 178.105469 C 222.78125 177.859375 222.839844 175.90625 222.597656 175.90625 C 222.347656 175.90625 222.320312 177.621094 222.304688 177.902344 C 222.289062 178.191406 222.269531 178.261719 221.753906 178.507812 C 221.246094 178.75 221.839844 179.125 221.839844 179.125 C 221.753906 180.464844 222.070312 180.542969 222.070312 180.542969 L 222.070312 185.3125 L 219.328125 185.3125 L 219.328125 180.433594 C 220.414062 180.414062 220.558594 180.289062 220.898438 179.785156 C 221.238281 179.269531 221.628906 178.738281 221.285156 178.6875 C 220.921875 178.644531 219.34375 177.925781 219.34375 177.925781 C 219.675781 177.605469 219.34375 177.175781 219.34375 177.175781 C 219.402344 176.316406 218.957031 176.304688 218.957031 176.304688 C 219.414062 172.949219 215.75 170.972656 215.75 170.972656 C 215.753906 170.304688 214.703125 170.097656 214.703125 170.097656 C 214.371094 169.957031 212.582031 169.171875 212.582031 168.78125 C 212.582031 168.410156 212.269531 168.292969 212.269531 168.292969 L 212.269531 167.90625 C 212.753906 167.378906 212.210938 167.238281 212.210938 167.238281 L 212.210938 166.644531 C 212.691406 166.183594 212.195312 166.03125 212.195312 166.03125 L 212.195312 165.558594 C 212.515625 165.144531 212.195312 164.980469 212.195312 164.980469 C 212.21875 164.589844 212.210938 163.9375 211.949219 163.9375 C 211.691406 163.9375 211.710938 165.019531 211.710938 165.019531 C 211.40625 165.199219 211.710938 165.558594 211.710938 165.558594 L 211.710938 166.011719 C 211.199219 166.238281 211.710938 166.660156 211.710938 166.660156 L 211.710938 167.265625 C 211.089844 167.363281 211.644531 167.898438 211.644531 167.898438 L 211.644531 168.308594 C 211.320312 168.308594 211.320312 168.570312 211.199219 168.835938 C 211.078125 169.113281 209.414062 170.179688 209.414062 170.179688 C 207.964844 170.25 208.101562 171.0625 208.101562 171.0625 C 207.832031 171.195312 205.898438 173.269531 205.898438 173.269531 C 206.960938 170.289062 206.921875 165.324219 206.808594 162.296875 C 206.683594 159.242188 203.859375 155.035156 203.132812 154.164062 C 202.394531 153.289062 198.488281 149.617188 197.945312 149.25 C 197.390625 148.863281 194.816406 146.53125 194.816406 146.53125 C 195.496094 146.246094 194.640625 145.953125 194.640625 145.953125 C 194.628906 145.375 193.664062 145.382812 193.664062 145.382812 C 193.636719 144.78125 192.503906 144.863281 192.503906 144.863281 C 192.40625 144.40625 191.683594 144.4375 191.683594 144.4375 C 190.816406 143.582031 188.125 141.460938 188.125 141.460938 C 188.125 140.859375 187.570312 140.886719 187.570312 140.886719 C 187.535156 140.367188 187.316406 140.339844 187.316406 140.339844 C 187.238281 139.832031 186.609375 139.539062 186.296875 139.417969 L 186.296875 138.929688 C 187.550781 138.152344 186.339844 137.460938 186.339844 137.460938 L 186.339844 137.183594 C 186.964844 136.984375 187.238281 136.742188 187.289062 136.050781 C 187.335938 135.355469 186.296875 134.410156 186.296875 134.410156 L 186.296875 133.863281 C 187.03125 133.621094 186.308594 133.496094 186.308594 133.496094 L 186.308594 133.050781 C 187.40625 132.226562 186.269531 131.699219 186.269531 131.699219 L 186.269531 130.628906 C 188.160156 130.015625 187.320312 129.21875 187.230469 129.59375 C 187.132812 129.960938 186.191406 130.15625 186.191406 130.15625 L 186.191406 129.796875 C 187.101562 129.578125 186.269531 129.191406 186.269531 129.191406 C 186.308594 128.261719 186.121094 128.210938 186.121094 128.210938 C 186.121094 128.210938 185.921875 128.261719 185.972656 129.191406 C 185.972656 129.191406 185.136719 129.578125 186.042969 129.796875 L 186.042969 130.15625 C 186.042969 130.15625 185.101562 129.960938 185.007812 129.59375 C 184.925781 129.21875 184.082031 130.015625 185.972656 130.628906 L 185.972656 131.699219 C 185.972656 131.699219 184.828125 132.226562 185.921875 133.050781 L 185.921875 133.496094 C 185.921875 133.496094 185.210938 133.621094 185.953125 133.863281 L 185.953125 134.410156 C 185.953125 134.410156 184.90625 135.355469 184.949219 136.050781 C 184.996094 136.742188 185.269531 136.984375 185.894531 137.183594 L 185.894531 137.460938 C 185.894531 137.460938 184.691406 138.152344 185.953125 138.929688 L 185.953125 139.417969 C 185.632812 139.539062 184.996094 139.832031 184.925781 140.339844 C 184.925781 140.339844 184.707031 140.367188 184.664062 140.886719 C 184.664062 140.886719 184.105469 140.859375 184.105469 141.460938 C 184.105469 141.460938 181.421875 143.582031 180.5625 144.4375 C 180.5625 144.4375 179.832031 144.40625 179.730469 144.863281 C 179.730469 144.863281 178.597656 144.78125 178.570312 145.382812 C 178.570312 145.382812 177.617188 145.375 177.601562 145.953125 C 177.601562 145.953125 176.742188 146.246094 177.433594 146.53125 C 177.433594 146.53125 174.84375 148.863281 174.296875 149.25 C 173.75 149.617188 169.84375 153.289062 169.109375 154.164062 C 168.371094 155.035156 165.558594 159.242188 165.441406 162.296875 C 165.316406 165.324219 165.273438 170.289062 166.324219 173.269531 C 166.324219 173.269531 164.398438 171.195312 164.132812 171.0625 C 164.132812 171.0625 164.277344 170.25 162.828125 170.179688 C 162.828125 170.179688 161.164062 169.113281 161.03125 168.835938 C 160.910156 168.570312 160.910156 168.308594 160.589844 168.308594 L 160.589844 167.898438 C 160.589844 167.898438 161.140625 167.363281 160.523438 167.265625 L 160.523438 166.660156 C 160.523438 166.660156 161.039062 166.238281 160.523438 166.011719 L 160.523438 165.558594 C 160.523438 165.558594 160.832031 165.199219 160.523438 165.019531 C 160.523438 165.019531 160.5625 163.9375 160.289062 163.9375 C 160.035156 163.9375 160.015625 164.589844 160.050781 164.980469 C 160.050781 164.980469 159.71875 165.144531 160.035156 165.558594 L 160.035156 166.03125 C 160.035156 166.03125 159.550781 166.183594 160.035156 166.644531 L 160.035156 167.238281 C 160.035156 167.238281 159.492188 167.378906 159.96875 167.90625 L 159.96875 168.292969 C 159.96875 168.292969 159.648438 168.410156 159.648438 168.78125 C 159.648438 169.171875 157.863281 169.957031 157.546875 170.097656 C 157.546875 170.097656 156.476562 170.304688 156.492188 170.972656 C 156.492188 170.972656 152.816406 172.949219 153.277344 176.304688 C 153.277344 176.304688 152.832031 176.316406 152.90625 177.175781 C 152.90625 177.175781 152.570312 177.605469 152.90625 177.925781 C 152.90625 177.925781 151.3125 178.644531 150.953125 178.6875 C 150.613281 178.738281 151 179.269531 151.339844 179.785156 C 151.683594 180.289062 151.835938 180.414062 152.90625 180.433594 L 152.90625 185.3125 L 150.164062 185.3125 L 150.164062 180.542969 C 150.164062 180.542969 150.496094 180.464844 150.402344 179.125 C 150.402344 179.125 150.980469 178.75 150.480469 178.507812 C 149.972656 178.261719 149.953125 178.191406 149.941406 177.902344 C 149.914062 177.621094 149.882812 175.90625 149.648438 175.90625 C 149.398438 175.90625 149.464844 177.859375 149.398438 178.105469 C 149.332031 178.351562 148.984375 178.40625 148.738281 178.539062 C 148.484375 178.65625 148.527344 179.046875 148.945312 179.148438 C 148.945312 179.148438 148.84375 180.414062 149.125 180.519531 L 149.125 185.519531 L 147.738281 185.8125 C 147.738281 185.8125 147.472656 185.410156 147.292969 185.351562 L 147.292969 182.71875 C 147.292969 182.71875 147.550781 182.691406 147.515625 182.460938 C 147.515625 182.460938 147.917969 182.117188 147.53125 182.117188 C 147.15625 182.117188 147.195312 181.675781 146.957031 181.625 C 146.957031 181.625 147.046875 179.925781 146.789062 179.925781 C 146.535156 179.925781 146.542969 181.351562 146.542969 181.625 C 146.542969 181.625 146.28125 181.710938 146.226562 181.917969 C 146.160156 182.132812 145.933594 182.105469 145.761719 182.148438 C 145.605469 182.203125 145.777344 182.371094 145.917969 182.425781 C 145.917969 182.425781 146.007812 182.691406 146.191406 182.714844 L 146.191406 183.789062 L 144.648438 181.96875 C 144.648438 181.96875 142.800781 181.917969 142.496094 181.953125 L 142.496094 177.691406 C 142.496094 177.691406 142.679688 177.574219 142.613281 176.5 C 142.613281 176.5 143.140625 176.394531 143.15625 176.089844 C 143.167969 175.785156 142.355469 175.8125 142.269531 175.167969 C 142.179688 174.523438 142.226562 173.269531 142.019531 173.269531 C 141.796875 173.269531 141.796875 174.875 141.796875 175.195312 C 141.796875 175.519531 141.03125 175.746094 140.894531 175.859375 C 140.757812 175.957031 140.640625 176.355469 141.324219 176.46875 C 141.324219 176.46875 141.246094 177.457031 141.417969 177.691406 L 141.417969 183.941406 C 141.417969 183.941406 140.523438 184.296875 141.382812 184.632812 L 141.382812 187.019531 L 139.730469 187.433594 L 139.730469 182.636719 C 139.730469 182.636719 139.96875 182.523438 139.863281 181.246094 C 139.863281 181.246094 140.605469 180.953125 140.164062 180.664062 C 139.71875 180.371094 139.492188 180.5 139.492188 180.042969 C 139.492188 179.5625 139.472656 178.191406 139.304688 178.03125 C 139.136719 177.886719 139.109375 179.5 139.121094 179.90625 C 139.136719 180.292969 138.832031 180.425781 138.484375 180.519531 C 138.152344 180.613281 137.835938 180.984375 138.582031 181.203125 C 138.582031 181.203125 138.484375 182.496094 138.769531 182.660156 L 138.769531 189.492188 C 138.769531 189.492188 137.519531 189.332031 138.554688 190.121094 L 138.554688 190.527344 C 138.554688 190.527344 137.835938 190.511719 137.835938 190.761719 C 137.835938 190.996094 138.0625 191.019531 138.511719 191.074219 L 138.511719 222.285156 C 138.511719 222.285156 137.738281 222.402344 137.835938 222.929688 C 137.929688 223.464844 137.324219 223.164062 137.363281 224.464844 L 133.234375 224.464844 L 133.234375 216.890625 C 133.234375 216.890625 134.453125 216.003906 134.441406 215.40625 C 134.429688 214.804688 134.238281 214.464844 133.234375 214.480469 L 133.234375 203.933594 C 133.234375 203.933594 133.398438 203.628906 133.234375 203.476562 C 133.234375 203.476562 134.289062 202.96875 134.289062 202.355469 C 134.289062 201.761719 133.738281 201.566406 133.027344 201.4375 L 133.097656 189.699219 C 133.097656 189.699219 133.421875 189.40625 133.148438 189.226562 C 133.148438 189.226562 134.007812 188.699219 134.027344 188.144531 C 134.03125 187.601562 133.667969 186.992188 132.828125 186.949219 L 132.871094 185.035156 C 132.871094 185.035156 133.125 184.925781 133.070312 184.089844 C 133.070312 184.089844 134.195312 183.902344 134.195312 183.585938 C 134.195312 183.257812 133.722656 182.992188 133.027344 182.992188 C 133.027344 182.992188 133.125 182.203125 132.828125 182.117188 C 132.828125 182.117188 132.539062 180.425781 130.890625 179.769531 C 130.890625 179.769531 130.96875 177.421875 130.664062 177.421875 C 130.664062 177.421875 130.378906 177.101562 130.414062 179.808594 C 130.414062 179.808594 128.460938 180.390625 128.398438 182.066406 C 128.398438 182.066406 128.089844 181.996094 128.125 182.910156 C 128.125 182.910156 127.003906 183.042969 127.027344 183.457031 C 127.035156 183.867188 127.597656 184.042969 128.261719 184.113281 C 128.261719 184.113281 128.195312 184.828125 128.449219 185 L 128.375 186.777344 C 128.375 186.777344 127.128906 187.007812 127.113281 187.953125 C 127.09375 188.90625 127.835938 189.128906 128 189.253906 C 128 189.253906 127.773438 189.445312 128.105469 189.699219 L 127.960938 196.566406 L 127.988281 201.429688 C 127.988281 201.429688 126.53125 201.378906 126.492188 202.175781 C 126.441406 203.078125 127.113281 203.066406 127.722656 203.425781 C 127.722656 203.425781 127.488281 203.730469 127.722656 204.011719 L 127.421875 214.480469 C 127.421875 214.480469 126.0625 214.308594 126.0625 215.171875 C 126.0625 216.335938 127.363281 216.875 127.363281 216.875 L 127.390625 224.464844 L 100 224.464844 C 100 224.464844 99.957031 223.980469 99.492188 223.933594 L 99.492188 206.273438 C 99.492188 206.273438 100.082031 205.703125 99.675781 205.515625 C 99.675781 205.515625 101.035156 204.703125 101.132812 203.871094 C 101.222656 203.152344 101.050781 202.125 99.492188 202.054688 L 99.492188 185.269531 C 99.492188 185.269531 99.84375 184.839844 99.492188 184.726562 C 99.492188 184.726562 100.871094 183.640625 100.984375 182.757812 C 101.117188 181.878906 100.839844 180.925781 99.492188 180.863281 L 99.28125 162.324219 C 99.28125 162.324219 101.28125 161.25 101.171875 160.015625 C 101.105469 159.117188 100.523438 158.421875 99.425781 158.023438 L 99.46875 155.355469 C 99.46875 155.355469 99.777344 155.109375 99.703125 153.921875 C 99.703125 153.921875 101.46875 153.082031 101.769531 152.734375 C 102.097656 152.371094 100.714844 151.863281 100.082031 151.558594 C 100.082031 151.558594 100.136719 150.375 99.492188 150.28125 C 99.492188 150.28125 99.449219 148.941406 98.460938 147.902344 C 97.582031 146.980469 96.976562 146.902344 96.492188 146.800781 C 96.492188 146.800781 96.621094 145.832031 96.339844 145.769531 L 96.339844 145.527344 C 96.339844 145.527344 96.878906 144.90625 96.339844 144.871094 L 96.339844 144.574219 C 96.339844 144.574219 96.824219 144.046875 96.339844 144.015625 L 96.339844 143.660156 C 96.339844 143.660156 96.929688 143.15625 96.339844 143.167969 C 96.339844 143.167969 96.449219 142.53125 96.144531 142.53125 C 96.144531 142.53125 95.835938 142.40625 95.878906 143.167969 C 95.878906 143.167969 95.371094 143.183594 95.878906 143.660156 L 95.878906 144.046875 C 95.878906 144.046875 95.441406 143.917969 95.878906 144.554688 L 95.878906 144.855469 C 95.878906 144.855469 95.371094 144.835938 95.878906 145.550781 L 95.878906 145.769531 C 95.878906 145.769531 95.625 145.785156 95.644531 146.753906 C 95.644531 146.753906 94.164062 146.835938 93.316406 147.824219 C 92.410156 148.84375 92.332031 149.417969 92.332031 150.128906 C 92.332031 150.128906 91.605469 150.558594 91.632812 151.359375 C 91.632812 151.359375 89.90625 152.042969 89.898438 152.273438 C 89.882812 152.636719 91.382812 153.0625 91.90625 153.496094 C 91.90625 153.496094 91.660156 154.667969 92.050781 155.003906 L 92.050781 157.675781 C 92.050781 157.675781 89.871094 157.960938 89.953125 159.632812 C 90.039062 161.308594 91.292969 161.726562 91.605469 162.171875 L 90.328125 180.675781 C 90.328125 180.675781 88.589844 180.566406 88.433594 182.269531 C 88.34375 183.277344 88.941406 183.820312 89.773438 184.351562 C 89.773438 184.351562 89.417969 184.535156 89.871094 184.882812 L 88.679688 202.023438 C 88.679688 202.023438 86.9375 202.125 86.9375 203.425781 C 86.9375 204.75 87.917969 205.058594 88.464844 205.417969 C 88.464844 205.417969 87.851562 205.726562 88.535156 206.1875 L 87.546875 224.066406 C 87.546875 224.066406 86.753906 223.972656 86.753906 224.464844 C 86.753906 224.464844 85.289062 224.09375 85.324219 225.726562 C 85.324219 225.726562 84.414062 223.84375 84.652344 236.757812 L 54.90625 236.757812 C 59.808594 246.082031 67.351562 255.617188 79 264.53125 C 107.847656 286.617188 163.316406 288.328125 179.632812 288.328125 C 183.289062 288.328125 185.417969 288.246094 185.429688 288.246094 C 185.65625 288.238281 185.882812 288.234375 186.117188 288.234375 C 186.339844 288.234375 186.570312 288.238281 186.792969 288.246094 C 186.816406 288.246094 188.953125 288.328125 192.605469 288.328125 C 208.921875 288.328125 264.386719 286.613281 293.234375 264.53125 C 304.886719 255.617188 312.425781 246.082031 317.328125 236.757812 L 287.585938 236.757812 " fill-opacity="1" fill-rule="nonzero"/><path fill="#f6debc" d="M 125.828125 245.6875 L 130.324219 245.6875 L 130.324219 277.121094 L 125.828125 277.121094 L 125.828125 245.6875 " fill-opacity="1" fill-rule="nonzero"/><path fill="#f6debc" d="M 162.207031 245.6875 L 166.472656 245.6875 L 166.472656 277.121094 L 162.609375 277.121094 L 141.636719 252.910156 L 141.636719 277.121094 L 137.414062 277.121094 L 137.414062 245.6875 L 141.054688 245.6875 L 162.207031 270.101562 L 162.207031 245.6875 " fill-opacity="1" fill-rule="nonzero"/><path fill="#f6debc" d="M 183.332031 249.691406 L 177.71875 249.691406 L 177.71875 273.070312 L 183.464844 273.070312 C 185.714844 273.070312 187.457031 272.917969 188.699219 272.605469 C 189.941406 272.304688 190.976562 271.914062 191.808594 271.441406 C 192.640625 270.964844 193.402344 270.386719 194.089844 269.691406 C 196.304688 267.445312 197.414062 264.601562 197.414062 261.167969 C 197.414062 257.789062 196.273438 255.042969 193.996094 252.910156 C 193.15625 252.113281 192.199219 251.460938 191.113281 250.953125 C 190.03125 250.4375 188.996094 250.101562 188.023438 249.933594 C 187.054688 249.773438 185.492188 249.691406 183.332031 249.691406 Z M 173.226562 277.074219 L 173.226562 245.6875 L 183.808594 245.6875 C 188.066406 245.6875 191.445312 246.328125 193.929688 247.613281 C 196.417969 248.894531 198.394531 250.777344 199.855469 253.273438 C 201.328125 255.757812 202.058594 258.476562 202.058594 261.414062 C 202.058594 263.519531 201.65625 265.527344 200.84375 267.445312 C 200.035156 269.371094 198.886719 271.050781 197.390625 272.503906 C 195.863281 274.007812 194.089844 275.144531 192.066406 275.90625 C 190.886719 276.371094 189.800781 276.683594 188.8125 276.84375 C 187.824219 277 185.9375 277.074219 183.152344 277.074219 L 173.226562 277.074219 " fill-opacity="1" fill-rule="nonzero"/><path fill="#f6debc" d="M 207.714844 245.6875 L 212.207031 245.6875 L 212.207031 277.121094 L 207.714844 277.121094 L 207.714844 245.6875 " fill-opacity="1" fill-rule="nonzero"/><path fill="#f6debc" d="M 235.78125 263.800781 L 230.722656 252.414062 L 226.027344 263.800781 Z M 229.183594 245.503906 L 232.339844 245.503906 L 246.40625 277.121094 L 241.804688 277.121094 L 237.628906 267.804688 L 224.242188 267.804688 L 220.324219 277.121094 L 215.710938 277.121094 L 229.183594 245.503906 " fill-opacity="1" fill-rule="nonzero"/><path fill="#f6debc" d="M 185.476562 104.472656 L 187.425781 110.484375 L 193.738281 110.484375 L 188.632812 114.210938 L 190.582031 120.226562 L 185.476562 116.511719 L 180.363281 120.226562 L 182.316406 114.210938 L 177.203125 110.484375 L 183.523438 110.484375 L 185.476562 104.472656 " fill-opacity="1" fill-rule="nonzero"/><path fill="#f6debc" d="M 157.582031 114.976562 L 158.882812 118.984375 L 163.09375 118.984375 L 159.6875 121.46875 L 160.988281 125.480469 L 157.582031 123.003906 L 154.179688 125.480469 L 155.480469 121.46875 L 152.070312 118.984375 L 156.28125 118.984375 L 157.582031 114.976562 " fill-opacity="1" fill-rule="nonzero"/><path fill="#f6debc" d="M 213.367188 114.976562 L 214.667969 118.984375 L 218.878906 118.984375 L 215.472656 121.46875 L 216.769531 125.480469 L 213.367188 123.003906 L 209.960938 125.480469 L 211.261719 121.46875 L 207.851562 118.984375 L 212.0625 118.984375 L 213.367188 114.976562 " fill-opacity="1" fill-rule="nonzero"/><path fill="#ff9221" d="M 162.273438 192.605469 L 209.960938 192.605469 L 209.960938 224.464844 L 162.273438 224.464844 L 162.273438 192.605469 " fill-opacity="1" fill-rule="nonzero"/><path fill="#ffe6d3" d="M 162.273438 203.226562 L 209.960938 203.226562 L 209.960938 213.847656 L 162.273438 213.847656 L 162.273438 203.226562 " fill-opacity="1" fill-rule="nonzero"/><path fill="#97994e" d="M 162.273438 213.847656 L 209.960938 213.847656 L 209.960938 224.464844 L 162.273438 224.464844 L 162.273438 213.847656 " fill-opacity="1" fill-rule="nonzero"/><path fill="#004776" d="M 185.820312 212.238281 C 185.828125 212.136719 185.757812 212.046875 185.65625 212.035156 C 185.558594 212.023438 185.46875 212.089844 185.453125 212.191406 C 185.355469 212.167969 185.253906 212.148438 185.160156 212.121094 L 185.855469 210.003906 L 185.964844 209.261719 L 186.078125 209.277344 L 185.992188 210.023438 L 186.117188 212.253906 L 186.246094 210.023438 L 186.15625 209.277344 L 186.273438 209.261719 L 186.382812 210.003906 L 187.074219 212.121094 C 186.980469 212.148438 186.882812 212.167969 186.78125 212.191406 C 186.765625 212.089844 186.675781 212.023438 186.578125 212.035156 C 186.476562 212.046875 186.410156 212.136719 186.417969 212.238281 C 186.320312 212.246094 186.21875 212.253906 186.117188 212.253906 C 186.015625 212.253906 185.917969 212.246094 185.820312 212.238281 Z M 185.78125 207.878906 L 185.488281 207.183594 L 184.265625 205.320312 C 184.351562 205.269531 184.441406 205.222656 184.53125 205.179688 C 184.574219 205.269531 184.675781 205.3125 184.769531 205.273438 C 184.859375 205.234375 184.902344 205.132812 184.871094 205.035156 C 184.964844 205.003906 185.058594 204.972656 185.160156 204.945312 L 185.609375 207.132812 L 185.890625 207.832031 Z M 183.714844 205.703125 C 183.777344 205.78125 183.894531 205.796875 183.972656 205.734375 C 184.050781 205.671875 184.066406 205.558594 184.011719 205.480469 C 184.09375 205.421875 184.179688 205.367188 184.265625 205.320312 L 185.265625 207.3125 L 185.714844 207.910156 L 185.625 207.984375 L 185.160156 207.394531 L 183.496094 205.90625 C 183.566406 205.835938 183.640625 205.769531 183.714844 205.703125 Z M 183.066406 206.421875 C 183.148438 206.480469 183.257812 206.464844 183.320312 206.386719 C 183.382812 206.308594 183.367188 206.191406 183.292969 206.132812 C 183.359375 206.054688 183.421875 205.980469 183.496094 205.90625 L 184.980469 207.574219 L 185.566406 208.039062 L 185.496094 208.132812 L 184.894531 207.683594 L 182.910156 206.675781 C 182.957031 206.589844 183.011719 206.507812 183.066406 206.421875 Z M 182.863281 207.183594 C 182.902344 207.09375 182.855469 206.988281 182.765625 206.945312 C 182.8125 206.855469 182.855469 206.765625 182.910156 206.675781 L 184.769531 207.902344 L 185.460938 208.199219 L 185.417969 208.308594 L 184.71875 208.027344 L 182.539062 207.574219 C 182.5625 207.476562 182.59375 207.382812 182.628906 207.289062 C 182.722656 207.320312 182.824219 207.277344 182.863281 207.183594 Z M 182.425781 208.839844 C 182.414062 208.734375 182.410156 208.640625 182.410156 208.535156 C 182.410156 208.433594 182.414062 208.332031 182.425781 208.234375 C 182.523438 208.242188 182.609375 208.171875 182.625 208.074219 C 182.636719 207.976562 182.570312 207.882812 182.472656 207.867188 C 182.488281 207.769531 182.511719 207.671875 182.539062 207.578125 L 184.652344 208.273438 L 185.390625 208.378906 L 185.378906 208.496094 L 184.632812 208.40625 L 182.410156 208.535156 L 184.632812 208.660156 L 185.378906 208.574219 L 185.390625 208.691406 L 184.652344 208.796875 L 182.539062 209.5 C 182.511719 209.402344 182.488281 209.304688 182.472656 209.203125 C 182.570312 209.1875 182.636719 209.097656 182.625 208.992188 C 182.609375 208.898438 182.523438 208.828125 182.425781 208.839844 Z M 182.863281 209.886719 C 182.824219 209.796875 182.722656 209.75 182.628906 209.785156 C 182.59375 209.6875 182.5625 209.59375 182.539062 209.5 L 184.71875 209.042969 L 185.417969 208.765625 L 185.460938 208.871094 L 184.769531 209.171875 L 182.910156 210.390625 C 182.855469 210.304688 182.8125 210.214844 182.765625 210.125 C 182.855469 210.082031 182.902344 209.980469 182.863281 209.886719 Z M 183.320312 210.6875 C 183.257812 210.605469 183.148438 210.589844 183.066406 210.644531 C 183.011719 210.566406 182.957031 210.480469 182.910156 210.390625 L 184.894531 209.390625 L 185.496094 208.9375 L 185.566406 209.035156 L 184.980469 209.5 L 183.496094 211.164062 C 183.421875 211.09375 183.359375 211.019531 183.292969 210.941406 C 183.367188 210.875 183.382812 210.765625 183.320312 210.6875 Z M 183.972656 211.339844 C 183.894531 211.277344 183.777344 211.292969 183.714844 211.367188 C 183.640625 211.300781 183.566406 211.234375 183.496094 211.164062 L 185.160156 209.679688 L 185.625 209.085938 L 185.714844 209.15625 L 185.265625 209.757812 L 184.265625 211.75 C 184.179688 211.699219 184.09375 211.652344 184.011719 211.59375 C 184.066406 211.507812 184.050781 211.398438 183.972656 211.339844 Z M 184.769531 211.796875 C 184.675781 211.757812 184.574219 211.804688 184.53125 211.894531 C 184.441406 211.847656 184.351562 211.804688 184.265625 211.753906 L 185.488281 209.886719 L 185.78125 209.195312 L 185.890625 209.238281 L 185.609375 209.9375 L 185.160156 212.121094 C 185.058594 212.09375 184.964844 212.066406 184.871094 212.03125 C 184.902344 211.9375 184.859375 211.835938 184.769531 211.796875 Z M 186.417969 204.832031 C 186.410156 204.929688 186.476562 205.019531 186.578125 205.035156 C 186.675781 205.046875 186.765625 204.976562 186.78125 204.882812 C 186.882812 204.898438 186.980469 204.921875 187.074219 204.945312 L 186.382812 207.066406 L 186.273438 207.808594 L 186.15625 207.796875 L 186.246094 207.050781 L 186.117188 204.820312 L 185.992188 207.050781 L 186.078125 207.796875 L 185.964844 207.808594 L 185.855469 207.066406 L 185.160156 204.945312 C 185.253906 204.921875 185.355469 204.898438 185.453125 204.882812 C 185.46875 204.976562 185.558594 205.046875 185.65625 205.035156 C 185.757812 205.019531 185.828125 204.929688 185.820312 204.832031 C 185.917969 204.824219 186.015625 204.820312 186.117188 204.820312 C 186.21875 204.820312 186.320312 204.824219 186.417969 204.832031 Z M 189.375 207.183594 C 189.410156 207.277344 189.515625 207.320312 189.605469 207.289062 C 189.640625 207.382812 189.671875 207.476562 189.695312 207.574219 L 187.515625 208.027344 L 186.820312 208.308594 L 186.777344 208.199219 L 187.464844 207.902344 L 189.328125 206.675781 C 189.375 206.765625 189.421875 206.855469 189.464844 206.945312 C 189.375 206.988281 189.335938 207.09375 189.375 207.183594 Z M 188.914062 206.386719 C 188.972656 206.464844 189.085938 206.480469 189.167969 206.421875 C 189.226562 206.507812 189.277344 206.589844 189.328125 206.675781 L 187.339844 207.683594 L 186.742188 208.132812 L 186.667969 208.039062 L 187.257812 207.574219 L 188.738281 205.90625 C 188.8125 205.980469 188.878906 206.054688 188.945312 206.132812 C 188.867188 206.191406 188.855469 206.308594 188.914062 206.386719 Z M 188.261719 205.734375 C 188.34375 205.796875 188.453125 205.78125 188.515625 205.703125 C 188.59375 205.769531 188.667969 205.835938 188.738281 205.90625 L 187.078125 207.394531 L 186.613281 207.984375 L 186.519531 207.910156 L 186.972656 207.3125 L 187.972656 205.320312 C 188.058594 205.367188 188.140625 205.421875 188.226562 205.480469 C 188.167969 205.558594 188.183594 205.671875 188.261719 205.734375 Z M 187.464844 205.273438 C 187.558594 205.3125 187.664062 205.269531 187.707031 205.179688 C 187.796875 205.222656 187.886719 205.269531 187.96875 205.320312 L 186.75 207.183594 L 186.453125 207.878906 L 186.34375 207.832031 L 186.621094 207.132812 L 187.078125 204.945312 C 187.171875 204.972656 187.269531 205.003906 187.363281 205.035156 C 187.332031 205.132812 187.375 205.234375 187.464844 205.273438 Z M 187.707031 211.894531 C 187.664062 211.804688 187.558594 211.757812 187.464844 211.796875 C 187.375 211.835938 187.332031 211.9375 187.363281 212.03125 C 187.269531 212.066406 187.171875 212.09375 187.078125 212.121094 L 186.621094 209.9375 L 186.34375 209.238281 L 186.453125 209.195312 L 186.75 209.886719 L 187.96875 211.753906 C 187.886719 211.804688 187.796875 211.847656 187.707031 211.894531 Z M 188.515625 211.367188 C 188.453125 211.292969 188.34375 211.277344 188.261719 211.339844 C 188.183594 211.398438 188.167969 211.507812 188.226562 211.59375 C 188.140625 211.652344 188.058594 211.699219 187.972656 211.75 L 186.972656 209.757812 L 186.519531 209.15625 L 186.613281 209.085938 L 187.078125 209.679688 L 188.738281 211.164062 C 188.667969 211.234375 188.59375 211.300781 188.515625 211.367188 Z M 189.167969 210.644531 C 189.085938 210.589844 188.972656 210.605469 188.914062 210.6875 C 188.855469 210.765625 188.867188 210.875 188.945312 210.941406 C 188.878906 211.019531 188.8125 211.09375 188.738281 211.164062 L 187.257812 209.5 L 186.667969 209.035156 L 186.742188 208.9375 L 187.339844 209.390625 L 189.328125 210.390625 C 189.277344 210.480469 189.226562 210.566406 189.167969 210.644531 Z M 189.375 209.886719 C 189.335938 209.980469 189.375 210.082031 189.464844 210.125 C 189.421875 210.214844 189.375 210.304688 189.328125 210.390625 L 187.464844 209.171875 L 186.777344 208.871094 L 186.820312 208.765625 L 187.515625 209.042969 L 189.695312 209.5 C 189.671875 209.59375 189.640625 209.6875 189.605469 209.785156 C 189.515625 209.75 189.410156 209.796875 189.375 209.886719 Z M 189.761719 209.203125 C 189.746094 209.304688 189.722656 209.402344 189.695312 209.5 L 187.582031 208.796875 L 186.84375 208.691406 L 186.855469 208.574219 L 187.601562 208.660156 L 189.824219 208.535156 L 187.601562 208.40625 L 186.855469 208.496094 L 186.84375 208.378906 L 187.582031 208.273438 L 189.695312 207.578125 C 189.722656 207.671875 189.746094 207.769531 189.761719 207.867188 C 189.667969 207.882812 189.597656 207.976562 189.613281 208.074219 C 189.625 208.171875 189.714844 208.242188 189.8125 208.234375 C 189.820312 208.332031 189.824219 208.433594 189.824219 208.535156 C 189.824219 208.640625 189.820312 208.734375 189.8125 208.839844 C 189.714844 208.828125 189.625 208.898438 189.613281 208.992188 C 189.597656 209.097656 189.667969 209.1875 189.761719 209.203125 Z M 186.117188 204.285156 C 183.777344 204.285156 181.878906 206.191406 181.878906 208.535156 C 181.878906 210.882812 183.777344 212.78125 186.117188 212.78125 C 188.457031 212.78125 190.355469 210.882812 190.355469 208.535156 C 190.355469 206.191406 188.457031 204.285156 186.117188 204.285156 " fill-opacity="1" fill-rule="nonzero"/></svg>