<svg width="41" height="40" viewBox="0 0 41 40" fill="none" xmlns="http://www.w3.org/2000/svg">
<path d="M20.7498 13.1282V3.28204L17.4165 6.56409" stroke="#4C80E5" stroke-width="4" stroke-linecap="round" stroke-linejoin="round"/>
<path d="M20.75 3.28204L24.0833 6.5641" stroke="#4C80E5" stroke-width="4" stroke-linecap="round" stroke-linejoin="round"/>
<path d="M12.4167 19.6923C5.75 19.6923 5.75 22.6298 5.75 26.2564V27.8975C5.75 32.4267 5.75 36.1026 14.0833 36.1026H27.4167C34.0833 36.1026 35.75 32.4267 35.75 27.8975V26.2564C35.75 22.6298 35.75 19.6923 29.0833 19.6923C27.4167 19.6923 26.95 20.0369 26.0833 20.6769L24.3833 22.4492C22.4167 24.5169 19.0833 24.5169 17.1 22.4492L15.4167 20.6769C14.55 20.0369 14.0833 19.6923 12.4167 19.6923Z" stroke="#4C80E5" stroke-width="4" stroke-miterlimit="10" stroke-linecap="round" stroke-linejoin="round"/>
<path d="M9.0835 19.6923V16.4103C9.0835 13.1118 9.0835 10.3877 14.0835 9.9118" stroke="#4C80E5" stroke-width="4" stroke-miterlimit="10" stroke-linecap="round" stroke-linejoin="round"/>
<path d="M32.4165 19.6923V16.4103C32.4165 13.1118 32.4165 10.3877 27.4165 9.9118" stroke="#4C80E5" stroke-width="4" stroke-miterlimit="10" stroke-linecap="round" stroke-linejoin="round"/>
</svg>
