<svg width="41" height="40" viewBox="0 0 41 40" fill="none" xmlns="http://www.w3.org/2000/svg">
<path d="M14.0835 18.7077C14.0835 19.9713 15.0835 21.0051 16.3002 21.0051H18.8002C19.8668 21.0051 20.7335 20.1025 20.7335 19.0031C20.7335 17.8051 20.2002 17.3784 19.4168 17.0995L15.4168 15.721C14.6168 15.442 14.0835 15.0154 14.0835 13.8174C14.0835 12.7179 14.9502 11.8154 16.0168 11.8154H18.5168C19.7502 11.8318 20.7502 12.8492 20.7502 14.1128" stroke="#DADE0D" stroke-width="3" stroke-linecap="round" stroke-linejoin="round"/>
<path d="M17.4165 21.0872V22.3015" stroke="#DADE0D" stroke-width="3" stroke-linecap="round" stroke-linejoin="round"/>
<path d="M17.4165 10.519V11.799" stroke="#DADE0D" stroke-width="3" stroke-linecap="round" stroke-linejoin="round"/>
<path d="M17.4002 29.5056C24.7548 29.5056 30.7168 23.6353 30.7168 16.3938C30.7168 9.15239 24.7548 3.28204 17.4002 3.28204C10.0456 3.28204 4.0835 9.15239 4.0835 16.3938C4.0835 23.6353 10.0456 29.5056 17.4002 29.5056Z" stroke="#DADE0D" stroke-width="3" stroke-linecap="round" stroke-linejoin="round"/>
<path d="M22.3833 32.6236C23.8833 34.7077 26.3333 36.0697 29.1333 36.0697C33.6833 36.0697 37.3833 32.4266 37.3833 27.9466C37.3833 25.2225 36.0166 22.8102 33.9333 21.3333" stroke="#DADE0D" stroke-width="3" stroke-linecap="round" stroke-linejoin="round"/>
</svg>
