<svg xmlns="http://www.w3.org/2000/svg" width="32" height="32" xmlns:v="https://vecta.io/nano"><defs><radialGradient cx="50%" cy="50%" fx="50%" fy="50%" r="111.709568%" id="A"><stop stop-color="#fff" stop-opacity="0" offset="0%"/><stop stop-color="#fff" stop-opacity=".899" offset="100%"/></radialGradient></defs><g fill-rule="evenodd"><path d="M16 .48a15.47 15.47 0 0 1 10.973 4.547A15.47 15.47 0 0 1 31.52 16a15.47 15.47 0 0 1-4.547 10.973A15.47 15.47 0 0 1 16 31.52a15.47 15.47 0 0 1-10.973-4.547A15.47 15.47 0 0 1 .48 16 15.47 15.47 0 0 1 5.027 5.027 15.47 15.47 0 0 1 16 .48z" stroke-opacity=".3" stroke="#fff" stroke-width=".96" fill="url(#A)" fill-rule="nonzero"/><path d="M16 4.8C9.818 4.8 4.8 9.818 4.8 16S9.818 27.2 16 27.2 27.2 22.182 27.2 16 22.182 4.8 16 4.8z" fill="#f7faff"/><path d="M20.644 13.091a1.05 1.05 0 0 1 1.451 0c.407.393.407 1.032 0 1.425h0l-6.202 5.991a1.05 1.05 0 0 1-1.453.002h0l-2.934-2.834c-.407-.393-.407-1.032 0-1.425a1.05 1.05 0 0 1 1.451 0h0l2.213 2.129z" fill="#052f5f" fill-rule="nonzero" opacity=".8"/></g></svg>